<svg width="170" height="18" viewBox="0 0 170 18" fill="none" xmlns="http://www.w3.org/2000/svg">
<mask id="path-1-outside-1_97_3" maskUnits="userSpaceOnUse" x="-2" y="-2" width="174" height="22" fill="black">
<rect fill="white" x="-2" y="-2" width="174" height="22"/>
<path d="M16.8838 18H14.8838H12.8838V16V14V12H10.8838H8.88375H6.88375V14V16V18H4.88375H2.88375H0.883751V16V14V12V10V8V6H2.88375V4H4.88375V2H6.88375V0H8.88375H10.8838H12.8838V2H14.8838V4H16.8838V6V8H18.8838V10V12V14V16V18H16.8838ZM10.8838 10H12.8838V8H10.8838V6V4H8.88375V6V8H6.88375V10H8.88375H10.8838ZM35.1237 18H33.1237H31.1237H29.1237H27.1237V16H25.1237V14V12V10V8H23.1237V6V4V2V0H25.1237H27.1237H29.1237V2V4V6V8H31.1237V10V12V14V16H33.1237V14V12V10V8H35.1237V6V4V2V0H37.1237H39.1237H41.1237V2V4V6V8H39.1237V10V12V14V16H37.1237V18H35.1237ZM61.3638 18H59.3638H57.3638V16V14V12H55.3638H53.3638H51.3638V14V16V18H49.3638H47.3638H45.3638V16V14V12V10V8V6H47.3638V4H49.3638V2H51.3638V0H53.3638H55.3638H57.3638V2H59.3638V4H61.3638V6V8H63.3638V10V12V14V16V18H61.3638ZM55.3638 10H57.3638V8H55.3638V6V4H53.3638V6V8H51.3638V10H53.3638H55.3638ZM68.8838 10.672V8.176H76.6278V10.672H68.8838ZM92.1562 18H90.1562H88.1562H86.1562H84.1562H82.1562H80.1562V16V14V12V10V8V6V4V2V0H82.1562H84.1562H86.1562H88.1562H90.1562H92.1562H94.1562V2H96.1562V4V6V8H94.1562H92.1562V10H94.1562H96.1562V12V14V16H94.1562V18H92.1562ZM88.1562 16H90.1562V14V12V10H88.1562H86.1562V12V14V16H88.1562ZM88.1562 8H90.1562V6V4V2H88.1562H86.1562V4V6V8H88.1562ZM104.396 18H102.396H100.396V16V14V12V10V8V6V4V2V0H102.396H104.396H106.396V2V4V6V8V10V12V14V16V18H104.396ZM124.636 18H122.636H120.636V16V14V12V10H122.636H124.636H126.636V12V14V16V18H124.636ZM114.636 18H112.636H110.636V16V14V12V10V8V6V4V2V0H112.636H114.636H116.636H118.636H120.636H122.636H124.636V2H126.636V4V6V8H124.636H122.636H120.636V6V4V2H118.636H116.636V4V6V8H118.636H120.636V10H118.636H116.636V12V14V16V18H114.636ZM142.876 18H140.876H138.876H136.876H134.876H132.876H130.876V16V14V12V10V8V6V4V2V0H132.876H134.876H136.876H138.876H140.876H142.876H144.876V2H146.876V4V6V8V10V12V14V16H144.876V18H142.876ZM138.876 16H140.876V14V12V10V8V6V4V2H138.876H136.876V4V6V8V10V12V14V16H138.876ZM165.116 18H163.116H161.116H159.116H157.116H155.116H153.116V16H151.116V14H153.116H155.116H157.116V16H159.116H161.116H163.116V14V12H161.116V10H159.116H157.116H155.116H153.116V8H151.116V6V4V2H153.116V0H155.116H157.116H159.116H161.116H163.116H165.116H167.116V2H169.116V4H167.116H165.116H163.116V2H161.116H159.116H157.116V4V6V8H159.116H161.116H163.116H165.116V10H167.116V12H169.116V14V16H167.116V18H165.116Z"/>
</mask>
<path d="M16.8838 18H14.8838H12.8838V16V14V12H10.8838H8.88375H6.88375V14V16V18H4.88375H2.88375H0.883751V16V14V12V10V8V6H2.88375V4H4.88375V2H6.88375V0H8.88375H10.8838H12.8838V2H14.8838V4H16.8838V6V8H18.8838V10V12V14V16V18H16.8838ZM10.8838 10H12.8838V8H10.8838V6V4H8.88375V6V8H6.88375V10H8.88375H10.8838ZM35.1237 18H33.1237H31.1237H29.1237H27.1237V16H25.1237V14V12V10V8H23.1237V6V4V2V0H25.1237H27.1237H29.1237V2V4V6V8H31.1237V10V12V14V16H33.1237V14V12V10V8H35.1237V6V4V2V0H37.1237H39.1237H41.1237V2V4V6V8H39.1237V10V12V14V16H37.1237V18H35.1237ZM61.3638 18H59.3638H57.3638V16V14V12H55.3638H53.3638H51.3638V14V16V18H49.3638H47.3638H45.3638V16V14V12V10V8V6H47.3638V4H49.3638V2H51.3638V0H53.3638H55.3638H57.3638V2H59.3638V4H61.3638V6V8H63.3638V10V12V14V16V18H61.3638ZM55.3638 10H57.3638V8H55.3638V6V4H53.3638V6V8H51.3638V10H53.3638H55.3638ZM68.8838 10.672V8.176H76.6278V10.672H68.8838ZM92.1562 18H90.1562H88.1562H86.1562H84.1562H82.1562H80.1562V16V14V12V10V8V6V4V2V0H82.1562H84.1562H86.1562H88.1562H90.1562H92.1562H94.1562V2H96.1562V4V6V8H94.1562H92.1562V10H94.1562H96.1562V12V14V16H94.1562V18H92.1562ZM88.1562 16H90.1562V14V12V10H88.1562H86.1562V12V14V16H88.1562ZM88.1562 8H90.1562V6V4V2H88.1562H86.1562V4V6V8H88.1562ZM104.396 18H102.396H100.396V16V14V12V10V8V6V4V2V0H102.396H104.396H106.396V2V4V6V8V10V12V14V16V18H104.396ZM124.636 18H122.636H120.636V16V14V12V10H122.636H124.636H126.636V12V14V16V18H124.636ZM114.636 18H112.636H110.636V16V14V12V10V8V6V4V2V0H112.636H114.636H116.636H118.636H120.636H122.636H124.636V2H126.636V4V6V8H124.636H122.636H120.636V6V4V2H118.636H116.636V4V6V8H118.636H120.636V10H118.636H116.636V12V14V16V18H114.636ZM142.876 18H140.876H138.876H136.876H134.876H132.876H130.876V16V14V12V10V8V6V4V2V0H132.876H134.876H136.876H138.876H140.876H142.876H144.876V2H146.876V4V6V8V10V12V14V16H144.876V18H142.876ZM138.876 16H140.876V14V12V10V8V6V4V2H138.876H136.876V4V6V8V10V12V14V16H138.876ZM165.116 18H163.116H161.116H159.116H157.116H155.116H153.116V16H151.116V14H153.116H155.116H157.116V16H159.116H161.116H163.116V14V12H161.116V10H159.116H157.116H155.116H153.116V8H151.116V6V4V2H153.116V0H155.116H157.116H159.116H161.116H163.116H165.116H167.116V2H169.116V4H167.116H165.116H163.116V2H161.116H159.116H157.116V4V6V8H159.116H161.116H163.116H165.116V10H167.116V12H169.116V14V16H167.116V18H165.116Z" fill="#FCB800"/>
<path d="M12.8838 18H10.8838V20H12.8838V18ZM12.8838 12H14.8838V10H12.8838V12ZM6.88375 12V10H4.88375V12H6.88375ZM6.88375 18V20H8.88375V18H6.88375ZM0.883751 18H-1.11625V20H0.883751V18ZM0.883751 6V4H-1.11625V6H0.883751ZM2.88375 6V8H4.88375V6H2.88375ZM2.88375 4V2H0.883751V4H2.88375ZM4.88375 4V6H6.88375V4H4.88375ZM4.88375 2V0H2.88375V2H4.88375ZM6.88375 2V4H8.88375V2H6.88375ZM6.88375 0V-2H4.88375V0H6.88375ZM12.8838 0H14.8838V-2H12.8838V0ZM12.8838 2H10.8838V4H12.8838V2ZM14.8838 2H16.8838V0H14.8838V2ZM14.8838 4H12.8838V6H14.8838V4ZM16.8838 4H18.8838V2H16.8838V4ZM16.8838 8H14.8838V10H16.8838V8ZM18.8838 8H20.8838V6H18.8838V8ZM18.8838 18V20H20.8838V18H18.8838ZM12.8838 10V12H14.8838V10H12.8838ZM12.8838 8H14.8838V6H12.8838V8ZM10.8838 8H8.88375V10H10.8838V8ZM10.8838 4H12.8838V2H10.8838V4ZM8.88375 4V2H6.88375V4H8.88375ZM8.88375 8V10H10.8838V8H8.88375ZM6.88375 8V6H4.88375V8H6.88375ZM6.88375 10H4.88375V12H6.88375V10ZM16.8838 16H14.8838V20H16.8838V16ZM14.8838 16H12.8838V20H14.8838V16ZM14.8838 18V16H10.8838V18H14.8838ZM14.8838 16V14H10.8838V16H14.8838ZM14.8838 14V12H10.8838V14H14.8838ZM12.8838 10H10.8838V14H12.8838V10ZM10.8838 10H8.88375V14H10.8838V10ZM8.88375 10H6.88375V14H8.88375V10ZM4.88375 12V14H8.88375V12H4.88375ZM4.88375 14V16H8.88375V14H4.88375ZM4.88375 16V18H8.88375V16H4.88375ZM6.88375 16H4.88375V20H6.88375V16ZM4.88375 16H2.88375V20H4.88375V16ZM2.88375 16H0.883751V20H2.88375V16ZM2.88375 18V16H-1.11625V18H2.88375ZM2.88375 16V14H-1.11625V16H2.88375ZM2.88375 14V12H-1.11625V14H2.88375ZM2.88375 12V10H-1.11625V12H2.88375ZM2.88375 10V8H-1.11625V10H2.88375ZM2.88375 8V6H-1.11625V8H2.88375ZM0.883751 8H2.88375V4H0.883751V8ZM4.88375 6V4H0.883751V6H4.88375ZM2.88375 6H4.88375V2H2.88375V6ZM6.88375 4V2H2.88375V4H6.88375ZM4.88375 4H6.88375V0H4.88375V4ZM8.88375 2V0H4.88375V2H8.88375ZM6.88375 2H8.88375V-2H6.88375V2ZM8.88375 2H10.8838V-2H8.88375V2ZM10.8838 2H12.8838V-2H10.8838V2ZM10.8838 0V2H14.8838V0H10.8838ZM12.8838 4H14.8838V0H12.8838V4ZM12.8838 2V4H16.8838V2H12.8838ZM14.8838 6H16.8838V2H14.8838V6ZM14.8838 4V6H18.8838V4H14.8838ZM14.8838 6V8H18.8838V6H14.8838ZM16.8838 10H18.8838V6H16.8838V10ZM16.8838 8V10H20.8838V8H16.8838ZM16.8838 10V12H20.8838V10H16.8838ZM16.8838 12V14H20.8838V12H16.8838ZM16.8838 14V16H20.8838V14H16.8838ZM16.8838 16V18H20.8838V16H16.8838ZM18.8838 16H16.8838V20H18.8838V16ZM10.8838 12H12.8838V8H10.8838V12ZM14.8838 10V8H10.8838V10H14.8838ZM12.8838 6H10.8838V10H12.8838V6ZM12.8838 8V6H8.88375V8H12.8838ZM12.8838 6V4H8.88375V6H12.8838ZM10.8838 2H8.88375V6H10.8838V2ZM6.88375 4V6H10.8838V4H6.88375ZM6.88375 6V8H10.8838V6H6.88375ZM8.88375 6H6.88375V10H8.88375V6ZM4.88375 8V10H8.88375V8H4.88375ZM6.88375 12H8.88375V8H6.88375V12ZM8.88375 12H10.8838V8H8.88375V12ZM27.1237 18H25.1237V20H27.1237V18ZM27.1237 16H29.1237V14H27.1237V16ZM25.1237 16H23.1237V18H25.1237V16ZM25.1237 8H27.1237V6H25.1237V8ZM23.1237 8H21.1237V10H23.1237V8ZM23.1237 0V-2H21.1237V0H23.1237ZM29.1237 0H31.1237V-2H29.1237V0ZM29.1237 8H27.1237V10H29.1237V8ZM31.1237 8H33.1237V6H31.1237V8ZM31.1237 16H29.1237V18H31.1237V16ZM33.1237 16V18H35.1237V16H33.1237ZM33.1237 8V6H31.1237V8H33.1237ZM35.1237 8V10H37.1237V8H35.1237ZM35.1237 0V-2H33.1237V0H35.1237ZM41.1237 0H43.1237V-2H41.1237V0ZM41.1237 8V10H43.1237V8H41.1237ZM39.1237 8V6H37.1237V8H39.1237ZM39.1237 16V18H41.1237V16H39.1237ZM37.1237 16V14H35.1237V16H37.1237ZM37.1237 18V20H39.1237V18H37.1237ZM35.1237 16H33.1237V20H35.1237V16ZM33.1237 16H31.1237V20H33.1237V16ZM31.1237 16H29.1237V20H31.1237V16ZM29.1237 16H27.1237V20H29.1237V16ZM29.1237 18V16H25.1237V18H29.1237ZM27.1237 14H25.1237V18H27.1237V14ZM27.1237 16V14H23.1237V16H27.1237ZM27.1237 14V12H23.1237V14H27.1237ZM27.1237 12V10H23.1237V12H27.1237ZM27.1237 10V8H23.1237V10H27.1237ZM25.1237 6H23.1237V10H25.1237V6ZM25.1237 8V6H21.1237V8H25.1237ZM25.1237 6V4H21.1237V6H25.1237ZM25.1237 4V2H21.1237V4H25.1237ZM25.1237 2V0H21.1237V2H25.1237ZM23.1237 2H25.1237V-2H23.1237V2ZM25.1237 2H27.1237V-2H25.1237V2ZM27.1237 2H29.1237V-2H27.1237V2ZM27.1237 0V2H31.1237V0H27.1237ZM27.1237 2V4H31.1237V2H27.1237ZM27.1237 4V6H31.1237V4H27.1237ZM27.1237 6V8H31.1237V6H27.1237ZM29.1237 10H31.1237V6H29.1237V10ZM29.1237 8V10H33.1237V8H29.1237ZM29.1237 10V12H33.1237V10H29.1237ZM29.1237 12V14H33.1237V12H29.1237ZM29.1237 14V16H33.1237V14H29.1237ZM31.1237 18H33.1237V14H31.1237V18ZM35.1237 16V14H31.1237V16H35.1237ZM35.1237 14V12H31.1237V14H35.1237ZM35.1237 12V10H31.1237V12H35.1237ZM35.1237 10V8H31.1237V10H35.1237ZM33.1237 10H35.1237V6H33.1237V10ZM37.1237 8V6H33.1237V8H37.1237ZM37.1237 6V4H33.1237V6H37.1237ZM37.1237 4V2H33.1237V4H37.1237ZM37.1237 2V0H33.1237V2H37.1237ZM35.1237 2H37.1237V-2H35.1237V2ZM37.1237 2H39.1237V-2H37.1237V2ZM39.1237 2H41.1237V-2H39.1237V2ZM39.1237 0V2H43.1237V0H39.1237ZM39.1237 2V4H43.1237V2H39.1237ZM39.1237 4V6H43.1237V4H39.1237ZM39.1237 6V8H43.1237V6H39.1237ZM41.1237 6H39.1237V10H41.1237V6ZM37.1237 8V10H41.1237V8H37.1237ZM37.1237 10V12H41.1237V10H37.1237ZM37.1237 12V14H41.1237V12H37.1237ZM37.1237 14V16H41.1237V14H37.1237ZM39.1237 14H37.1237V18H39.1237V14ZM35.1237 16V18H39.1237V16H35.1237ZM37.1237 16H35.1237V20H37.1237V16ZM57.3638 18H55.3638V20H57.3638V18ZM57.3638 12H59.3638V10H57.3638V12ZM51.3638 12V10H49.3638V12H51.3638ZM51.3638 18V20H53.3638V18H51.3638ZM45.3638 18H43.3638V20H45.3638V18ZM45.3638 6V4H43.3638V6H45.3638ZM47.3638 6V8H49.3638V6H47.3638ZM47.3638 4V2H45.3638V4H47.3638ZM49.3638 4V6H51.3638V4H49.3638ZM49.3638 2V0H47.3638V2H49.3638ZM51.3638 2V4H53.3638V2H51.3638ZM51.3638 0V-2H49.3638V0H51.3638ZM57.3638 0H59.3638V-2H57.3638V0ZM57.3638 2H55.3638V4H57.3638V2ZM59.3638 2H61.3638V0H59.3638V2ZM59.3638 4H57.3638V6H59.3638V4ZM61.3638 4H63.3638V2H61.3638V4ZM61.3638 8H59.3638V10H61.3638V8ZM63.3638 8H65.3638V6H63.3638V8ZM63.3638 18V20H65.3638V18H63.3638ZM57.3638 10V12H59.3638V10H57.3638ZM57.3638 8H59.3638V6H57.3638V8ZM55.3638 8H53.3638V10H55.3638V8ZM55.3638 4H57.3638V2H55.3638V4ZM53.3638 4V2H51.3638V4H53.3638ZM53.3638 8V10H55.3638V8H53.3638ZM51.3638 8V6H49.3638V8H51.3638ZM51.3638 10H49.3638V12H51.3638V10ZM61.3638 16H59.3638V20H61.3638V16ZM59.3638 16H57.3638V20H59.3638V16ZM59.3638 18V16H55.3638V18H59.3638ZM59.3638 16V14H55.3638V16H59.3638ZM59.3638 14V12H55.3638V14H59.3638ZM57.3638 10H55.3638V14H57.3638V10ZM55.3638 10H53.3638V14H55.3638V10ZM53.3638 10H51.3638V14H53.3638V10ZM49.3638 12V14H53.3638V12H49.3638ZM49.3638 14V16H53.3638V14H49.3638ZM49.3638 16V18H53.3638V16H49.3638ZM51.3638 16H49.3638V20H51.3638V16ZM49.3638 16H47.3638V20H49.3638V16ZM47.3638 16H45.3638V20H47.3638V16ZM47.3638 18V16H43.3638V18H47.3638ZM47.3638 16V14H43.3638V16H47.3638ZM47.3638 14V12H43.3638V14H47.3638ZM47.3638 12V10H43.3638V12H47.3638ZM47.3638 10V8H43.3638V10H47.3638ZM47.3638 8V6H43.3638V8H47.3638ZM45.3638 8H47.3638V4H45.3638V8ZM49.3638 6V4H45.3638V6H49.3638ZM47.3638 6H49.3638V2H47.3638V6ZM51.3638 4V2H47.3638V4H51.3638ZM49.3638 4H51.3638V0H49.3638V4ZM53.3638 2V0H49.3638V2H53.3638ZM51.3638 2H53.3638V-2H51.3638V2ZM53.3638 2H55.3638V-2H53.3638V2ZM55.3638 2H57.3638V-2H55.3638V2ZM55.3638 0V2H59.3638V0H55.3638ZM57.3638 4H59.3638V0H57.3638V4ZM57.3638 2V4H61.3638V2H57.3638ZM59.3638 6H61.3638V2H59.3638V6ZM59.3638 4V6H63.3638V4H59.3638ZM59.3638 6V8H63.3638V6H59.3638ZM61.3638 10H63.3638V6H61.3638V10ZM61.3638 8V10H65.3638V8H61.3638ZM61.3638 10V12H65.3638V10H61.3638ZM61.3638 12V14H65.3638V12H61.3638ZM61.3638 14V16H65.3638V14H61.3638ZM61.3638 16V18H65.3638V16H61.3638ZM63.3638 16H61.3638V20H63.3638V16ZM55.3638 12H57.3638V8H55.3638V12ZM59.3638 10V8H55.3638V10H59.3638ZM57.3638 6H55.3638V10H57.3638V6ZM57.3638 8V6H53.3638V8H57.3638ZM57.3638 6V4H53.3638V6H57.3638ZM55.3638 2H53.3638V6H55.3638V2ZM51.3638 4V6H55.3638V4H51.3638ZM51.3638 6V8H55.3638V6H51.3638ZM53.3638 6H51.3638V10H53.3638V6ZM49.3638 8V10H53.3638V8H49.3638ZM51.3638 12H53.3638V8H51.3638V12ZM53.3638 12H55.3638V8H53.3638V12ZM68.8838 10.672H66.8838V12.672H68.8838V10.672ZM68.8838 8.176V6.176H66.8838V8.176H68.8838ZM76.6278 8.176H78.6278V6.176H76.6278V8.176ZM76.6278 10.672V12.672H78.6278V10.672H76.6278ZM70.8838 10.672V8.176H66.8838V10.672H70.8838ZM68.8838 10.176H76.6278V6.176H68.8838V10.176ZM74.6278 8.176V10.672H78.6278V8.176H74.6278ZM76.6278 8.672H68.8838V12.672H76.6278V8.672ZM80.1562 18H78.1562V20H80.1562V18ZM80.1562 0V-2H78.1562V0H80.1562ZM94.1562 0H96.1562V-2H94.1562V0ZM94.1562 2H92.1562V4H94.1562V2ZM96.1562 2H98.1562V0H96.1562V2ZM96.1562 8V10H98.1562V8H96.1562ZM92.1562 8V6H90.1562V8H92.1562ZM92.1562 10H90.1562V12H92.1562V10ZM96.1562 10H98.1562V8H96.1562V10ZM96.1562 16V18H98.1562V16H96.1562ZM94.1562 16V14H92.1562V16H94.1562ZM94.1562 18V20H96.1562V18H94.1562ZM90.1562 16V18H92.1562V16H90.1562ZM90.1562 10H92.1562V8H90.1562V10ZM86.1562 10V8H84.1562V10H86.1562ZM86.1562 16H84.1562V18H86.1562V16ZM90.1562 8V10H92.1562V8H90.1562ZM90.1562 2H92.1562V0H90.1562V2ZM86.1562 2V0H84.1562V2H86.1562ZM86.1562 8H84.1562V10H86.1562V8ZM92.1562 16H90.1562V20H92.1562V16ZM90.1562 16H88.1562V20H90.1562V16ZM88.1562 16H86.1562V20H88.1562V16ZM86.1562 16H84.1562V20H86.1562V16ZM84.1562 16H82.1562V20H84.1562V16ZM82.1562 16H80.1562V20H82.1562V16ZM82.1562 18V16H78.1562V18H82.1562ZM82.1562 16V14H78.1562V16H82.1562ZM82.1562 14V12H78.1562V14H82.1562ZM82.1562 12V10H78.1562V12H82.1562ZM82.1562 10V8H78.1562V10H82.1562ZM82.1562 8V6H78.1562V8H82.1562ZM82.1562 6V4H78.1562V6H82.1562ZM82.1562 4V2H78.1562V4H82.1562ZM82.1562 2V0H78.1562V2H82.1562ZM80.1562 2H82.1562V-2H80.1562V2ZM82.1562 2H84.1562V-2H82.1562V2ZM84.1562 2H86.1562V-2H84.1562V2ZM86.1562 2H88.1562V-2H86.1562V2ZM88.1562 2H90.1562V-2H88.1562V2ZM90.1562 2H92.1562V-2H90.1562V2ZM92.1562 2H94.1562V-2H92.1562V2ZM92.1562 0V2H96.1562V0H92.1562ZM94.1562 4H96.1562V0H94.1562V4ZM94.1562 2V4H98.1562V2H94.1562ZM94.1562 4V6H98.1562V4H94.1562ZM94.1562 6V8H98.1562V6H94.1562ZM96.1562 6H94.1562V10H96.1562V6ZM94.1562 6H92.1562V10H94.1562V6ZM90.1562 8V10H94.1562V8H90.1562ZM92.1562 12H94.1562V8H92.1562V12ZM94.1562 12H96.1562V8H94.1562V12ZM94.1562 10V12H98.1562V10H94.1562ZM94.1562 12V14H98.1562V12H94.1562ZM94.1562 14V16H98.1562V14H94.1562ZM96.1562 14H94.1562V18H96.1562V14ZM92.1562 16V18H96.1562V16H92.1562ZM94.1562 16H92.1562V20H94.1562V16ZM88.1562 18H90.1562V14H88.1562V18ZM92.1562 16V14H88.1562V16H92.1562ZM92.1562 14V12H88.1562V14H92.1562ZM92.1562 12V10H88.1562V12H92.1562ZM90.1562 8H88.1562V12H90.1562V8ZM88.1562 8H86.1562V12H88.1562V8ZM84.1562 10V12H88.1562V10H84.1562ZM84.1562 12V14H88.1562V12H84.1562ZM84.1562 14V16H88.1562V14H84.1562ZM86.1562 18H88.1562V14H86.1562V18ZM88.1562 10H90.1562V6H88.1562V10ZM92.1562 8V6H88.1562V8H92.1562ZM92.1562 6V4H88.1562V6H92.1562ZM92.1562 4V2H88.1562V4H92.1562ZM90.1562 0H88.1562V4H90.1562V0ZM88.1562 0H86.1562V4H88.1562V0ZM84.1562 2V4H88.1562V2H84.1562ZM84.1562 4V6H88.1562V4H84.1562ZM84.1562 6V8H88.1562V6H84.1562ZM86.1562 10H88.1562V6H86.1562V10ZM100.396 18H98.3962V20H100.396V18ZM100.396 0V-2H98.3962V0H100.396ZM106.396 0H108.396V-2H106.396V0ZM106.396 18V20H108.396V18H106.396ZM104.396 16H102.396V20H104.396V16ZM102.396 16H100.396V20H102.396V16ZM102.396 18V16H98.3962V18H102.396ZM102.396 16V14H98.3962V16H102.396ZM102.396 14V12H98.3962V14H102.396ZM102.396 12V10H98.3962V12H102.396ZM102.396 10V8H98.3962V10H102.396ZM102.396 8V6H98.3962V8H102.396ZM102.396 6V4H98.3962V6H102.396ZM102.396 4V2H98.3962V4H102.396ZM102.396 2V0H98.3962V2H102.396ZM100.396 2H102.396V-2H100.396V2ZM102.396 2H104.396V-2H102.396V2ZM104.396 2H106.396V-2H104.396V2ZM104.396 0V2H108.396V0H104.396ZM104.396 2V4H108.396V2H104.396ZM104.396 4V6H108.396V4H104.396ZM104.396 6V8H108.396V6H104.396ZM104.396 8V10H108.396V8H104.396ZM104.396 10V12H108.396V10H104.396ZM104.396 12V14H108.396V12H104.396ZM104.396 14V16H108.396V14H104.396ZM104.396 16V18H108.396V16H104.396ZM106.396 16H104.396V20H106.396V16ZM120.636 18H118.636V20H120.636V18ZM120.636 10V8H118.636V10H120.636ZM126.636 10H128.636V8H126.636V10ZM126.636 18V20H128.636V18H126.636ZM110.636 18H108.636V20H110.636V18ZM110.636 0V-2H108.636V0H110.636ZM124.636 0H126.636V-2H124.636V0ZM124.636 2H122.636V4H124.636V2ZM126.636 2H128.636V0H126.636V2ZM126.636 8V10H128.636V8H126.636ZM120.636 8H118.636V10H120.636V8ZM120.636 2H122.636V0H120.636V2ZM116.636 2V0H114.636V2H116.636ZM116.636 8H114.636V10H116.636V8ZM120.636 8H122.636V6H120.636V8ZM120.636 10V12H122.636V10H120.636ZM116.636 10V8H114.636V10H116.636ZM116.636 18V20H118.636V18H116.636ZM124.636 16H122.636V20H124.636V16ZM122.636 16H120.636V20H122.636V16ZM122.636 18V16H118.636V18H122.636ZM122.636 16V14H118.636V16H122.636ZM122.636 14V12H118.636V14H122.636ZM122.636 12V10H118.636V12H122.636ZM120.636 12H122.636V8H120.636V12ZM122.636 12H124.636V8H122.636V12ZM124.636 12H126.636V8H124.636V12ZM124.636 10V12H128.636V10H124.636ZM124.636 12V14H128.636V12H124.636ZM124.636 14V16H128.636V14H124.636ZM124.636 16V18H128.636V16H124.636ZM126.636 16H124.636V20H126.636V16ZM114.636 16H112.636V20H114.636V16ZM112.636 16H110.636V20H112.636V16ZM112.636 18V16H108.636V18H112.636ZM112.636 16V14H108.636V16H112.636ZM112.636 14V12H108.636V14H112.636ZM112.636 12V10H108.636V12H112.636ZM112.636 10V8H108.636V10H112.636ZM112.636 8V6H108.636V8H112.636ZM112.636 6V4H108.636V6H112.636ZM112.636 4V2H108.636V4H112.636ZM112.636 2V0H108.636V2H112.636ZM110.636 2H112.636V-2H110.636V2ZM112.636 2H114.636V-2H112.636V2ZM114.636 2H116.636V-2H114.636V2ZM116.636 2H118.636V-2H116.636V2ZM118.636 2H120.636V-2H118.636V2ZM120.636 2H122.636V-2H120.636V2ZM122.636 2H124.636V-2H122.636V2ZM122.636 0V2H126.636V0H122.636ZM124.636 4H126.636V0H124.636V4ZM124.636 2V4H128.636V2H124.636ZM124.636 4V6H128.636V4H124.636ZM124.636 6V8H128.636V6H124.636ZM126.636 6H124.636V10H126.636V6ZM124.636 6H122.636V10H124.636V6ZM122.636 6H120.636V10H122.636V6ZM122.636 8V6H118.636V8H122.636ZM122.636 6V4H118.636V6H122.636ZM122.636 4V2H118.636V4H122.636ZM120.636 0H118.636V4H120.636V0ZM118.636 0H116.636V4H118.636V0ZM114.636 2V4H118.636V2H114.636ZM114.636 4V6H118.636V4H114.636ZM114.636 6V8H118.636V6H114.636ZM116.636 10H118.636V6H116.636V10ZM118.636 10H120.636V6H118.636V10ZM118.636 8V10H122.636V8H118.636ZM120.636 8H118.636V12H120.636V8ZM118.636 8H116.636V12H118.636V8ZM114.636 10V12H118.636V10H114.636ZM114.636 12V14H118.636V12H114.636ZM114.636 14V16H118.636V14H114.636ZM114.636 16V18H118.636V16H114.636ZM116.636 16H114.636V20H116.636V16ZM130.876 18H128.876V20H130.876V18ZM130.876 0V-2H128.876V0H130.876ZM144.876 0H146.876V-2H144.876V0ZM144.876 2H142.876V4H144.876V2ZM146.876 2H148.876V0H146.876V2ZM146.876 16V18H148.876V16H146.876ZM144.876 16V14H142.876V16H144.876ZM144.876 18V20H146.876V18H144.876ZM140.876 16V18H142.876V16H140.876ZM140.876 2H142.876V0H140.876V2ZM136.876 2V0H134.876V2H136.876ZM136.876 16H134.876V18H136.876V16ZM142.876 16H140.876V20H142.876V16ZM140.876 16H138.876V20H140.876V16ZM138.876 16H136.876V20H138.876V16ZM136.876 16H134.876V20H136.876V16ZM134.876 16H132.876V20H134.876V16ZM132.876 16H130.876V20H132.876V16ZM132.876 18V16H128.876V18H132.876ZM132.876 16V14H128.876V16H132.876ZM132.876 14V12H128.876V14H132.876ZM132.876 12V10H128.876V12H132.876ZM132.876 10V8H128.876V10H132.876ZM132.876 8V6H128.876V8H132.876ZM132.876 6V4H128.876V6H132.876ZM132.876 4V2H128.876V4H132.876ZM132.876 2V0H128.876V2H132.876ZM130.876 2H132.876V-2H130.876V2ZM132.876 2H134.876V-2H132.876V2ZM134.876 2H136.876V-2H134.876V2ZM136.876 2H138.876V-2H136.876V2ZM138.876 2H140.876V-2H138.876V2ZM140.876 2H142.876V-2H140.876V2ZM142.876 2H144.876V-2H142.876V2ZM142.876 0V2H146.876V0H142.876ZM144.876 4H146.876V0H144.876V4ZM144.876 2V4H148.876V2H144.876ZM144.876 4V6H148.876V4H144.876ZM144.876 6V8H148.876V6H144.876ZM144.876 8V10H148.876V8H144.876ZM144.876 10V12H148.876V10H144.876ZM144.876 12V14H148.876V12H144.876ZM144.876 14V16H148.876V14H144.876ZM146.876 14H144.876V18H146.876V14ZM142.876 16V18H146.876V16H142.876ZM144.876 16H142.876V20H144.876V16ZM138.876 18H140.876V14H138.876V18ZM142.876 16V14H138.876V16H142.876ZM142.876 14V12H138.876V14H142.876ZM142.876 12V10H138.876V12H142.876ZM142.876 10V8H138.876V10H142.876ZM142.876 8V6H138.876V8H142.876ZM142.876 6V4H138.876V6H142.876ZM142.876 4V2H138.876V4H142.876ZM140.876 0H138.876V4H140.876V0ZM138.876 0H136.876V4H138.876V0ZM134.876 2V4H138.876V2H134.876ZM134.876 4V6H138.876V4H134.876ZM134.876 6V8H138.876V6H134.876ZM134.876 8V10H138.876V8H134.876ZM134.876 10V12H138.876V10H134.876ZM134.876 12V14H138.876V12H134.876ZM134.876 14V16H138.876V14H134.876ZM136.876 18H138.876V14H136.876V18ZM153.116 18H151.116V20H153.116V18ZM153.116 16H155.116V14H153.116V16ZM151.116 16H149.116V18H151.116V16ZM151.116 14V12H149.116V14H151.116ZM157.116 14H159.116V12H157.116V14ZM157.116 16H155.116V18H157.116V16ZM163.116 16V18H165.116V16H163.116ZM163.116 12H165.116V10H163.116V12ZM161.116 12H159.116V14H161.116V12ZM161.116 10H163.116V8H161.116V10ZM153.116 10H151.116V12H153.116V10ZM153.116 8H155.116V6H153.116V8ZM151.116 8H149.116V10H151.116V8ZM151.116 2V0H149.116V2H151.116ZM153.116 2V4H155.116V2H153.116ZM153.116 0V-2H151.116V0H153.116ZM167.116 0H169.116V-2H167.116V0ZM167.116 2H165.116V4H167.116V2ZM169.116 2H171.116V0H169.116V2ZM169.116 4V6H171.116V4H169.116ZM163.116 4H161.116V6H163.116V4ZM163.116 2H165.116V0H163.116V2ZM157.116 2V0H155.116V2H157.116ZM157.116 8H155.116V10H157.116V8ZM165.116 8H167.116V6H165.116V8ZM165.116 10H163.116V12H165.116V10ZM167.116 10H169.116V8H167.116V10ZM167.116 12H165.116V14H167.116V12ZM169.116 12H171.116V10H169.116V12ZM169.116 16V18H171.116V16H169.116ZM167.116 16V14H165.116V16H167.116ZM167.116 18V20H169.116V18H167.116ZM165.116 16H163.116V20H165.116V16ZM163.116 16H161.116V20H163.116V16ZM161.116 16H159.116V20H161.116V16ZM159.116 16H157.116V20H159.116V16ZM157.116 16H155.116V20H157.116V16ZM155.116 16H153.116V20H155.116V16ZM155.116 18V16H151.116V18H155.116ZM153.116 14H151.116V18H153.116V14ZM153.116 16V14H149.116V16H153.116ZM151.116 16H153.116V12H151.116V16ZM153.116 16H155.116V12H153.116V16ZM155.116 16H157.116V12H155.116V16ZM155.116 14V16H159.116V14H155.116ZM157.116 18H159.116V14H157.116V18ZM159.116 18H161.116V14H159.116V18ZM161.116 18H163.116V14H161.116V18ZM165.116 16V14H161.116V16H165.116ZM165.116 14V12H161.116V14H165.116ZM163.116 10H161.116V14H163.116V10ZM163.116 12V10H159.116V12H163.116ZM161.116 8H159.116V12H161.116V8ZM159.116 8H157.116V12H159.116V8ZM157.116 8H155.116V12H157.116V8ZM155.116 8H153.116V12H155.116V8ZM155.116 10V8H151.116V10H155.116ZM153.116 6H151.116V10H153.116V6ZM153.116 8V6H149.116V8H153.116ZM153.116 6V4H149.116V6H153.116ZM153.116 4V2H149.116V4H153.116ZM151.116 4H153.116V0H151.116V4ZM155.116 2V0H151.116V2H155.116ZM153.116 2H155.116V-2H153.116V2ZM155.116 2H157.116V-2H155.116V2ZM157.116 2H159.116V-2H157.116V2ZM159.116 2H161.116V-2H159.116V2ZM161.116 2H163.116V-2H161.116V2ZM163.116 2H165.116V-2H163.116V2ZM165.116 2H167.116V-2H165.116V2ZM165.116 0V2H169.116V0H165.116ZM167.116 4H169.116V0H167.116V4ZM167.116 2V4H171.116V2H167.116ZM169.116 2H167.116V6H169.116V2ZM167.116 2H165.116V6H167.116V2ZM165.116 2H163.116V6H165.116V2ZM165.116 4V2H161.116V4H165.116ZM163.116 0H161.116V4H163.116V0ZM161.116 0H159.116V4H161.116V0ZM159.116 0H157.116V4H159.116V0ZM155.116 2V4H159.116V2H155.116ZM155.116 4V6H159.116V4H155.116ZM155.116 6V8H159.116V6H155.116ZM157.116 10H159.116V6H157.116V10ZM159.116 10H161.116V6H159.116V10ZM161.116 10H163.116V6H161.116V10ZM163.116 10H165.116V6H163.116V10ZM163.116 8V10H167.116V8H163.116ZM165.116 12H167.116V8H165.116V12ZM165.116 10V12H169.116V10H165.116ZM167.116 14H169.116V10H167.116V14ZM167.116 12V14H171.116V12H167.116ZM167.116 14V16H171.116V14H167.116ZM169.116 14H167.116V18H169.116V14ZM165.116 16V18H169.116V16H165.116ZM167.116 16H165.116V20H167.116V16Z" fill="#771717" mask="url(#path-1-outside-1_97_3)"/>
</svg>
