<svg width="166" height="18" viewBox="0 0 166 18" fill="none" xmlns="http://www.w3.org/2000/svg">
<mask id="path-1-outside-1_109_14" maskUnits="userSpaceOnUse" x="-2" y="-2" width="170" height="22" fill="black">
<rect fill="white" x="-2" y="-2" width="170" height="22"/>
<path d="M14 18H12H10H8H6H4H2V16H0V14V12V10V8V6V4V2H2V0H4H6H8H10H12H14H16V2H18V4H16H14H12V2H10H8H6V4V6V8V10V12V14V16H8H10H12V14V12V10H10H8V8H10H12H14H16H18V10V12V14V16H16V18H14ZM36 18H34H32V16V14V12H30H28H26V14V16V18H24H22H20V16V14V12V10V8V6H22V4H24V2H26V0H28H30H32V2H34V4H36V6V8H38V10V12V14V16V18H36ZM30 10H32V8H30V6V4H28V6V8H26V10H28H30ZM60 18H58H56V16V14V12V10V8V6H54V8V10H52H50H48V8V6H46V8V10V12V14V16V18H44H42H40V16V14V12V10V8V6V4V2V0H42H44H46V2H48V4H50V6H52V4H54V2H56V0H58H60H62V2V4V6V8V10V12V14V16V18H60ZM78 16H80V18H78H76H74H72H70H68H66H64V16V14V12V10V8V6V4V2V0H66H68H70H72H74H76H78H80V2H78H76H74H72H70V4V6V8H72H74H76H78H80V10H78H76H74H72H70V12V14V16H72H74H76H78ZM106 18H104H102H100H98H96H94V16H92V14V12V10V8V6V4V2H94V0H96H98H100H102H104H106H108V2H110V4V6V8V10V12V14V16H108V18H106ZM102 16H104V14V12V10V8V6V4V2H102H100H98V4V6V8V10V12V14V16H100H102ZM124 18H122H120H118H116V16H114V14V12V10V8H112V6V4V2V0H114H116H118V2V4V6V8H120V10V12V14V16H122V14V12V10V8H124V6V4V2V0H126H128H130V2V4V6V8H128V10V12V14V16H126V18H124ZM146 16H148V18H146H144H142H140H138H136H134H132V16V14V12V10V8V6V4V2V0H134H136H138H140H142H144H146H148V2H146H144H142H140H138V4V6V8H140H142H144H146H148V10H146H144H142H140H138V12V14V16H140H142H144H146ZM164 18H162H160V16V14V12V10H162H164H166V12V14V16V18H164ZM154 18H152H150V16V14V12V10V8V6V4V2V0H152H154H156H158H160H162H164V2H166V4V6V8H164H162H160V6V4V2H158H156V4V6V8H158H160V10H158H156V12V14V16V18H154Z"/>
</mask>
<path d="M14 18H12H10H8H6H4H2V16H0V14V12V10V8V6V4V2H2V0H4H6H8H10H12H14H16V2H18V4H16H14H12V2H10H8H6V4V6V8V10V12V14V16H8H10H12V14V12V10H10H8V8H10H12H14H16H18V10V12V14V16H16V18H14ZM36 18H34H32V16V14V12H30H28H26V14V16V18H24H22H20V16V14V12V10V8V6H22V4H24V2H26V0H28H30H32V2H34V4H36V6V8H38V10V12V14V16V18H36ZM30 10H32V8H30V6V4H28V6V8H26V10H28H30ZM60 18H58H56V16V14V12V10V8V6H54V8V10H52H50H48V8V6H46V8V10V12V14V16V18H44H42H40V16V14V12V10V8V6V4V2V0H42H44H46V2H48V4H50V6H52V4H54V2H56V0H58H60H62V2V4V6V8V10V12V14V16V18H60ZM78 16H80V18H78H76H74H72H70H68H66H64V16V14V12V10V8V6V4V2V0H66H68H70H72H74H76H78H80V2H78H76H74H72H70V4V6V8H72H74H76H78H80V10H78H76H74H72H70V12V14V16H72H74H76H78ZM106 18H104H102H100H98H96H94V16H92V14V12V10V8V6V4V2H94V0H96H98H100H102H104H106H108V2H110V4V6V8V10V12V14V16H108V18H106ZM102 16H104V14V12V10V8V6V4V2H102H100H98V4V6V8V10V12V14V16H100H102ZM124 18H122H120H118H116V16H114V14V12V10V8H112V6V4V2V0H114H116H118V2V4V6V8H120V10V12V14V16H122V14V12V10V8H124V6V4V2V0H126H128H130V2V4V6V8H128V10V12V14V16H126V18H124ZM146 16H148V18H146H144H142H140H138H136H134H132V16V14V12V10V8V6V4V2V0H134H136H138H140H142H144H146H148V2H146H144H142H140H138V4V6V8H140H142H144H146H148V10H146H144H142H140H138V12V14V16H140H142H144H146ZM164 18H162H160V16V14V12V10H162H164H166V12V14V16V18H164ZM154 18H152H150V16V14V12V10V8V6V4V2V0H152H154H156H158H160H162H164V2H166V4V6V8H164H162H160V6V4V2H158H156V4V6V8H158H160V10H158H156V12V14V16V18H154Z" fill="#FCB800"/>
<path d="M2 18H0V20H2V18ZM2 16H4V14H2V16ZM0 16H-2V18H0V16ZM0 2V0H-2V2H0ZM2 2V4H4V2H2ZM2 0V-2H0V0H2ZM16 0H18V-2H16V0ZM16 2H14V4H16V2ZM18 2H20V0H18V2ZM18 4V6H20V4H18ZM12 4H10V6H12V4ZM12 2H14V0H12V2ZM6 2V0H4V2H6ZM6 16H4V18H6V16ZM12 16V18H14V16H12ZM12 10H14V8H12V10ZM8 10H6V12H8V10ZM8 8V6H6V8H8ZM18 8H20V6H18V8ZM18 16V18H20V16H18ZM16 16V14H14V16H16ZM16 18V20H18V18H16ZM14 16H12V20H14V16ZM12 16H10V20H12V16ZM10 16H8V20H10V16ZM8 16H6V20H8V16ZM6 16H4V20H6V16ZM4 16H2V20H4V16ZM4 18V16H0V18H4ZM2 14H0V18H2V14ZM2 16V14H-2V16H2ZM2 14V12H-2V14H2ZM2 12V10H-2V12H2ZM2 10V8H-2V10H2ZM2 8V6H-2V8H2ZM2 6V4H-2V6H2ZM2 4V2H-2V4H2ZM0 4H2V0H0V4ZM4 2V0H0V2H4ZM2 2H4V-2H2V2ZM4 2H6V-2H4V2ZM6 2H8V-2H6V2ZM8 2H10V-2H8V2ZM10 2H12V-2H10V2ZM12 2H14V-2H12V2ZM14 2H16V-2H14V2ZM14 0V2H18V0H14ZM16 4H18V0H16V4ZM16 2V4H20V2H16ZM18 2H16V6H18V2ZM16 2H14V6H16V2ZM14 2H12V6H14V2ZM14 4V2H10V4H14ZM12 0H10V4H12V0ZM10 0H8V4H10V0ZM8 0H6V4H8V0ZM4 2V4H8V2H4ZM4 4V6H8V4H4ZM4 6V8H8V6H4ZM4 8V10H8V8H4ZM4 10V12H8V10H4ZM4 12V14H8V12H4ZM4 14V16H8V14H4ZM6 18H8V14H6V18ZM8 18H10V14H8V18ZM10 18H12V14H10V18ZM14 16V14H10V16H14ZM14 14V12H10V14H14ZM14 12V10H10V12H14ZM12 8H10V12H12V8ZM10 8H8V12H10V8ZM10 10V8H6V10H10ZM8 10H10V6H8V10ZM10 10H12V6H10V10ZM12 10H14V6H12V10ZM14 10H16V6H14V10ZM16 10H18V6H16V10ZM16 8V10H20V8H16ZM16 10V12H20V10H16ZM16 12V14H20V12H16ZM16 14V16H20V14H16ZM18 14H16V18H18V14ZM14 16V18H18V16H14ZM16 16H14V20H16V16ZM32 18H30V20H32V18ZM32 12H34V10H32V12ZM26 12V10H24V12H26ZM26 18V20H28V18H26ZM20 18H18V20H20V18ZM20 6V4H18V6H20ZM22 6V8H24V6H22ZM22 4V2H20V4H22ZM24 4V6H26V4H24ZM24 2V0H22V2H24ZM26 2V4H28V2H26ZM26 0V-2H24V0H26ZM32 0H34V-2H32V0ZM32 2H30V4H32V2ZM34 2H36V0H34V2ZM34 4H32V6H34V4ZM36 4H38V2H36V4ZM36 8H34V10H36V8ZM38 8H40V6H38V8ZM38 18V20H40V18H38ZM32 10V12H34V10H32ZM32 8H34V6H32V8ZM30 8H28V10H30V8ZM30 4H32V2H30V4ZM28 4V2H26V4H28ZM28 8V10H30V8H28ZM26 8V6H24V8H26ZM26 10H24V12H26V10ZM36 16H34V20H36V16ZM34 16H32V20H34V16ZM34 18V16H30V18H34ZM34 16V14H30V16H34ZM34 14V12H30V14H34ZM32 10H30V14H32V10ZM30 10H28V14H30V10ZM28 10H26V14H28V10ZM24 12V14H28V12H24ZM24 14V16H28V14H24ZM24 16V18H28V16H24ZM26 16H24V20H26V16ZM24 16H22V20H24V16ZM22 16H20V20H22V16ZM22 18V16H18V18H22ZM22 16V14H18V16H22ZM22 14V12H18V14H22ZM22 12V10H18V12H22ZM22 10V8H18V10H22ZM22 8V6H18V8H22ZM20 8H22V4H20V8ZM24 6V4H20V6H24ZM22 6H24V2H22V6ZM26 4V2H22V4H26ZM24 4H26V0H24V4ZM28 2V0H24V2H28ZM26 2H28V-2H26V2ZM28 2H30V-2H28V2ZM30 2H32V-2H30V2ZM30 0V2H34V0H30ZM32 4H34V0H32V4ZM32 2V4H36V2H32ZM34 6H36V2H34V6ZM34 4V6H38V4H34ZM34 6V8H38V6H34ZM36 10H38V6H36V10ZM36 8V10H40V8H36ZM36 10V12H40V10H36ZM36 12V14H40V12H36ZM36 14V16H40V14H36ZM36 16V18H40V16H36ZM38 16H36V20H38V16ZM30 12H32V8H30V12ZM34 10V8H30V10H34ZM32 6H30V10H32V6ZM32 8V6H28V8H32ZM32 6V4H28V6H32ZM30 2H28V6H30V2ZM26 4V6H30V4H26ZM26 6V8H30V6H26ZM28 6H26V10H28V6ZM24 8V10H28V8H24ZM26 12H28V8H26V12ZM28 12H30V8H28V12ZM56 18H54V20H56V18ZM56 6H58V4H56V6ZM54 6V4H52V6H54ZM54 10V12H56V10H54ZM48 10H46V12H48V10ZM48 6H50V4H48V6ZM46 6V4H44V6H46ZM46 18V20H48V18H46ZM40 18H38V20H40V18ZM40 0V-2H38V0H40ZM46 0H48V-2H46V0ZM46 2H44V4H46V2ZM48 2H50V0H48V2ZM48 4H46V6H48V4ZM50 4H52V2H50V4ZM50 6H48V8H50V6ZM52 6V8H54V6H52ZM52 4V2H50V4H52ZM54 4V6H56V4H54ZM54 2V0H52V2H54ZM56 2V4H58V2H56ZM56 0V-2H54V0H56ZM62 0H64V-2H62V0ZM62 18V20H64V18H62ZM60 16H58V20H60V16ZM58 16H56V20H58V16ZM58 18V16H54V18H58ZM58 16V14H54V16H58ZM58 14V12H54V14H58ZM58 12V10H54V12H58ZM58 10V8H54V10H58ZM58 8V6H54V8H58ZM56 4H54V8H56V4ZM52 6V8H56V6H52ZM52 8V10H56V8H52ZM54 8H52V12H54V8ZM52 8H50V12H52V8ZM50 8H48V12H50V8ZM50 10V8H46V10H50ZM50 8V6H46V8H50ZM48 4H46V8H48V4ZM44 6V8H48V6H44ZM44 8V10H48V8H44ZM44 10V12H48V10H44ZM44 12V14H48V12H44ZM44 14V16H48V14H44ZM44 16V18H48V16H44ZM46 16H44V20H46V16ZM44 16H42V20H44V16ZM42 16H40V20H42V16ZM42 18V16H38V18H42ZM42 16V14H38V16H42ZM42 14V12H38V14H42ZM42 12V10H38V12H42ZM42 10V8H38V10H42ZM42 8V6H38V8H42ZM42 6V4H38V6H42ZM42 4V2H38V4H42ZM42 2V0H38V2H42ZM40 2H42V-2H40V2ZM42 2H44V-2H42V2ZM44 2H46V-2H44V2ZM44 0V2H48V0H44ZM46 4H48V0H46V4ZM46 2V4H50V2H46ZM48 6H50V2H48V6ZM48 4V6H52V4H48ZM50 8H52V4H50V8ZM54 6V4H50V6H54ZM52 6H54V2H52V6ZM56 4V2H52V4H56ZM54 4H56V0H54V4ZM58 2V0H54V2H58ZM56 2H58V-2H56V2ZM58 2H60V-2H58V2ZM60 2H62V-2H60V2ZM60 0V2H64V0H60ZM60 2V4H64V2H60ZM60 4V6H64V4H60ZM60 6V8H64V6H60ZM60 8V10H64V8H60ZM60 10V12H64V10H60ZM60 12V14H64V12H60ZM60 14V16H64V14H60ZM60 16V18H64V16H60ZM62 16H60V20H62V16ZM80 16H82V14H80V16ZM80 18V20H82V18H80ZM64 18H62V20H64V18ZM64 0V-2H62V0H64ZM80 0H82V-2H80V0ZM80 2V4H82V2H80ZM70 2V0H68V2H70ZM70 8H68V10H70V8ZM80 8H82V6H80V8ZM80 10V12H82V10H80ZM70 10V8H68V10H70ZM70 16H68V18H70V16ZM78 18H80V14H78V18ZM78 16V18H82V16H78ZM80 16H78V20H80V16ZM78 16H76V20H78V16ZM76 16H74V20H76V16ZM74 16H72V20H74V16ZM72 16H70V20H72V16ZM70 16H68V20H70V16ZM68 16H66V20H68V16ZM66 16H64V20H66V16ZM66 18V16H62V18H66ZM66 16V14H62V16H66ZM66 14V12H62V14H66ZM66 12V10H62V12H66ZM66 10V8H62V10H66ZM66 8V6H62V8H66ZM66 6V4H62V6H66ZM66 4V2H62V4H66ZM66 2V0H62V2H66ZM64 2H66V-2H64V2ZM66 2H68V-2H66V2ZM68 2H70V-2H68V2ZM70 2H72V-2H70V2ZM72 2H74V-2H72V2ZM74 2H76V-2H74V2ZM76 2H78V-2H76V2ZM78 2H80V-2H78V2ZM78 0V2H82V0H78ZM80 0H78V4H80V0ZM78 0H76V4H78V0ZM76 0H74V4H76V0ZM74 0H72V4H74V0ZM72 0H70V4H72V0ZM68 2V4H72V2H68ZM68 4V6H72V4H68ZM68 6V8H72V6H68ZM70 10H72V6H70V10ZM72 10H74V6H72V10ZM74 10H76V6H74V10ZM76 10H78V6H76V10ZM78 10H80V6H78V10ZM78 8V10H82V8H78ZM80 8H78V12H80V8ZM78 8H76V12H78V8ZM76 8H74V12H76V8ZM74 8H72V12H74V8ZM72 8H70V12H72V8ZM68 10V12H72V10H68ZM68 12V14H72V12H68ZM68 14V16H72V14H68ZM70 18H72V14H70V18ZM72 18H74V14H72V18ZM74 18H76V14H74V18ZM76 18H78V14H76V18ZM94 18H92V20H94V18ZM94 16H96V14H94V16ZM92 16H90V18H92V16ZM92 2V0H90V2H92ZM94 2V4H96V2H94ZM94 0V-2H92V0H94ZM108 0H110V-2H108V0ZM108 2H106V4H108V2ZM110 2H112V0H110V2ZM110 16V18H112V16H110ZM108 16V14H106V16H108ZM108 18V20H110V18H108ZM104 16V18H106V16H104ZM104 2H106V0H104V2ZM98 2V0H96V2H98ZM98 16H96V18H98V16ZM106 16H104V20H106V16ZM104 16H102V20H104V16ZM102 16H100V20H102V16ZM100 16H98V20H100V16ZM98 16H96V20H98V16ZM96 16H94V20H96V16ZM96 18V16H92V18H96ZM94 14H92V18H94V14ZM94 16V14H90V16H94ZM94 14V12H90V14H94ZM94 12V10H90V12H94ZM94 10V8H90V10H94ZM94 8V6H90V8H94ZM94 6V4H90V6H94ZM94 4V2H90V4H94ZM92 4H94V0H92V4ZM96 2V0H92V2H96ZM94 2H96V-2H94V2ZM96 2H98V-2H96V2ZM98 2H100V-2H98V2ZM100 2H102V-2H100V2ZM102 2H104V-2H102V2ZM104 2H106V-2H104V2ZM106 2H108V-2H106V2ZM106 0V2H110V0H106ZM108 4H110V0H108V4ZM108 2V4H112V2H108ZM108 4V6H112V4H108ZM108 6V8H112V6H108ZM108 8V10H112V8H108ZM108 10V12H112V10H108ZM108 12V14H112V12H108ZM108 14V16H112V14H108ZM110 14H108V18H110V14ZM106 16V18H110V16H106ZM108 16H106V20H108V16ZM102 18H104V14H102V18ZM106 16V14H102V16H106ZM106 14V12H102V14H106ZM106 12V10H102V12H106ZM106 10V8H102V10H106ZM106 8V6H102V8H106ZM106 6V4H102V6H106ZM106 4V2H102V4H106ZM104 0H102V4H104V0ZM102 0H100V4H102V0ZM100 0H98V4H100V0ZM96 2V4H100V2H96ZM96 4V6H100V4H96ZM96 6V8H100V6H96ZM96 8V10H100V8H96ZM96 10V12H100V10H96ZM96 12V14H100V12H96ZM96 14V16H100V14H96ZM98 18H100V14H98V18ZM100 18H102V14H100V18ZM116 18H114V20H116V18ZM116 16H118V14H116V16ZM114 16H112V18H114V16ZM114 8H116V6H114V8ZM112 8H110V10H112V8ZM112 0V-2H110V0H112ZM118 0H120V-2H118V0ZM118 8H116V10H118V8ZM120 8H122V6H120V8ZM120 16H118V18H120V16ZM122 16V18H124V16H122ZM122 8V6H120V8H122ZM124 8V10H126V8H124ZM124 0V-2H122V0H124ZM130 0H132V-2H130V0ZM130 8V10H132V8H130ZM128 8V6H126V8H128ZM128 16V18H130V16H128ZM126 16V14H124V16H126ZM126 18V20H128V18H126ZM124 16H122V20H124V16ZM122 16H120V20H122V16ZM120 16H118V20H120V16ZM118 16H116V20H118V16ZM118 18V16H114V18H118ZM116 14H114V18H116V14ZM116 16V14H112V16H116ZM116 14V12H112V14H116ZM116 12V10H112V12H116ZM116 10V8H112V10H116ZM114 6H112V10H114V6ZM114 8V6H110V8H114ZM114 6V4H110V6H114ZM114 4V2H110V4H114ZM114 2V0H110V2H114ZM112 2H114V-2H112V2ZM114 2H116V-2H114V2ZM116 2H118V-2H116V2ZM116 0V2H120V0H116ZM116 2V4H120V2H116ZM116 4V6H120V4H116ZM116 6V8H120V6H116ZM118 10H120V6H118V10ZM118 8V10H122V8H118ZM118 10V12H122V10H118ZM118 12V14H122V12H118ZM118 14V16H122V14H118ZM120 18H122V14H120V18ZM124 16V14H120V16H124ZM124 14V12H120V14H124ZM124 12V10H120V12H124ZM124 10V8H120V10H124ZM122 10H124V6H122V10ZM126 8V6H122V8H126ZM126 6V4H122V6H126ZM126 4V2H122V4H126ZM126 2V0H122V2H126ZM124 2H126V-2H124V2ZM126 2H128V-2H126V2ZM128 2H130V-2H128V2ZM128 0V2H132V0H128ZM128 2V4H132V2H128ZM128 4V6H132V4H128ZM128 6V8H132V6H128ZM130 6H128V10H130V6ZM126 8V10H130V8H126ZM126 10V12H130V10H126ZM126 12V14H130V12H126ZM126 14V16H130V14H126ZM128 14H126V18H128V14ZM124 16V18H128V16H124ZM126 16H124V20H126V16ZM148 16H150V14H148V16ZM148 18V20H150V18H148ZM132 18H130V20H132V18ZM132 0V-2H130V0H132ZM148 0H150V-2H148V0ZM148 2V4H150V2H148ZM138 2V0H136V2H138ZM138 8H136V10H138V8ZM148 8H150V6H148V8ZM148 10V12H150V10H148ZM138 10V8H136V10H138ZM138 16H136V18H138V16ZM146 18H148V14H146V18ZM146 16V18H150V16H146ZM148 16H146V20H148V16ZM146 16H144V20H146V16ZM144 16H142V20H144V16ZM142 16H140V20H142V16ZM140 16H138V20H140V16ZM138 16H136V20H138V16ZM136 16H134V20H136V16ZM134 16H132V20H134V16ZM134 18V16H130V18H134ZM134 16V14H130V16H134ZM134 14V12H130V14H134ZM134 12V10H130V12H134ZM134 10V8H130V10H134ZM134 8V6H130V8H134ZM134 6V4H130V6H134ZM134 4V2H130V4H134ZM134 2V0H130V2H134ZM132 2H134V-2H132V2ZM134 2H136V-2H134V2ZM136 2H138V-2H136V2ZM138 2H140V-2H138V2ZM140 2H142V-2H140V2ZM142 2H144V-2H142V2ZM144 2H146V-2H144V2ZM146 2H148V-2H146V2ZM146 0V2H150V0H146ZM148 0H146V4H148V0ZM146 0H144V4H146V0ZM144 0H142V4H144V0ZM142 0H140V4H142V0ZM140 0H138V4H140V0ZM136 2V4H140V2H136ZM136 4V6H140V4H136ZM136 6V8H140V6H136ZM138 10H140V6H138V10ZM140 10H142V6H140V10ZM142 10H144V6H142V10ZM144 10H146V6H144V10ZM146 10H148V6H146V10ZM146 8V10H150V8H146ZM148 8H146V12H148V8ZM146 8H144V12H146V8ZM144 8H142V12H144V8ZM142 8H140V12H142V8ZM140 8H138V12H140V8ZM136 10V12H140V10H136ZM136 12V14H140V12H136ZM136 14V16H140V14H136ZM138 18H140V14H138V18ZM140 18H142V14H140V18ZM142 18H144V14H142V18ZM144 18H146V14H144V18ZM160 18H158V20H160V18ZM160 10V8H158V10H160ZM166 10H168V8H166V10ZM166 18V20H168V18H166ZM150 18H148V20H150V18ZM150 0V-2H148V0H150ZM164 0H166V-2H164V0ZM164 2H162V4H164V2ZM166 2H168V0H166V2ZM166 8V10H168V8H166ZM160 8H158V10H160V8ZM160 2H162V0H160V2ZM156 2V0H154V2H156ZM156 8H154V10H156V8ZM160 8H162V6H160V8ZM160 10V12H162V10H160ZM156 10V8H154V10H156ZM156 18V20H158V18H156ZM164 16H162V20H164V16ZM162 16H160V20H162V16ZM162 18V16H158V18H162ZM162 16V14H158V16H162ZM162 14V12H158V14H162ZM162 12V10H158V12H162ZM160 12H162V8H160V12ZM162 12H164V8H162V12ZM164 12H166V8H164V12ZM164 10V12H168V10H164ZM164 12V14H168V12H164ZM164 14V16H168V14H164ZM164 16V18H168V16H164ZM166 16H164V20H166V16ZM154 16H152V20H154V16ZM152 16H150V20H152V16ZM152 18V16H148V18H152ZM152 16V14H148V16H152ZM152 14V12H148V14H152ZM152 12V10H148V12H152ZM152 10V8H148V10H152ZM152 8V6H148V8H152ZM152 6V4H148V6H152ZM152 4V2H148V4H152ZM152 2V0H148V2H152ZM150 2H152V-2H150V2ZM152 2H154V-2H152V2ZM154 2H156V-2H154V2ZM156 2H158V-2H156V2ZM158 2H160V-2H158V2ZM160 2H162V-2H160V2ZM162 2H164V-2H162V2ZM162 0V2H166V0H162ZM164 4H166V0H164V4ZM164 2V4H168V2H164ZM164 4V6H168V4H164ZM164 6V8H168V6H164ZM166 6H164V10H166V6ZM164 6H162V10H164V6ZM162 6H160V10H162V6ZM162 8V6H158V8H162ZM162 6V4H158V6H162ZM162 4V2H158V4H162ZM160 0H158V4H160V0ZM158 0H156V4H158V0ZM154 2V4H158V2H154ZM154 4V6H158V4H154ZM154 6V8H158V6H154ZM156 10H158V6H156V10ZM158 10H160V6H158V10ZM158 8V10H162V8H158ZM160 8H158V12H160V8ZM158 8H156V12H158V8ZM154 10V12H158V10H154ZM154 12V14H158V12H154ZM154 14V16H158V14H154ZM154 16V18H158V16H154ZM156 16H154V20H156V16Z" fill="#771717" mask="url(#path-1-outside-1_109_14)"/>
</svg>
