<svg width="236" height="108" viewBox="0 0 236 108" fill="none" xmlns="http://www.w3.org/2000/svg">
<rect x="0.5" y="0.5" width="235" height="107" rx="5.5" fill="#DED798" stroke="#543847"/>
<mask id="path-2-outside-1_105_6" maskUnits="userSpaceOnUse" x="140.6" y="19.8569" width="70" height="11" fill="black">
<rect fill="white" x="140.6" y="19.8569" width="70" height="11"/>
<path d="M149.1 29.8569H148.163H147.225V28.9194V27.9819V27.0444H146.288H145.35H144.413V27.9819V28.9194V29.8569H143.475H142.538H141.6V28.9194V27.9819V27.0444V26.1069V25.1694V24.2319H142.538V23.2944H143.475V22.3569H144.413V21.4194H145.35H146.288H147.225V22.3569H148.163V23.2944H149.1V24.2319V25.1694H150.038V26.1069V27.0444V27.9819V28.9194V29.8569H149.1ZM146.288 26.1069H147.225V25.1694H146.288V24.2319V23.2944H145.35V24.2319V25.1694H144.413V26.1069H145.35H146.288ZM155.663 29.8569H154.725H153.788H152.85H151.913V28.9194H150.975V27.9819V27.0444V26.1069H150.038V25.1694V24.2319V23.2944H150.975H151.913H152.85V24.2319V25.1694V26.1069H153.788V27.0444V27.9819V28.9194H154.725V27.9819V27.0444V26.1069H155.663V25.1694V24.2319V23.2944H156.6H157.538H158.475V24.2319V25.1694V26.1069H157.538V27.0444V27.9819V28.9194H156.6V29.8569H155.663ZM165.975 29.8569H165.038H164.1H163.163H162.225H161.288H160.35V28.9194H159.413V27.9819V27.0444H160.35V26.1069H161.288H162.225H163.163H164.1V25.1694V24.2319H163.163H162.225V25.1694H161.288H160.35H159.413V24.2319H160.35V23.2944H161.288H162.225H163.163H164.1H165.038H165.975V24.2319H166.913V25.1694V26.1069V27.0444V27.9819V28.9194V29.8569H165.975ZM163.163 28.9194H164.1V27.9819V27.0444H163.163H162.225V27.9819V28.9194H163.163ZM168.45 26.4219V25.2519H172.08V26.4219H168.45ZM178.309 29.8569H177.371H176.434H175.496H174.559H173.621V28.9194H172.684V27.9819V27.0444V26.1069V25.1694V24.2319H173.621V23.2944H174.559H175.496H176.434H177.371H178.309H179.246V24.2319H180.184V25.1694H179.246H178.309H177.371V24.2319H176.434H175.496V25.1694V26.1069V27.0444V27.9819V28.9194H176.434H177.371V27.9819H178.309H179.246H180.184V28.9194H179.246V29.8569H178.309ZM186.746 29.8569H185.809H184.871H183.934H182.996H182.059V28.9194H181.121V27.9819V27.0444V26.1069V25.1694V24.2319H182.059V23.2944H182.996H183.934H184.871H185.809H186.746H187.684V24.2319H188.621V25.1694V26.1069V27.0444V27.9819V28.9194H187.684V29.8569H186.746ZM184.871 28.9194H185.809V27.9819V27.0444V26.1069V25.1694V24.2319H184.871H183.934V25.1694V26.1069V27.0444V27.9819V28.9194H184.871ZM191.434 29.8569H190.496H189.559V28.9194V27.9819V27.0444V26.1069V25.1694V24.2319V23.2944H190.496H191.434H192.371V24.2319V25.1694V26.1069V27.0444V27.9819V28.9194V29.8569H191.434ZM191.434 22.3569H190.496H189.559V21.4194V20.4819H190.496H191.434H192.371V21.4194V22.3569H191.434ZM199.871 29.8569H198.934H197.996V28.9194V27.9819V27.0444V26.1069V25.1694V24.2319H197.059H196.121V25.1694V26.1069V27.0444V27.9819V28.9194V29.8569H195.184H194.246H193.309V28.9194V27.9819V27.0444V26.1069V25.1694V24.2319V23.2944H194.246H195.184H196.121H197.059H197.996H198.934H199.871V24.2319H200.809V25.1694V26.1069V27.0444V27.9819V28.9194V29.8569H199.871ZM207.371 29.8569H206.434H205.496H204.559H203.621H202.684V28.9194H201.746V27.9819H202.684H203.621H204.559V28.9194H205.496H206.434V27.9819V27.0444H205.496H204.559H203.621H202.684V26.1069H201.746V25.1694V24.2319H202.684V23.2944H203.621H204.559H205.496H206.434H207.371H208.309V24.2319H209.246V25.1694H208.309H207.371H206.434V24.2319H205.496H204.559V25.1694V26.1069H205.496H206.434H207.371H208.309V27.0444H209.246V27.9819V28.9194H208.309V29.8569H207.371Z"/>
</mask>
<path d="M149.1 29.8569H148.163H147.225V28.9194V27.9819V27.0444H146.288H145.35H144.413V27.9819V28.9194V29.8569H143.475H142.538H141.6V28.9194V27.9819V27.0444V26.1069V25.1694V24.2319H142.538V23.2944H143.475V22.3569H144.413V21.4194H145.35H146.288H147.225V22.3569H148.163V23.2944H149.1V24.2319V25.1694H150.038V26.1069V27.0444V27.9819V28.9194V29.8569H149.1ZM146.288 26.1069H147.225V25.1694H146.288V24.2319V23.2944H145.35V24.2319V25.1694H144.413V26.1069H145.35H146.288ZM155.663 29.8569H154.725H153.788H152.85H151.913V28.9194H150.975V27.9819V27.0444V26.1069H150.038V25.1694V24.2319V23.2944H150.975H151.913H152.85V24.2319V25.1694V26.1069H153.788V27.0444V27.9819V28.9194H154.725V27.9819V27.0444V26.1069H155.663V25.1694V24.2319V23.2944H156.6H157.538H158.475V24.2319V25.1694V26.1069H157.538V27.0444V27.9819V28.9194H156.6V29.8569H155.663ZM165.975 29.8569H165.038H164.1H163.163H162.225H161.288H160.35V28.9194H159.413V27.9819V27.0444H160.35V26.1069H161.288H162.225H163.163H164.1V25.1694V24.2319H163.163H162.225V25.1694H161.288H160.35H159.413V24.2319H160.35V23.2944H161.288H162.225H163.163H164.1H165.038H165.975V24.2319H166.913V25.1694V26.1069V27.0444V27.9819V28.9194V29.8569H165.975ZM163.163 28.9194H164.1V27.9819V27.0444H163.163H162.225V27.9819V28.9194H163.163ZM168.45 26.4219V25.2519H172.08V26.4219H168.45ZM178.309 29.8569H177.371H176.434H175.496H174.559H173.621V28.9194H172.684V27.9819V27.0444V26.1069V25.1694V24.2319H173.621V23.2944H174.559H175.496H176.434H177.371H178.309H179.246V24.2319H180.184V25.1694H179.246H178.309H177.371V24.2319H176.434H175.496V25.1694V26.1069V27.0444V27.9819V28.9194H176.434H177.371V27.9819H178.309H179.246H180.184V28.9194H179.246V29.8569H178.309ZM186.746 29.8569H185.809H184.871H183.934H182.996H182.059V28.9194H181.121V27.9819V27.0444V26.1069V25.1694V24.2319H182.059V23.2944H182.996H183.934H184.871H185.809H186.746H187.684V24.2319H188.621V25.1694V26.1069V27.0444V27.9819V28.9194H187.684V29.8569H186.746ZM184.871 28.9194H185.809V27.9819V27.0444V26.1069V25.1694V24.2319H184.871H183.934V25.1694V26.1069V27.0444V27.9819V28.9194H184.871ZM191.434 29.8569H190.496H189.559V28.9194V27.9819V27.0444V26.1069V25.1694V24.2319V23.2944H190.496H191.434H192.371V24.2319V25.1694V26.1069V27.0444V27.9819V28.9194V29.8569H191.434ZM191.434 22.3569H190.496H189.559V21.4194V20.4819H190.496H191.434H192.371V21.4194V22.3569H191.434ZM199.871 29.8569H198.934H197.996V28.9194V27.9819V27.0444V26.1069V25.1694V24.2319H197.059H196.121V25.1694V26.1069V27.0444V27.9819V28.9194V29.8569H195.184H194.246H193.309V28.9194V27.9819V27.0444V26.1069V25.1694V24.2319V23.2944H194.246H195.184H196.121H197.059H197.996H198.934H199.871V24.2319H200.809V25.1694V26.1069V27.0444V27.9819V28.9194V29.8569H199.871ZM207.371 29.8569H206.434H205.496H204.559H203.621H202.684V28.9194H201.746V27.9819H202.684H203.621H204.559V28.9194H205.496H206.434V27.9819V27.0444H205.496H204.559H203.621H202.684V26.1069H201.746V25.1694V24.2319H202.684V23.2944H203.621H204.559H205.496H206.434H207.371H208.309V24.2319H209.246V25.1694H208.309H207.371H206.434V24.2319H205.496H204.559V25.1694V26.1069H205.496H206.434H207.371H208.309V27.0444H209.246V27.9819V28.9194H208.309V29.8569H207.371Z" fill="#F87E61"/>
<path d="M147.225 29.8569H146.725V30.3569H147.225V29.8569ZM147.225 27.0444H147.725V26.5444H147.225V27.0444ZM144.413 27.0444V26.5444H143.913V27.0444H144.413ZM144.413 29.8569V30.3569H144.913V29.8569H144.413ZM141.6 29.8569H141.1V30.3569H141.6V29.8569ZM141.6 24.2319V23.7319H141.1V24.2319H141.6ZM142.538 24.2319V24.7319H143.038V24.2319H142.538ZM142.538 23.2944V22.7944H142.038V23.2944H142.538ZM143.475 23.2944V23.7944H143.975V23.2944H143.475ZM143.475 22.3569V21.8569H142.975V22.3569H143.475ZM144.413 22.3569V22.8569H144.913V22.3569H144.413ZM144.413 21.4194V20.9194H143.913V21.4194H144.413ZM147.225 21.4194H147.725V20.9194H147.225V21.4194ZM147.225 22.3569H146.725V22.8569H147.225V22.3569ZM148.163 22.3569H148.663V21.8569H148.163V22.3569ZM148.163 23.2944H147.663V23.7944H148.163V23.2944ZM149.1 23.2944H149.6V22.7944H149.1V23.2944ZM149.1 25.1694H148.6V25.6694H149.1V25.1694ZM150.038 25.1694H150.538V24.6694H150.038V25.1694ZM150.038 29.8569V30.3569H150.538V29.8569H150.038ZM147.225 26.1069V26.6069H147.725V26.1069H147.225ZM147.225 25.1694H147.725V24.6694H147.225V25.1694ZM146.288 25.1694H145.788V25.6694H146.288V25.1694ZM146.288 23.2944H146.788V22.7944H146.288V23.2944ZM145.35 23.2944V22.7944H144.85V23.2944H145.35ZM145.35 25.1694V25.6694H145.85V25.1694H145.35ZM144.413 25.1694V24.6694H143.913V25.1694H144.413ZM144.413 26.1069H143.913V26.6069H144.413V26.1069ZM149.1 29.3569H148.163V30.3569H149.1V29.3569ZM148.163 29.3569H147.225V30.3569H148.163V29.3569ZM147.725 29.8569V28.9194H146.725V29.8569H147.725ZM147.725 28.9194V27.9819H146.725V28.9194H147.725ZM147.725 27.9819V27.0444H146.725V27.9819H147.725ZM147.225 26.5444H146.288V27.5444H147.225V26.5444ZM146.288 26.5444H145.35V27.5444H146.288V26.5444ZM145.35 26.5444H144.413V27.5444H145.35V26.5444ZM143.913 27.0444V27.9819H144.913V27.0444H143.913ZM143.913 27.9819V28.9194H144.913V27.9819H143.913ZM143.913 28.9194V29.8569H144.913V28.9194H143.913ZM144.413 29.3569H143.475V30.3569H144.413V29.3569ZM143.475 29.3569H142.538V30.3569H143.475V29.3569ZM142.538 29.3569H141.6V30.3569H142.538V29.3569ZM142.1 29.8569V28.9194H141.1V29.8569H142.1ZM142.1 28.9194V27.9819H141.1V28.9194H142.1ZM142.1 27.9819V27.0444H141.1V27.9819H142.1ZM142.1 27.0444V26.1069H141.1V27.0444H142.1ZM142.1 26.1069V25.1694H141.1V26.1069H142.1ZM142.1 25.1694V24.2319H141.1V25.1694H142.1ZM141.6 24.7319H142.538V23.7319H141.6V24.7319ZM143.038 24.2319V23.2944H142.038V24.2319H143.038ZM142.538 23.7944H143.475V22.7944H142.538V23.7944ZM143.975 23.2944V22.3569H142.975V23.2944H143.975ZM143.475 22.8569H144.413V21.8569H143.475V22.8569ZM144.913 22.3569V21.4194H143.913V22.3569H144.913ZM144.413 21.9194H145.35V20.9194H144.413V21.9194ZM145.35 21.9194H146.288V20.9194H145.35V21.9194ZM146.288 21.9194H147.225V20.9194H146.288V21.9194ZM146.725 21.4194V22.3569H147.725V21.4194H146.725ZM147.225 22.8569H148.163V21.8569H147.225V22.8569ZM147.663 22.3569V23.2944H148.663V22.3569H147.663ZM148.163 23.7944H149.1V22.7944H148.163V23.7944ZM148.6 23.2944V24.2319H149.6V23.2944H148.6ZM148.6 24.2319V25.1694H149.6V24.2319H148.6ZM149.1 25.6694H150.038V24.6694H149.1V25.6694ZM149.538 25.1694V26.1069H150.538V25.1694H149.538ZM149.538 26.1069V27.0444H150.538V26.1069H149.538ZM149.538 27.0444V27.9819H150.538V27.0444H149.538ZM149.538 27.9819V28.9194H150.538V27.9819H149.538ZM149.538 28.9194V29.8569H150.538V28.9194H149.538ZM150.038 29.3569H149.1V30.3569H150.038V29.3569ZM146.288 26.6069H147.225V25.6069H146.288V26.6069ZM147.725 26.1069V25.1694H146.725V26.1069H147.725ZM147.225 24.6694H146.288V25.6694H147.225V24.6694ZM146.788 25.1694V24.2319H145.788V25.1694H146.788ZM146.788 24.2319V23.2944H145.788V24.2319H146.788ZM146.288 22.7944H145.35V23.7944H146.288V22.7944ZM144.85 23.2944V24.2319H145.85V23.2944H144.85ZM144.85 24.2319V25.1694H145.85V24.2319H144.85ZM145.35 24.6694H144.413V25.6694H145.35V24.6694ZM143.913 25.1694V26.1069H144.913V25.1694H143.913ZM144.413 26.6069H145.35V25.6069H144.413V26.6069ZM145.35 26.6069H146.288V25.6069H145.35V26.6069ZM151.913 29.8569H151.413V30.3569H151.913V29.8569ZM151.913 28.9194H152.413V28.4194H151.913V28.9194ZM150.975 28.9194H150.475V29.4194H150.975V28.9194ZM150.975 26.1069H151.475V25.6069H150.975V26.1069ZM150.038 26.1069H149.538V26.6069H150.038V26.1069ZM150.038 23.2944V22.7944H149.538V23.2944H150.038ZM152.85 23.2944H153.35V22.7944H152.85V23.2944ZM152.85 26.1069H152.35V26.6069H152.85V26.1069ZM153.788 26.1069H154.288V25.6069H153.788V26.1069ZM153.788 28.9194H153.288V29.4194H153.788V28.9194ZM154.725 28.9194V29.4194H155.225V28.9194H154.725ZM154.725 26.1069V25.6069H154.225V26.1069H154.725ZM155.663 26.1069V26.6069H156.163V26.1069H155.663ZM155.663 23.2944V22.7944H155.163V23.2944H155.663ZM158.475 23.2944H158.975V22.7944H158.475V23.2944ZM158.475 26.1069V26.6069H158.975V26.1069H158.475ZM157.538 26.1069V25.6069H157.038V26.1069H157.538ZM157.538 28.9194V29.4194H158.038V28.9194H157.538ZM156.6 28.9194V28.4194H156.1V28.9194H156.6ZM156.6 29.8569V30.3569H157.1V29.8569H156.6ZM155.663 29.3569H154.725V30.3569H155.663V29.3569ZM154.725 29.3569H153.788V30.3569H154.725V29.3569ZM153.788 29.3569H152.85V30.3569H153.788V29.3569ZM152.85 29.3569H151.913V30.3569H152.85V29.3569ZM152.413 29.8569V28.9194H151.413V29.8569H152.413ZM151.913 28.4194H150.975V29.4194H151.913V28.4194ZM151.475 28.9194V27.9819H150.475V28.9194H151.475ZM151.475 27.9819V27.0444H150.475V27.9819H151.475ZM151.475 27.0444V26.1069H150.475V27.0444H151.475ZM150.975 25.6069H150.038V26.6069H150.975V25.6069ZM150.538 26.1069V25.1694H149.538V26.1069H150.538ZM150.538 25.1694V24.2319H149.538V25.1694H150.538ZM150.538 24.2319V23.2944H149.538V24.2319H150.538ZM150.038 23.7944H150.975V22.7944H150.038V23.7944ZM150.975 23.7944H151.913V22.7944H150.975V23.7944ZM151.913 23.7944H152.85V22.7944H151.913V23.7944ZM152.35 23.2944V24.2319H153.35V23.2944H152.35ZM152.35 24.2319V25.1694H153.35V24.2319H152.35ZM152.35 25.1694V26.1069H153.35V25.1694H152.35ZM152.85 26.6069H153.788V25.6069H152.85V26.6069ZM153.288 26.1069V27.0444H154.288V26.1069H153.288ZM153.288 27.0444V27.9819H154.288V27.0444H153.288ZM153.288 27.9819V28.9194H154.288V27.9819H153.288ZM153.788 29.4194H154.725V28.4194H153.788V29.4194ZM155.225 28.9194V27.9819H154.225V28.9194H155.225ZM155.225 27.9819V27.0444H154.225V27.9819H155.225ZM155.225 27.0444V26.1069H154.225V27.0444H155.225ZM154.725 26.6069H155.663V25.6069H154.725V26.6069ZM156.163 26.1069V25.1694H155.163V26.1069H156.163ZM156.163 25.1694V24.2319H155.163V25.1694H156.163ZM156.163 24.2319V23.2944H155.163V24.2319H156.163ZM155.663 23.7944H156.6V22.7944H155.663V23.7944ZM156.6 23.7944H157.538V22.7944H156.6V23.7944ZM157.538 23.7944H158.475V22.7944H157.538V23.7944ZM157.975 23.2944V24.2319H158.975V23.2944H157.975ZM157.975 24.2319V25.1694H158.975V24.2319H157.975ZM157.975 25.1694V26.1069H158.975V25.1694H157.975ZM158.475 25.6069H157.538V26.6069H158.475V25.6069ZM157.038 26.1069V27.0444H158.038V26.1069H157.038ZM157.038 27.0444V27.9819H158.038V27.0444H157.038ZM157.038 27.9819V28.9194H158.038V27.9819H157.038ZM157.538 28.4194H156.6V29.4194H157.538V28.4194ZM156.1 28.9194V29.8569H157.1V28.9194H156.1ZM156.6 29.3569H155.663V30.3569H156.6V29.3569ZM160.35 29.8569H159.85V30.3569H160.35V29.8569ZM160.35 28.9194H160.85V28.4194H160.35V28.9194ZM159.413 28.9194H158.913V29.4194H159.413V28.9194ZM159.413 27.0444V26.5444H158.913V27.0444H159.413ZM160.35 27.0444V27.5444H160.85V27.0444H160.35ZM160.35 26.1069V25.6069H159.85V26.1069H160.35ZM164.1 26.1069V26.6069H164.6V26.1069H164.1ZM164.1 24.2319H164.6V23.7319H164.1V24.2319ZM162.225 24.2319V23.7319H161.725V24.2319H162.225ZM162.225 25.1694V25.6694H162.725V25.1694H162.225ZM159.413 25.1694H158.913V25.6694H159.413V25.1694ZM159.413 24.2319V23.7319H158.913V24.2319H159.413ZM160.35 24.2319V24.7319H160.85V24.2319H160.35ZM160.35 23.2944V22.7944H159.85V23.2944H160.35ZM165.975 23.2944H166.475V22.7944H165.975V23.2944ZM165.975 24.2319H165.475V24.7319H165.975V24.2319ZM166.913 24.2319H167.413V23.7319H166.913V24.2319ZM166.913 29.8569V30.3569H167.413V29.8569H166.913ZM164.1 28.9194V29.4194H164.6V28.9194H164.1ZM164.1 27.0444H164.6V26.5444H164.1V27.0444ZM162.225 27.0444V26.5444H161.725V27.0444H162.225ZM162.225 28.9194H161.725V29.4194H162.225V28.9194ZM165.975 29.3569H165.038V30.3569H165.975V29.3569ZM165.038 29.3569H164.1V30.3569H165.038V29.3569ZM164.1 29.3569H163.163V30.3569H164.1V29.3569ZM163.163 29.3569H162.225V30.3569H163.163V29.3569ZM162.225 29.3569H161.288V30.3569H162.225V29.3569ZM161.288 29.3569H160.35V30.3569H161.288V29.3569ZM160.85 29.8569V28.9194H159.85V29.8569H160.85ZM160.35 28.4194H159.413V29.4194H160.35V28.4194ZM159.913 28.9194V27.9819H158.913V28.9194H159.913ZM159.913 27.9819V27.0444H158.913V27.9819H159.913ZM159.413 27.5444H160.35V26.5444H159.413V27.5444ZM160.85 27.0444V26.1069H159.85V27.0444H160.85ZM160.35 26.6069H161.288V25.6069H160.35V26.6069ZM161.288 26.6069H162.225V25.6069H161.288V26.6069ZM162.225 26.6069H163.163V25.6069H162.225V26.6069ZM163.163 26.6069H164.1V25.6069H163.163V26.6069ZM164.6 26.1069V25.1694H163.6V26.1069H164.6ZM164.6 25.1694V24.2319H163.6V25.1694H164.6ZM164.1 23.7319H163.163V24.7319H164.1V23.7319ZM163.163 23.7319H162.225V24.7319H163.163V23.7319ZM161.725 24.2319V25.1694H162.725V24.2319H161.725ZM162.225 24.6694H161.288V25.6694H162.225V24.6694ZM161.288 24.6694H160.35V25.6694H161.288V24.6694ZM160.35 24.6694H159.413V25.6694H160.35V24.6694ZM159.913 25.1694V24.2319H158.913V25.1694H159.913ZM159.413 24.7319H160.35V23.7319H159.413V24.7319ZM160.85 24.2319V23.2944H159.85V24.2319H160.85ZM160.35 23.7944H161.288V22.7944H160.35V23.7944ZM161.288 23.7944H162.225V22.7944H161.288V23.7944ZM162.225 23.7944H163.163V22.7944H162.225V23.7944ZM163.163 23.7944H164.1V22.7944H163.163V23.7944ZM164.1 23.7944H165.038V22.7944H164.1V23.7944ZM165.038 23.7944H165.975V22.7944H165.038V23.7944ZM165.475 23.2944V24.2319H166.475V23.2944H165.475ZM165.975 24.7319H166.913V23.7319H165.975V24.7319ZM166.413 24.2319V25.1694H167.413V24.2319H166.413ZM166.413 25.1694V26.1069H167.413V25.1694H166.413ZM166.413 26.1069V27.0444H167.413V26.1069H166.413ZM166.413 27.0444V27.9819H167.413V27.0444H166.413ZM166.413 27.9819V28.9194H167.413V27.9819H166.413ZM166.413 28.9194V29.8569H167.413V28.9194H166.413ZM166.913 29.3569H165.975V30.3569H166.913V29.3569ZM163.163 29.4194H164.1V28.4194H163.163V29.4194ZM164.6 28.9194V27.9819H163.6V28.9194H164.6ZM164.6 27.9819V27.0444H163.6V27.9819H164.6ZM164.1 26.5444H163.163V27.5444H164.1V26.5444ZM163.163 26.5444H162.225V27.5444H163.163V26.5444ZM161.725 27.0444V27.9819H162.725V27.0444H161.725ZM161.725 27.9819V28.9194H162.725V27.9819H161.725ZM162.225 29.4194H163.163V28.4194H162.225V29.4194ZM168.45 26.4219H167.95V26.9219H168.45V26.4219ZM168.45 25.2519V24.7519H167.95V25.2519H168.45ZM172.08 25.2519H172.58V24.7519H172.08V25.2519ZM172.08 26.4219V26.9219H172.58V26.4219H172.08ZM168.95 26.4219V25.2519H167.95V26.4219H168.95ZM168.45 25.7519H172.08V24.7519H168.45V25.7519ZM171.58 25.2519V26.4219H172.58V25.2519H171.58ZM172.08 25.9219H168.45V26.9219H172.08V25.9219ZM173.621 29.8569H173.121V30.3569H173.621V29.8569ZM173.621 28.9194H174.121V28.4194H173.621V28.9194ZM172.684 28.9194H172.184V29.4194H172.684V28.9194ZM172.684 24.2319V23.7319H172.184V24.2319H172.684ZM173.621 24.2319V24.7319H174.121V24.2319H173.621ZM173.621 23.2944V22.7944H173.121V23.2944H173.621ZM179.246 23.2944H179.746V22.7944H179.246V23.2944ZM179.246 24.2319H178.746V24.7319H179.246V24.2319ZM180.184 24.2319H180.684V23.7319H180.184V24.2319ZM180.184 25.1694V25.6694H180.684V25.1694H180.184ZM177.371 25.1694H176.871V25.6694H177.371V25.1694ZM177.371 24.2319H177.871V23.7319H177.371V24.2319ZM175.496 24.2319V23.7319H174.996V24.2319H175.496ZM175.496 28.9194H174.996V29.4194H175.496V28.9194ZM177.371 28.9194V29.4194H177.871V28.9194H177.371ZM177.371 27.9819V27.4819H176.871V27.9819H177.371ZM180.184 27.9819H180.684V27.4819H180.184V27.9819ZM180.184 28.9194V29.4194H180.684V28.9194H180.184ZM179.246 28.9194V28.4194H178.746V28.9194H179.246ZM179.246 29.8569V30.3569H179.746V29.8569H179.246ZM178.309 29.3569H177.371V30.3569H178.309V29.3569ZM177.371 29.3569H176.434V30.3569H177.371V29.3569ZM176.434 29.3569H175.496V30.3569H176.434V29.3569ZM175.496 29.3569H174.559V30.3569H175.496V29.3569ZM174.559 29.3569H173.621V30.3569H174.559V29.3569ZM174.121 29.8569V28.9194H173.121V29.8569H174.121ZM173.621 28.4194H172.684V29.4194H173.621V28.4194ZM173.184 28.9194V27.9819H172.184V28.9194H173.184ZM173.184 27.9819V27.0444H172.184V27.9819H173.184ZM173.184 27.0444V26.1069H172.184V27.0444H173.184ZM173.184 26.1069V25.1694H172.184V26.1069H173.184ZM173.184 25.1694V24.2319H172.184V25.1694H173.184ZM172.684 24.7319H173.621V23.7319H172.684V24.7319ZM174.121 24.2319V23.2944H173.121V24.2319H174.121ZM173.621 23.7944H174.559V22.7944H173.621V23.7944ZM174.559 23.7944H175.496V22.7944H174.559V23.7944ZM175.496 23.7944H176.434V22.7944H175.496V23.7944ZM176.434 23.7944H177.371V22.7944H176.434V23.7944ZM177.371 23.7944H178.309V22.7944H177.371V23.7944ZM178.309 23.7944H179.246V22.7944H178.309V23.7944ZM178.746 23.2944V24.2319H179.746V23.2944H178.746ZM179.246 24.7319H180.184V23.7319H179.246V24.7319ZM179.684 24.2319V25.1694H180.684V24.2319H179.684ZM180.184 24.6694H179.246V25.6694H180.184V24.6694ZM179.246 24.6694H178.309V25.6694H179.246V24.6694ZM178.309 24.6694H177.371V25.6694H178.309V24.6694ZM177.871 25.1694V24.2319H176.871V25.1694H177.871ZM177.371 23.7319H176.434V24.7319H177.371V23.7319ZM176.434 23.7319H175.496V24.7319H176.434V23.7319ZM174.996 24.2319V25.1694H175.996V24.2319H174.996ZM174.996 25.1694V26.1069H175.996V25.1694H174.996ZM174.996 26.1069V27.0444H175.996V26.1069H174.996ZM174.996 27.0444V27.9819H175.996V27.0444H174.996ZM174.996 27.9819V28.9194H175.996V27.9819H174.996ZM175.496 29.4194H176.434V28.4194H175.496V29.4194ZM176.434 29.4194H177.371V28.4194H176.434V29.4194ZM177.871 28.9194V27.9819H176.871V28.9194H177.871ZM177.371 28.4819H178.309V27.4819H177.371V28.4819ZM178.309 28.4819H179.246V27.4819H178.309V28.4819ZM179.246 28.4819H180.184V27.4819H179.246V28.4819ZM179.684 27.9819V28.9194H180.684V27.9819H179.684ZM180.184 28.4194H179.246V29.4194H180.184V28.4194ZM178.746 28.9194V29.8569H179.746V28.9194H178.746ZM179.246 29.3569H178.309V30.3569H179.246V29.3569ZM182.059 29.8569H181.559V30.3569H182.059V29.8569ZM182.059 28.9194H182.559V28.4194H182.059V28.9194ZM181.121 28.9194H180.621V29.4194H181.121V28.9194ZM181.121 24.2319V23.7319H180.621V24.2319H181.121ZM182.059 24.2319V24.7319H182.559V24.2319H182.059ZM182.059 23.2944V22.7944H181.559V23.2944H182.059ZM187.684 23.2944H188.184V22.7944H187.684V23.2944ZM187.684 24.2319H187.184V24.7319H187.684V24.2319ZM188.621 24.2319H189.121V23.7319H188.621V24.2319ZM188.621 28.9194V29.4194H189.121V28.9194H188.621ZM187.684 28.9194V28.4194H187.184V28.9194H187.684ZM187.684 29.8569V30.3569H188.184V29.8569H187.684ZM185.809 28.9194V29.4194H186.309V28.9194H185.809ZM185.809 24.2319H186.309V23.7319H185.809V24.2319ZM183.934 24.2319V23.7319H183.434V24.2319H183.934ZM183.934 28.9194H183.434V29.4194H183.934V28.9194ZM186.746 29.3569H185.809V30.3569H186.746V29.3569ZM185.809 29.3569H184.871V30.3569H185.809V29.3569ZM184.871 29.3569H183.934V30.3569H184.871V29.3569ZM183.934 29.3569H182.996V30.3569H183.934V29.3569ZM182.996 29.3569H182.059V30.3569H182.996V29.3569ZM182.559 29.8569V28.9194H181.559V29.8569H182.559ZM182.059 28.4194H181.121V29.4194H182.059V28.4194ZM181.621 28.9194V27.9819H180.621V28.9194H181.621ZM181.621 27.9819V27.0444H180.621V27.9819H181.621ZM181.621 27.0444V26.1069H180.621V27.0444H181.621ZM181.621 26.1069V25.1694H180.621V26.1069H181.621ZM181.621 25.1694V24.2319H180.621V25.1694H181.621ZM181.121 24.7319H182.059V23.7319H181.121V24.7319ZM182.559 24.2319V23.2944H181.559V24.2319H182.559ZM182.059 23.7944H182.996V22.7944H182.059V23.7944ZM182.996 23.7944H183.934V22.7944H182.996V23.7944ZM183.934 23.7944H184.871V22.7944H183.934V23.7944ZM184.871 23.7944H185.809V22.7944H184.871V23.7944ZM185.809 23.7944H186.746V22.7944H185.809V23.7944ZM186.746 23.7944H187.684V22.7944H186.746V23.7944ZM187.184 23.2944V24.2319H188.184V23.2944H187.184ZM187.684 24.7319H188.621V23.7319H187.684V24.7319ZM188.121 24.2319V25.1694H189.121V24.2319H188.121ZM188.121 25.1694V26.1069H189.121V25.1694H188.121ZM188.121 26.1069V27.0444H189.121V26.1069H188.121ZM188.121 27.0444V27.9819H189.121V27.0444H188.121ZM188.121 27.9819V28.9194H189.121V27.9819H188.121ZM188.621 28.4194H187.684V29.4194H188.621V28.4194ZM187.184 28.9194V29.8569H188.184V28.9194H187.184ZM187.684 29.3569H186.746V30.3569H187.684V29.3569ZM184.871 29.4194H185.809V28.4194H184.871V29.4194ZM186.309 28.9194V27.9819H185.309V28.9194H186.309ZM186.309 27.9819V27.0444H185.309V27.9819H186.309ZM186.309 27.0444V26.1069H185.309V27.0444H186.309ZM186.309 26.1069V25.1694H185.309V26.1069H186.309ZM186.309 25.1694V24.2319H185.309V25.1694H186.309ZM185.809 23.7319H184.871V24.7319H185.809V23.7319ZM184.871 23.7319H183.934V24.7319H184.871V23.7319ZM183.434 24.2319V25.1694H184.434V24.2319H183.434ZM183.434 25.1694V26.1069H184.434V25.1694H183.434ZM183.434 26.1069V27.0444H184.434V26.1069H183.434ZM183.434 27.0444V27.9819H184.434V27.0444H183.434ZM183.434 27.9819V28.9194H184.434V27.9819H183.434ZM183.934 29.4194H184.871V28.4194H183.934V29.4194ZM189.559 29.8569H189.059V30.3569H189.559V29.8569ZM189.559 23.2944V22.7944H189.059V23.2944H189.559ZM192.371 23.2944H192.871V22.7944H192.371V23.2944ZM192.371 29.8569V30.3569H192.871V29.8569H192.371ZM189.559 22.3569H189.059V22.8569H189.559V22.3569ZM189.559 20.4819V19.9819H189.059V20.4819H189.559ZM192.371 20.4819H192.871V19.9819H192.371V20.4819ZM192.371 22.3569V22.8569H192.871V22.3569H192.371ZM191.434 29.3569H190.496V30.3569H191.434V29.3569ZM190.496 29.3569H189.559V30.3569H190.496V29.3569ZM190.059 29.8569V28.9194H189.059V29.8569H190.059ZM190.059 28.9194V27.9819H189.059V28.9194H190.059ZM190.059 27.9819V27.0444H189.059V27.9819H190.059ZM190.059 27.0444V26.1069H189.059V27.0444H190.059ZM190.059 26.1069V25.1694H189.059V26.1069H190.059ZM190.059 25.1694V24.2319H189.059V25.1694H190.059ZM190.059 24.2319V23.2944H189.059V24.2319H190.059ZM189.559 23.7944H190.496V22.7944H189.559V23.7944ZM190.496 23.7944H191.434V22.7944H190.496V23.7944ZM191.434 23.7944H192.371V22.7944H191.434V23.7944ZM191.871 23.2944V24.2319H192.871V23.2944H191.871ZM191.871 24.2319V25.1694H192.871V24.2319H191.871ZM191.871 25.1694V26.1069H192.871V25.1694H191.871ZM191.871 26.1069V27.0444H192.871V26.1069H191.871ZM191.871 27.0444V27.9819H192.871V27.0444H191.871ZM191.871 27.9819V28.9194H192.871V27.9819H191.871ZM191.871 28.9194V29.8569H192.871V28.9194H191.871ZM192.371 29.3569H191.434V30.3569H192.371V29.3569ZM191.434 21.8569H190.496V22.8569H191.434V21.8569ZM190.496 21.8569H189.559V22.8569H190.496V21.8569ZM190.059 22.3569V21.4194H189.059V22.3569H190.059ZM190.059 21.4194V20.4819H189.059V21.4194H190.059ZM189.559 20.9819H190.496V19.9819H189.559V20.9819ZM190.496 20.9819H191.434V19.9819H190.496V20.9819ZM191.434 20.9819H192.371V19.9819H191.434V20.9819ZM191.871 20.4819V21.4194H192.871V20.4819H191.871ZM191.871 21.4194V22.3569H192.871V21.4194H191.871ZM192.371 21.8569H191.434V22.8569H192.371V21.8569ZM197.996 29.8569H197.496V30.3569H197.996V29.8569ZM197.996 24.2319H198.496V23.7319H197.996V24.2319ZM196.121 24.2319V23.7319H195.621V24.2319H196.121ZM196.121 29.8569V30.3569H196.621V29.8569H196.121ZM193.309 29.8569H192.809V30.3569H193.309V29.8569ZM193.309 23.2944V22.7944H192.809V23.2944H193.309ZM199.871 23.2944H200.371V22.7944H199.871V23.2944ZM199.871 24.2319H199.371V24.7319H199.871V24.2319ZM200.809 24.2319H201.309V23.7319H200.809V24.2319ZM200.809 29.8569V30.3569H201.309V29.8569H200.809ZM199.871 29.3569H198.934V30.3569H199.871V29.3569ZM198.934 29.3569H197.996V30.3569H198.934V29.3569ZM198.496 29.8569V28.9194H197.496V29.8569H198.496ZM198.496 28.9194V27.9819H197.496V28.9194H198.496ZM198.496 27.9819V27.0444H197.496V27.9819H198.496ZM198.496 27.0444V26.1069H197.496V27.0444H198.496ZM198.496 26.1069V25.1694H197.496V26.1069H198.496ZM198.496 25.1694V24.2319H197.496V25.1694H198.496ZM197.996 23.7319H197.059V24.7319H197.996V23.7319ZM197.059 23.7319H196.121V24.7319H197.059V23.7319ZM195.621 24.2319V25.1694H196.621V24.2319H195.621ZM195.621 25.1694V26.1069H196.621V25.1694H195.621ZM195.621 26.1069V27.0444H196.621V26.1069H195.621ZM195.621 27.0444V27.9819H196.621V27.0444H195.621ZM195.621 27.9819V28.9194H196.621V27.9819H195.621ZM195.621 28.9194V29.8569H196.621V28.9194H195.621ZM196.121 29.3569H195.184V30.3569H196.121V29.3569ZM195.184 29.3569H194.246V30.3569H195.184V29.3569ZM194.246 29.3569H193.309V30.3569H194.246V29.3569ZM193.809 29.8569V28.9194H192.809V29.8569H193.809ZM193.809 28.9194V27.9819H192.809V28.9194H193.809ZM193.809 27.9819V27.0444H192.809V27.9819H193.809ZM193.809 27.0444V26.1069H192.809V27.0444H193.809ZM193.809 26.1069V25.1694H192.809V26.1069H193.809ZM193.809 25.1694V24.2319H192.809V25.1694H193.809ZM193.809 24.2319V23.2944H192.809V24.2319H193.809ZM193.309 23.7944H194.246V22.7944H193.309V23.7944ZM194.246 23.7944H195.184V22.7944H194.246V23.7944ZM195.184 23.7944H196.121V22.7944H195.184V23.7944ZM196.121 23.7944H197.059V22.7944H196.121V23.7944ZM197.059 23.7944H197.996V22.7944H197.059V23.7944ZM197.996 23.7944H198.934V22.7944H197.996V23.7944ZM198.934 23.7944H199.871V22.7944H198.934V23.7944ZM199.371 23.2944V24.2319H200.371V23.2944H199.371ZM199.871 24.7319H200.809V23.7319H199.871V24.7319ZM200.309 24.2319V25.1694H201.309V24.2319H200.309ZM200.309 25.1694V26.1069H201.309V25.1694H200.309ZM200.309 26.1069V27.0444H201.309V26.1069H200.309ZM200.309 27.0444V27.9819H201.309V27.0444H200.309ZM200.309 27.9819V28.9194H201.309V27.9819H200.309ZM200.309 28.9194V29.8569H201.309V28.9194H200.309ZM200.809 29.3569H199.871V30.3569H200.809V29.3569ZM202.684 29.8569H202.184V30.3569H202.684V29.8569ZM202.684 28.9194H203.184V28.4194H202.684V28.9194ZM201.746 28.9194H201.246V29.4194H201.746V28.9194ZM201.746 27.9819V27.4819H201.246V27.9819H201.746ZM204.559 27.9819H205.059V27.4819H204.559V27.9819ZM204.559 28.9194H204.059V29.4194H204.559V28.9194ZM206.434 28.9194V29.4194H206.934V28.9194H206.434ZM206.434 27.0444H206.934V26.5444H206.434V27.0444ZM202.684 27.0444H202.184V27.5444H202.684V27.0444ZM202.684 26.1069H203.184V25.6069H202.684V26.1069ZM201.746 26.1069H201.246V26.6069H201.746V26.1069ZM201.746 24.2319V23.7319H201.246V24.2319H201.746ZM202.684 24.2319V24.7319H203.184V24.2319H202.684ZM202.684 23.2944V22.7944H202.184V23.2944H202.684ZM208.309 23.2944H208.809V22.7944H208.309V23.2944ZM208.309 24.2319H207.809V24.7319H208.309V24.2319ZM209.246 24.2319H209.746V23.7319H209.246V24.2319ZM209.246 25.1694V25.6694H209.746V25.1694H209.246ZM206.434 25.1694H205.934V25.6694H206.434V25.1694ZM206.434 24.2319H206.934V23.7319H206.434V24.2319ZM204.559 24.2319V23.7319H204.059V24.2319H204.559ZM204.559 26.1069H204.059V26.6069H204.559V26.1069ZM208.309 26.1069H208.809V25.6069H208.309V26.1069ZM208.309 27.0444H207.809V27.5444H208.309V27.0444ZM209.246 27.0444H209.746V26.5444H209.246V27.0444ZM209.246 28.9194V29.4194H209.746V28.9194H209.246ZM208.309 28.9194V28.4194H207.809V28.9194H208.309ZM208.309 29.8569V30.3569H208.809V29.8569H208.309ZM207.371 29.3569H206.434V30.3569H207.371V29.3569ZM206.434 29.3569H205.496V30.3569H206.434V29.3569ZM205.496 29.3569H204.559V30.3569H205.496V29.3569ZM204.559 29.3569H203.621V30.3569H204.559V29.3569ZM203.621 29.3569H202.684V30.3569H203.621V29.3569ZM203.184 29.8569V28.9194H202.184V29.8569H203.184ZM202.684 28.4194H201.746V29.4194H202.684V28.4194ZM202.246 28.9194V27.9819H201.246V28.9194H202.246ZM201.746 28.4819H202.684V27.4819H201.746V28.4819ZM202.684 28.4819H203.621V27.4819H202.684V28.4819ZM203.621 28.4819H204.559V27.4819H203.621V28.4819ZM204.059 27.9819V28.9194H205.059V27.9819H204.059ZM204.559 29.4194H205.496V28.4194H204.559V29.4194ZM205.496 29.4194H206.434V28.4194H205.496V29.4194ZM206.934 28.9194V27.9819H205.934V28.9194H206.934ZM206.934 27.9819V27.0444H205.934V27.9819H206.934ZM206.434 26.5444H205.496V27.5444H206.434V26.5444ZM205.496 26.5444H204.559V27.5444H205.496V26.5444ZM204.559 26.5444H203.621V27.5444H204.559V26.5444ZM203.621 26.5444H202.684V27.5444H203.621V26.5444ZM203.184 27.0444V26.1069H202.184V27.0444H203.184ZM202.684 25.6069H201.746V26.6069H202.684V25.6069ZM202.246 26.1069V25.1694H201.246V26.1069H202.246ZM202.246 25.1694V24.2319H201.246V25.1694H202.246ZM201.746 24.7319H202.684V23.7319H201.746V24.7319ZM203.184 24.2319V23.2944H202.184V24.2319H203.184ZM202.684 23.7944H203.621V22.7944H202.684V23.7944ZM203.621 23.7944H204.559V22.7944H203.621V23.7944ZM204.559 23.7944H205.496V22.7944H204.559V23.7944ZM205.496 23.7944H206.434V22.7944H205.496V23.7944ZM206.434 23.7944H207.371V22.7944H206.434V23.7944ZM207.371 23.7944H208.309V22.7944H207.371V23.7944ZM207.809 23.2944V24.2319H208.809V23.2944H207.809ZM208.309 24.7319H209.246V23.7319H208.309V24.7319ZM208.746 24.2319V25.1694H209.746V24.2319H208.746ZM209.246 24.6694H208.309V25.6694H209.246V24.6694ZM208.309 24.6694H207.371V25.6694H208.309V24.6694ZM207.371 24.6694H206.434V25.6694H207.371V24.6694ZM206.934 25.1694V24.2319H205.934V25.1694H206.934ZM206.434 23.7319H205.496V24.7319H206.434V23.7319ZM205.496 23.7319H204.559V24.7319H205.496V23.7319ZM204.059 24.2319V25.1694H205.059V24.2319H204.059ZM204.059 25.1694V26.1069H205.059V25.1694H204.059ZM204.559 26.6069H205.496V25.6069H204.559V26.6069ZM205.496 26.6069H206.434V25.6069H205.496V26.6069ZM206.434 26.6069H207.371V25.6069H206.434V26.6069ZM207.371 26.6069H208.309V25.6069H207.371V26.6069ZM207.809 26.1069V27.0444H208.809V26.1069H207.809ZM208.309 27.5444H209.246V26.5444H208.309V27.5444ZM208.746 27.0444V27.9819H209.746V27.0444H208.746ZM208.746 27.9819V28.9194H209.746V27.9819H208.746ZM209.246 28.4194H208.309V29.4194H209.246V28.4194ZM207.809 28.9194V29.8569H208.809V28.9194H207.809ZM208.309 29.3569H207.371V30.3569H208.309V29.3569Z" fill="#543847" mask="url(#path-2-outside-1_105_6)"/>
<mask id="path-4-outside-2_105_6" maskUnits="userSpaceOnUse" x="160.829" y="62.2856" width="33" height="11" fill="black">
<rect fill="white" x="160.829" y="62.2856" width="33" height="11"/>
<path d="M167.454 72.2856H166.516H165.579H164.641H163.704H162.766H161.829V71.3481V70.4106V69.4731V68.5356V67.5981V66.6606V65.7231V64.7856V63.8481H162.766H163.704H164.641H165.579H166.516H167.454H168.391V64.7856H169.329V65.7231V66.6606V67.5981H168.391H167.454V68.5356H168.391H169.329V69.4731V70.4106V71.3481H168.391V72.2856H167.454ZM165.579 71.3481H166.516V70.4106V69.4731V68.5356H165.579H164.641V69.4731V70.4106V71.3481H165.579ZM165.579 67.5981H166.516V66.6606V65.7231V64.7856H165.579H164.641V65.7231V66.6606V67.5981H165.579ZM175.891 72.2856H174.954H174.016H173.079H172.141H171.204V71.3481H170.266V70.4106V69.4731V68.5356V67.5981V66.6606H171.204V65.7231H172.141H173.079H174.016H174.954H175.891H176.829V66.6606H177.766V67.5981V68.5356V69.4731H176.829H175.891H174.954H174.016H173.079V70.4106V71.3481H174.016H174.954V70.4106H175.891H176.829H177.766V71.3481H176.829V72.2856H175.891ZM174.016 68.5356H174.954V67.5981V66.6606H174.016H173.079V67.5981V68.5356H174.016ZM184.329 72.2856H183.391H182.454H181.516H180.579H179.641V71.3481H178.704V70.4106H179.641H180.579H181.516V71.3481H182.454H183.391V70.4106V69.4731H182.454H181.516H180.579H179.641V68.5356H178.704V67.5981V66.6606H179.641V65.7231H180.579H181.516H182.454H183.391H184.329H185.266V66.6606H186.204V67.5981H185.266H184.329H183.391V66.6606H182.454H181.516V67.5981V68.5356H182.454H183.391H184.329H185.266V69.4731H186.204V70.4106V71.3481H185.266V72.2856H184.329ZM191.829 72.2856H190.891H189.954V71.3481H189.016V70.4106H188.079V69.4731V68.5356V67.5981V66.6606H187.141V65.7231H188.079V64.7856V63.8481V62.9106H189.016H189.954H190.891V63.8481V64.7856V65.7231H191.829H192.766V66.6606H191.829H190.891V67.5981V68.5356V69.4731V70.4106H191.829V71.3481H192.766V72.2856H191.829Z"/>
</mask>
<path d="M167.454 72.2856H166.516H165.579H164.641H163.704H162.766H161.829V71.3481V70.4106V69.4731V68.5356V67.5981V66.6606V65.7231V64.7856V63.8481H162.766H163.704H164.641H165.579H166.516H167.454H168.391V64.7856H169.329V65.7231V66.6606V67.5981H168.391H167.454V68.5356H168.391H169.329V69.4731V70.4106V71.3481H168.391V72.2856H167.454ZM165.579 71.3481H166.516V70.4106V69.4731V68.5356H165.579H164.641V69.4731V70.4106V71.3481H165.579ZM165.579 67.5981H166.516V66.6606V65.7231V64.7856H165.579H164.641V65.7231V66.6606V67.5981H165.579ZM175.891 72.2856H174.954H174.016H173.079H172.141H171.204V71.3481H170.266V70.4106V69.4731V68.5356V67.5981V66.6606H171.204V65.7231H172.141H173.079H174.016H174.954H175.891H176.829V66.6606H177.766V67.5981V68.5356V69.4731H176.829H175.891H174.954H174.016H173.079V70.4106V71.3481H174.016H174.954V70.4106H175.891H176.829H177.766V71.3481H176.829V72.2856H175.891ZM174.016 68.5356H174.954V67.5981V66.6606H174.016H173.079V67.5981V68.5356H174.016ZM184.329 72.2856H183.391H182.454H181.516H180.579H179.641V71.3481H178.704V70.4106H179.641H180.579H181.516V71.3481H182.454H183.391V70.4106V69.4731H182.454H181.516H180.579H179.641V68.5356H178.704V67.5981V66.6606H179.641V65.7231H180.579H181.516H182.454H183.391H184.329H185.266V66.6606H186.204V67.5981H185.266H184.329H183.391V66.6606H182.454H181.516V67.5981V68.5356H182.454H183.391H184.329H185.266V69.4731H186.204V70.4106V71.3481H185.266V72.2856H184.329ZM191.829 72.2856H190.891H189.954V71.3481H189.016V70.4106H188.079V69.4731V68.5356V67.5981V66.6606H187.141V65.7231H188.079V64.7856V63.8481V62.9106H189.016H189.954H190.891V63.8481V64.7856V65.7231H191.829H192.766V66.6606H191.829H190.891V67.5981V68.5356V69.4731V70.4106H191.829V71.3481H192.766V72.2856H191.829Z" fill="#F87E61"/>
<path d="M161.829 72.2856H161.329V72.7856H161.829V72.2856ZM161.829 63.8481V63.3481H161.329V63.8481H161.829ZM168.391 63.8481H168.891V63.3481H168.391V63.8481ZM168.391 64.7856H167.891V65.2856H168.391V64.7856ZM169.329 64.7856H169.829V64.2856H169.329V64.7856ZM169.329 67.5981V68.0981H169.829V67.5981H169.329ZM167.454 67.5981V67.0981H166.954V67.5981H167.454ZM167.454 68.5356H166.954V69.0356H167.454V68.5356ZM169.329 68.5356H169.829V68.0356H169.329V68.5356ZM169.329 71.3481V71.8481H169.829V71.3481H169.329ZM168.391 71.3481V70.8481H167.891V71.3481H168.391ZM168.391 72.2856V72.7856H168.891V72.2856H168.391ZM166.516 71.3481V71.8481H167.016V71.3481H166.516ZM166.516 68.5356H167.016V68.0356H166.516V68.5356ZM164.641 68.5356V68.0356H164.141V68.5356H164.641ZM164.641 71.3481H164.141V71.8481H164.641V71.3481ZM166.516 67.5981V68.0981H167.016V67.5981H166.516ZM166.516 64.7856H167.016V64.2856H166.516V64.7856ZM164.641 64.7856V64.2856H164.141V64.7856H164.641ZM164.641 67.5981H164.141V68.0981H164.641V67.5981ZM167.454 71.7856H166.516V72.7856H167.454V71.7856ZM166.516 71.7856H165.579V72.7856H166.516V71.7856ZM165.579 71.7856H164.641V72.7856H165.579V71.7856ZM164.641 71.7856H163.704V72.7856H164.641V71.7856ZM163.704 71.7856H162.766V72.7856H163.704V71.7856ZM162.766 71.7856H161.829V72.7856H162.766V71.7856ZM162.329 72.2856V71.3481H161.329V72.2856H162.329ZM162.329 71.3481V70.4106H161.329V71.3481H162.329ZM162.329 70.4106V69.4731H161.329V70.4106H162.329ZM162.329 69.4731V68.5356H161.329V69.4731H162.329ZM162.329 68.5356V67.5981H161.329V68.5356H162.329ZM162.329 67.5981V66.6606H161.329V67.5981H162.329ZM162.329 66.6606V65.7231H161.329V66.6606H162.329ZM162.329 65.7231V64.7856H161.329V65.7231H162.329ZM162.329 64.7856V63.8481H161.329V64.7856H162.329ZM161.829 64.3481H162.766V63.3481H161.829V64.3481ZM162.766 64.3481H163.704V63.3481H162.766V64.3481ZM163.704 64.3481H164.641V63.3481H163.704V64.3481ZM164.641 64.3481H165.579V63.3481H164.641V64.3481ZM165.579 64.3481H166.516V63.3481H165.579V64.3481ZM166.516 64.3481H167.454V63.3481H166.516V64.3481ZM167.454 64.3481H168.391V63.3481H167.454V64.3481ZM167.891 63.8481V64.7856H168.891V63.8481H167.891ZM168.391 65.2856H169.329V64.2856H168.391V65.2856ZM168.829 64.7856V65.7231H169.829V64.7856H168.829ZM168.829 65.7231V66.6606H169.829V65.7231H168.829ZM168.829 66.6606V67.5981H169.829V66.6606H168.829ZM169.329 67.0981H168.391V68.0981H169.329V67.0981ZM168.391 67.0981H167.454V68.0981H168.391V67.0981ZM166.954 67.5981V68.5356H167.954V67.5981H166.954ZM167.454 69.0356H168.391V68.0356H167.454V69.0356ZM168.391 69.0356H169.329V68.0356H168.391V69.0356ZM168.829 68.5356V69.4731H169.829V68.5356H168.829ZM168.829 69.4731V70.4106H169.829V69.4731H168.829ZM168.829 70.4106V71.3481H169.829V70.4106H168.829ZM169.329 70.8481H168.391V71.8481H169.329V70.8481ZM167.891 71.3481V72.2856H168.891V71.3481H167.891ZM168.391 71.7856H167.454V72.7856H168.391V71.7856ZM165.579 71.8481H166.516V70.8481H165.579V71.8481ZM167.016 71.3481V70.4106H166.016V71.3481H167.016ZM167.016 70.4106V69.4731H166.016V70.4106H167.016ZM167.016 69.4731V68.5356H166.016V69.4731H167.016ZM166.516 68.0356H165.579V69.0356H166.516V68.0356ZM165.579 68.0356H164.641V69.0356H165.579V68.0356ZM164.141 68.5356V69.4731H165.141V68.5356H164.141ZM164.141 69.4731V70.4106H165.141V69.4731H164.141ZM164.141 70.4106V71.3481H165.141V70.4106H164.141ZM164.641 71.8481H165.579V70.8481H164.641V71.8481ZM165.579 68.0981H166.516V67.0981H165.579V68.0981ZM167.016 67.5981V66.6606H166.016V67.5981H167.016ZM167.016 66.6606V65.7231H166.016V66.6606H167.016ZM167.016 65.7231V64.7856H166.016V65.7231H167.016ZM166.516 64.2856H165.579V65.2856H166.516V64.2856ZM165.579 64.2856H164.641V65.2856H165.579V64.2856ZM164.141 64.7856V65.7231H165.141V64.7856H164.141ZM164.141 65.7231V66.6606H165.141V65.7231H164.141ZM164.141 66.6606V67.5981H165.141V66.6606H164.141ZM164.641 68.0981H165.579V67.0981H164.641V68.0981ZM171.204 72.2856H170.704V72.7856H171.204V72.2856ZM171.204 71.3481H171.704V70.8481H171.204V71.3481ZM170.266 71.3481H169.766V71.8481H170.266V71.3481ZM170.266 66.6606V66.1606H169.766V66.6606H170.266ZM171.204 66.6606V67.1606H171.704V66.6606H171.204ZM171.204 65.7231V65.2231H170.704V65.7231H171.204ZM176.829 65.7231H177.329V65.2231H176.829V65.7231ZM176.829 66.6606H176.329V67.1606H176.829V66.6606ZM177.766 66.6606H178.266V66.1606H177.766V66.6606ZM177.766 69.4731V69.9731H178.266V69.4731H177.766ZM173.079 69.4731V68.9731H172.579V69.4731H173.079ZM173.079 71.3481H172.579V71.8481H173.079V71.3481ZM174.954 71.3481V71.8481H175.454V71.3481H174.954ZM174.954 70.4106V69.9106H174.454V70.4106H174.954ZM177.766 70.4106H178.266V69.9106H177.766V70.4106ZM177.766 71.3481V71.8481H178.266V71.3481H177.766ZM176.829 71.3481V70.8481H176.329V71.3481H176.829ZM176.829 72.2856V72.7856H177.329V72.2856H176.829ZM174.954 68.5356V69.0356H175.454V68.5356H174.954ZM174.954 66.6606H175.454V66.1606H174.954V66.6606ZM173.079 66.6606V66.1606H172.579V66.6606H173.079ZM173.079 68.5356H172.579V69.0356H173.079V68.5356ZM175.891 71.7856H174.954V72.7856H175.891V71.7856ZM174.954 71.7856H174.016V72.7856H174.954V71.7856ZM174.016 71.7856H173.079V72.7856H174.016V71.7856ZM173.079 71.7856H172.141V72.7856H173.079V71.7856ZM172.141 71.7856H171.204V72.7856H172.141V71.7856ZM171.704 72.2856V71.3481H170.704V72.2856H171.704ZM171.204 70.8481H170.266V71.8481H171.204V70.8481ZM170.766 71.3481V70.4106H169.766V71.3481H170.766ZM170.766 70.4106V69.4731H169.766V70.4106H170.766ZM170.766 69.4731V68.5356H169.766V69.4731H170.766ZM170.766 68.5356V67.5981H169.766V68.5356H170.766ZM170.766 67.5981V66.6606H169.766V67.5981H170.766ZM170.266 67.1606H171.204V66.1606H170.266V67.1606ZM171.704 66.6606V65.7231H170.704V66.6606H171.704ZM171.204 66.2231H172.141V65.2231H171.204V66.2231ZM172.141 66.2231H173.079V65.2231H172.141V66.2231ZM173.079 66.2231H174.016V65.2231H173.079V66.2231ZM174.016 66.2231H174.954V65.2231H174.016V66.2231ZM174.954 66.2231H175.891V65.2231H174.954V66.2231ZM175.891 66.2231H176.829V65.2231H175.891V66.2231ZM176.329 65.7231V66.6606H177.329V65.7231H176.329ZM176.829 67.1606H177.766V66.1606H176.829V67.1606ZM177.266 66.6606V67.5981H178.266V66.6606H177.266ZM177.266 67.5981V68.5356H178.266V67.5981H177.266ZM177.266 68.5356V69.4731H178.266V68.5356H177.266ZM177.766 68.9731H176.829V69.9731H177.766V68.9731ZM176.829 68.9731H175.891V69.9731H176.829V68.9731ZM175.891 68.9731H174.954V69.9731H175.891V68.9731ZM174.954 68.9731H174.016V69.9731H174.954V68.9731ZM174.016 68.9731H173.079V69.9731H174.016V68.9731ZM172.579 69.4731V70.4106H173.579V69.4731H172.579ZM172.579 70.4106V71.3481H173.579V70.4106H172.579ZM173.079 71.8481H174.016V70.8481H173.079V71.8481ZM174.016 71.8481H174.954V70.8481H174.016V71.8481ZM175.454 71.3481V70.4106H174.454V71.3481H175.454ZM174.954 70.9106H175.891V69.9106H174.954V70.9106ZM175.891 70.9106H176.829V69.9106H175.891V70.9106ZM176.829 70.9106H177.766V69.9106H176.829V70.9106ZM177.266 70.4106V71.3481H178.266V70.4106H177.266ZM177.766 70.8481H176.829V71.8481H177.766V70.8481ZM176.329 71.3481V72.2856H177.329V71.3481H176.329ZM176.829 71.7856H175.891V72.7856H176.829V71.7856ZM174.016 69.0356H174.954V68.0356H174.016V69.0356ZM175.454 68.5356V67.5981H174.454V68.5356H175.454ZM175.454 67.5981V66.6606H174.454V67.5981H175.454ZM174.954 66.1606H174.016V67.1606H174.954V66.1606ZM174.016 66.1606H173.079V67.1606H174.016V66.1606ZM172.579 66.6606V67.5981H173.579V66.6606H172.579ZM172.579 67.5981V68.5356H173.579V67.5981H172.579ZM173.079 69.0356H174.016V68.0356H173.079V69.0356ZM179.641 72.2856H179.141V72.7856H179.641V72.2856ZM179.641 71.3481H180.141V70.8481H179.641V71.3481ZM178.704 71.3481H178.204V71.8481H178.704V71.3481ZM178.704 70.4106V69.9106H178.204V70.4106H178.704ZM181.516 70.4106H182.016V69.9106H181.516V70.4106ZM181.516 71.3481H181.016V71.8481H181.516V71.3481ZM183.391 71.3481V71.8481H183.891V71.3481H183.391ZM183.391 69.4731H183.891V68.9731H183.391V69.4731ZM179.641 69.4731H179.141V69.9731H179.641V69.4731ZM179.641 68.5356H180.141V68.0356H179.641V68.5356ZM178.704 68.5356H178.204V69.0356H178.704V68.5356ZM178.704 66.6606V66.1606H178.204V66.6606H178.704ZM179.641 66.6606V67.1606H180.141V66.6606H179.641ZM179.641 65.7231V65.2231H179.141V65.7231H179.641ZM185.266 65.7231H185.766V65.2231H185.266V65.7231ZM185.266 66.6606H184.766V67.1606H185.266V66.6606ZM186.204 66.6606H186.704V66.1606H186.204V66.6606ZM186.204 67.5981V68.0981H186.704V67.5981H186.204ZM183.391 67.5981H182.891V68.0981H183.391V67.5981ZM183.391 66.6606H183.891V66.1606H183.391V66.6606ZM181.516 66.6606V66.1606H181.016V66.6606H181.516ZM181.516 68.5356H181.016V69.0356H181.516V68.5356ZM185.266 68.5356H185.766V68.0356H185.266V68.5356ZM185.266 69.4731H184.766V69.9731H185.266V69.4731ZM186.204 69.4731H186.704V68.9731H186.204V69.4731ZM186.204 71.3481V71.8481H186.704V71.3481H186.204ZM185.266 71.3481V70.8481H184.766V71.3481H185.266ZM185.266 72.2856V72.7856H185.766V72.2856H185.266ZM184.329 71.7856H183.391V72.7856H184.329V71.7856ZM183.391 71.7856H182.454V72.7856H183.391V71.7856ZM182.454 71.7856H181.516V72.7856H182.454V71.7856ZM181.516 71.7856H180.579V72.7856H181.516V71.7856ZM180.579 71.7856H179.641V72.7856H180.579V71.7856ZM180.141 72.2856V71.3481H179.141V72.2856H180.141ZM179.641 70.8481H178.704V71.8481H179.641V70.8481ZM179.204 71.3481V70.4106H178.204V71.3481H179.204ZM178.704 70.9106H179.641V69.9106H178.704V70.9106ZM179.641 70.9106H180.579V69.9106H179.641V70.9106ZM180.579 70.9106H181.516V69.9106H180.579V70.9106ZM181.016 70.4106V71.3481H182.016V70.4106H181.016ZM181.516 71.8481H182.454V70.8481H181.516V71.8481ZM182.454 71.8481H183.391V70.8481H182.454V71.8481ZM183.891 71.3481V70.4106H182.891V71.3481H183.891ZM183.891 70.4106V69.4731H182.891V70.4106H183.891ZM183.391 68.9731H182.454V69.9731H183.391V68.9731ZM182.454 68.9731H181.516V69.9731H182.454V68.9731ZM181.516 68.9731H180.579V69.9731H181.516V68.9731ZM180.579 68.9731H179.641V69.9731H180.579V68.9731ZM180.141 69.4731V68.5356H179.141V69.4731H180.141ZM179.641 68.0356H178.704V69.0356H179.641V68.0356ZM179.204 68.5356V67.5981H178.204V68.5356H179.204ZM179.204 67.5981V66.6606H178.204V67.5981H179.204ZM178.704 67.1606H179.641V66.1606H178.704V67.1606ZM180.141 66.6606V65.7231H179.141V66.6606H180.141ZM179.641 66.2231H180.579V65.2231H179.641V66.2231ZM180.579 66.2231H181.516V65.2231H180.579V66.2231ZM181.516 66.2231H182.454V65.2231H181.516V66.2231ZM182.454 66.2231H183.391V65.2231H182.454V66.2231ZM183.391 66.2231H184.329V65.2231H183.391V66.2231ZM184.329 66.2231H185.266V65.2231H184.329V66.2231ZM184.766 65.7231V66.6606H185.766V65.7231H184.766ZM185.266 67.1606H186.204V66.1606H185.266V67.1606ZM185.704 66.6606V67.5981H186.704V66.6606H185.704ZM186.204 67.0981H185.266V68.0981H186.204V67.0981ZM185.266 67.0981H184.329V68.0981H185.266V67.0981ZM184.329 67.0981H183.391V68.0981H184.329V67.0981ZM183.891 67.5981V66.6606H182.891V67.5981H183.891ZM183.391 66.1606H182.454V67.1606H183.391V66.1606ZM182.454 66.1606H181.516V67.1606H182.454V66.1606ZM181.016 66.6606V67.5981H182.016V66.6606H181.016ZM181.016 67.5981V68.5356H182.016V67.5981H181.016ZM181.516 69.0356H182.454V68.0356H181.516V69.0356ZM182.454 69.0356H183.391V68.0356H182.454V69.0356ZM183.391 69.0356H184.329V68.0356H183.391V69.0356ZM184.329 69.0356H185.266V68.0356H184.329V69.0356ZM184.766 68.5356V69.4731H185.766V68.5356H184.766ZM185.266 69.9731H186.204V68.9731H185.266V69.9731ZM185.704 69.4731V70.4106H186.704V69.4731H185.704ZM185.704 70.4106V71.3481H186.704V70.4106H185.704ZM186.204 70.8481H185.266V71.8481H186.204V70.8481ZM184.766 71.3481V72.2856H185.766V71.3481H184.766ZM185.266 71.7856H184.329V72.7856H185.266V71.7856ZM189.954 72.2856H189.454V72.7856H189.954V72.2856ZM189.954 71.3481H190.454V70.8481H189.954V71.3481ZM189.016 71.3481H188.516V71.8481H189.016V71.3481ZM189.016 70.4106H189.516V69.9106H189.016V70.4106ZM188.079 70.4106H187.579V70.9106H188.079V70.4106ZM188.079 66.6606H188.579V66.1606H188.079V66.6606ZM187.141 66.6606H186.641V67.1606H187.141V66.6606ZM187.141 65.7231V65.2231H186.641V65.7231H187.141ZM188.079 65.7231V66.2231H188.579V65.7231H188.079ZM188.079 62.9106V62.4106H187.579V62.9106H188.079ZM190.891 62.9106H191.391V62.4106H190.891V62.9106ZM190.891 65.7231H190.391V66.2231H190.891V65.7231ZM192.766 65.7231H193.266V65.2231H192.766V65.7231ZM192.766 66.6606V67.1606H193.266V66.6606H192.766ZM190.891 66.6606V66.1606H190.391V66.6606H190.891ZM190.891 70.4106H190.391V70.9106H190.891V70.4106ZM191.829 70.4106H192.329V69.9106H191.829V70.4106ZM191.829 71.3481H191.329V71.8481H191.829V71.3481ZM192.766 71.3481H193.266V70.8481H192.766V71.3481ZM192.766 72.2856V72.7856H193.266V72.2856H192.766ZM191.829 71.7856H190.891V72.7856H191.829V71.7856ZM190.891 71.7856H189.954V72.7856H190.891V71.7856ZM190.454 72.2856V71.3481H189.454V72.2856H190.454ZM189.954 70.8481H189.016V71.8481H189.954V70.8481ZM189.516 71.3481V70.4106H188.516V71.3481H189.516ZM189.016 69.9106H188.079V70.9106H189.016V69.9106ZM188.579 70.4106V69.4731H187.579V70.4106H188.579ZM188.579 69.4731V68.5356H187.579V69.4731H188.579ZM188.579 68.5356V67.5981H187.579V68.5356H188.579ZM188.579 67.5981V66.6606H187.579V67.5981H188.579ZM188.079 66.1606H187.141V67.1606H188.079V66.1606ZM187.641 66.6606V65.7231H186.641V66.6606H187.641ZM187.141 66.2231H188.079V65.2231H187.141V66.2231ZM188.579 65.7231V64.7856H187.579V65.7231H188.579ZM188.579 64.7856V63.8481H187.579V64.7856H188.579ZM188.579 63.8481V62.9106H187.579V63.8481H188.579ZM188.079 63.4106H189.016V62.4106H188.079V63.4106ZM189.016 63.4106H189.954V62.4106H189.016V63.4106ZM189.954 63.4106H190.891V62.4106H189.954V63.4106ZM190.391 62.9106V63.8481H191.391V62.9106H190.391ZM190.391 63.8481V64.7856H191.391V63.8481H190.391ZM190.391 64.7856V65.7231H191.391V64.7856H190.391ZM190.891 66.2231H191.829V65.2231H190.891V66.2231ZM191.829 66.2231H192.766V65.2231H191.829V66.2231ZM192.266 65.7231V66.6606H193.266V65.7231H192.266ZM192.766 66.1606H191.829V67.1606H192.766V66.1606ZM191.829 66.1606H190.891V67.1606H191.829V66.1606ZM190.391 66.6606V67.5981H191.391V66.6606H190.391ZM190.391 67.5981V68.5356H191.391V67.5981H190.391ZM190.391 68.5356V69.4731H191.391V68.5356H190.391ZM190.391 69.4731V70.4106H191.391V69.4731H190.391ZM190.891 70.9106H191.829V69.9106H190.891V70.9106ZM191.329 70.4106V71.3481H192.329V70.4106H191.329ZM191.829 71.8481H192.766V70.8481H191.829V71.8481ZM192.266 71.3481V72.2856H193.266V71.3481H192.266ZM192.766 71.7856H191.829V72.7856H192.766V71.7856Z" fill="#543847" mask="url(#path-4-outside-2_105_6)"/>
<mask id="path-6-outside-3_105_6" maskUnits="userSpaceOnUse" x="19.2286" y="19.8569" width="72" height="11" fill="black">
<rect fill="white" x="19.2286" y="19.8569" width="72" height="11"/>
<path d="M22.1036 29.8569H21.1661H20.2286V28.9194V27.9819V27.0444V26.1069V25.1694V24.2319V23.2944V22.3569V21.4194H21.1661H22.1036H23.0411H23.9786H24.9161H25.8536H26.7911V22.3569H27.7286V23.2944V24.2319V25.1694H26.7911H25.8536H24.9161V24.2319V23.2944V22.3569H23.9786H23.0411V23.2944V24.2319V25.1694H23.9786H24.9161V26.1069H23.9786H23.0411V27.0444V27.9819V28.9194V29.8569H22.1036ZM30.5411 29.8569H29.6036H28.6661V28.9194V27.9819V27.0444V26.1069V25.1694V24.2319V23.2944H29.6036H30.5411H31.4786H32.4161H33.3536H34.2911H35.2286V24.2319H36.1661V25.1694H35.2286H34.2911H33.3536V24.2319H32.4161H31.4786V25.1694V26.1069V27.0444V27.9819V28.9194V29.8569H30.5411ZM42.7286 29.8569H41.7911H40.8536H39.9161H38.9786H38.0411V28.9194H37.1036V27.9819V27.0444V26.1069V25.1694V24.2319H38.0411V23.2944H38.9786H39.9161H40.8536H41.7911H42.7286H43.6661V24.2319H44.6036V25.1694V26.1069V27.0444V27.9819V28.9194H43.6661V29.8569H42.7286ZM40.8536 28.9194H41.7911V27.9819V27.0444V26.1069V25.1694V24.2319H40.8536H39.9161V25.1694V26.1069V27.0444V27.9819V28.9194H40.8536ZM55.8536 29.8569H54.9161H53.9786V28.9194V27.9819V27.0444V26.1069V25.1694V24.2319H53.0411V25.1694V26.1069V27.0444V27.9819V28.9194V29.8569H52.1036H51.1661H50.2286H49.2911V28.9194V27.9819V27.0444V26.1069V25.1694V24.2319H48.3536V25.1694V26.1069V27.0444V27.9819V28.9194V29.8569H47.4161H46.4786H45.5411V28.9194V27.9819V27.0444V26.1069V25.1694V24.2319V23.2944H46.4786H47.4161H48.3536H49.2911H50.2286V24.2319H51.1661V23.2944H52.1036H53.0411H53.9786H54.9161H55.8536V24.2319H56.7911V25.1694V26.1069V27.0444V27.9819V28.9194V29.8569H55.8536ZM63.3536 29.8569H62.4161H61.4786H60.5411H59.6036H58.6661V28.9194H57.7286V27.9819V27.0444V26.1069V25.1694V24.2319H58.6661V23.2944H59.6036H60.5411H61.4786H62.4161H63.3536H64.2911V24.2319H65.2286V25.1694V26.1069V27.0444V27.9819V28.9194H64.2911V29.8569H63.3536ZM61.4786 28.9194H62.4161V27.9819V27.0444V26.1069V25.1694V24.2319H61.4786H60.5411V25.1694V26.1069V27.0444V27.9819V28.9194H61.4786ZM71.7911 29.8569H70.8536H69.9161H68.9786H68.0411H67.1036V28.9194H66.1661V27.9819V27.0444V26.1069V25.1694V24.2319H67.1036V23.2944H68.0411H68.9786H69.9161H70.8536H71.7911H72.7286V24.2319H73.6661V25.1694H72.7286H71.7911H70.8536V24.2319H69.9161H68.9786V25.1694V26.1069V27.0444V27.9819V28.9194H69.9161H70.8536V27.9819H71.7911H72.7286H73.6661V28.9194H72.7286V29.8569H71.7911ZM80.2286 29.8569H79.2911H78.3536H77.4161H76.4786H75.5411V28.9194H74.6036V27.9819V27.0444V26.1069V25.1694V24.2319H75.5411V23.2944H76.4786H77.4161H78.3536H79.2911H80.2286H81.1661V24.2319H82.1036V25.1694V26.1069V27.0444V27.9819V28.9194H81.1661V29.8569H80.2286ZM78.3536 28.9194H79.2911V27.9819V27.0444V26.1069V25.1694V24.2319H78.3536H77.4161V25.1694V26.1069V27.0444V27.9819V28.9194H78.3536ZM89.6036 29.8569H88.6661H87.7286H86.7911H85.8536H84.9161H83.9786V28.9194H83.0411V27.9819V27.0444V26.1069V25.1694V24.2319H83.9786V23.2944H84.9161H85.8536H86.7911H87.7286V22.3569V21.4194V20.4819H88.6661H89.6036H90.5411V21.4194V22.3569V23.2944V24.2319V25.1694V26.1069V27.0444V27.9819V28.9194V29.8569H89.6036ZM86.7911 28.9194H87.7286V27.9819V27.0444V26.1069V25.1694V24.2319H86.7911H85.8536V25.1694V26.1069V27.0444V27.9819V28.9194H86.7911Z"/>
</mask>
<path d="M22.1036 29.8569H21.1661H20.2286V28.9194V27.9819V27.0444V26.1069V25.1694V24.2319V23.2944V22.3569V21.4194H21.1661H22.1036H23.0411H23.9786H24.9161H25.8536H26.7911V22.3569H27.7286V23.2944V24.2319V25.1694H26.7911H25.8536H24.9161V24.2319V23.2944V22.3569H23.9786H23.0411V23.2944V24.2319V25.1694H23.9786H24.9161V26.1069H23.9786H23.0411V27.0444V27.9819V28.9194V29.8569H22.1036ZM30.5411 29.8569H29.6036H28.6661V28.9194V27.9819V27.0444V26.1069V25.1694V24.2319V23.2944H29.6036H30.5411H31.4786H32.4161H33.3536H34.2911H35.2286V24.2319H36.1661V25.1694H35.2286H34.2911H33.3536V24.2319H32.4161H31.4786V25.1694V26.1069V27.0444V27.9819V28.9194V29.8569H30.5411ZM42.7286 29.8569H41.7911H40.8536H39.9161H38.9786H38.0411V28.9194H37.1036V27.9819V27.0444V26.1069V25.1694V24.2319H38.0411V23.2944H38.9786H39.9161H40.8536H41.7911H42.7286H43.6661V24.2319H44.6036V25.1694V26.1069V27.0444V27.9819V28.9194H43.6661V29.8569H42.7286ZM40.8536 28.9194H41.7911V27.9819V27.0444V26.1069V25.1694V24.2319H40.8536H39.9161V25.1694V26.1069V27.0444V27.9819V28.9194H40.8536ZM55.8536 29.8569H54.9161H53.9786V28.9194V27.9819V27.0444V26.1069V25.1694V24.2319H53.0411V25.1694V26.1069V27.0444V27.9819V28.9194V29.8569H52.1036H51.1661H50.2286H49.2911V28.9194V27.9819V27.0444V26.1069V25.1694V24.2319H48.3536V25.1694V26.1069V27.0444V27.9819V28.9194V29.8569H47.4161H46.4786H45.5411V28.9194V27.9819V27.0444V26.1069V25.1694V24.2319V23.2944H46.4786H47.4161H48.3536H49.2911H50.2286V24.2319H51.1661V23.2944H52.1036H53.0411H53.9786H54.9161H55.8536V24.2319H56.7911V25.1694V26.1069V27.0444V27.9819V28.9194V29.8569H55.8536ZM63.3536 29.8569H62.4161H61.4786H60.5411H59.6036H58.6661V28.9194H57.7286V27.9819V27.0444V26.1069V25.1694V24.2319H58.6661V23.2944H59.6036H60.5411H61.4786H62.4161H63.3536H64.2911V24.2319H65.2286V25.1694V26.1069V27.0444V27.9819V28.9194H64.2911V29.8569H63.3536ZM61.4786 28.9194H62.4161V27.9819V27.0444V26.1069V25.1694V24.2319H61.4786H60.5411V25.1694V26.1069V27.0444V27.9819V28.9194H61.4786ZM71.7911 29.8569H70.8536H69.9161H68.9786H68.0411H67.1036V28.9194H66.1661V27.9819V27.0444V26.1069V25.1694V24.2319H67.1036V23.2944H68.0411H68.9786H69.9161H70.8536H71.7911H72.7286V24.2319H73.6661V25.1694H72.7286H71.7911H70.8536V24.2319H69.9161H68.9786V25.1694V26.1069V27.0444V27.9819V28.9194H69.9161H70.8536V27.9819H71.7911H72.7286H73.6661V28.9194H72.7286V29.8569H71.7911ZM80.2286 29.8569H79.2911H78.3536H77.4161H76.4786H75.5411V28.9194H74.6036V27.9819V27.0444V26.1069V25.1694V24.2319H75.5411V23.2944H76.4786H77.4161H78.3536H79.2911H80.2286H81.1661V24.2319H82.1036V25.1694V26.1069V27.0444V27.9819V28.9194H81.1661V29.8569H80.2286ZM78.3536 28.9194H79.2911V27.9819V27.0444V26.1069V25.1694V24.2319H78.3536H77.4161V25.1694V26.1069V27.0444V27.9819V28.9194H78.3536ZM89.6036 29.8569H88.6661H87.7286H86.7911H85.8536H84.9161H83.9786V28.9194H83.0411V27.9819V27.0444V26.1069V25.1694V24.2319H83.9786V23.2944H84.9161H85.8536H86.7911H87.7286V22.3569V21.4194V20.4819H88.6661H89.6036H90.5411V21.4194V22.3569V23.2944V24.2319V25.1694V26.1069V27.0444V27.9819V28.9194V29.8569H89.6036ZM86.7911 28.9194H87.7286V27.9819V27.0444V26.1069V25.1694V24.2319H86.7911H85.8536V25.1694V26.1069V27.0444V27.9819V28.9194H86.7911Z" fill="#F87E61"/>
<path d="M20.2286 29.8569H19.7286V30.3569H20.2286V29.8569ZM20.2286 21.4194V20.9194H19.7286V21.4194H20.2286ZM26.7911 21.4194H27.2911V20.9194H26.7911V21.4194ZM26.7911 22.3569H26.2911V22.8569H26.7911V22.3569ZM27.7286 22.3569H28.2286V21.8569H27.7286V22.3569ZM27.7286 25.1694V25.6694H28.2286V25.1694H27.7286ZM24.9161 25.1694H24.4161V25.6694H24.9161V25.1694ZM24.9161 22.3569H25.4161V21.8569H24.9161V22.3569ZM23.0411 22.3569V21.8569H22.5411V22.3569H23.0411ZM23.0411 25.1694H22.5411V25.6694H23.0411V25.1694ZM24.9161 25.1694H25.4161V24.6694H24.9161V25.1694ZM24.9161 26.1069V26.6069H25.4161V26.1069H24.9161ZM23.0411 26.1069V25.6069H22.5411V26.1069H23.0411ZM23.0411 29.8569V30.3569H23.5411V29.8569H23.0411ZM22.1036 29.3569H21.1661V30.3569H22.1036V29.3569ZM21.1661 29.3569H20.2286V30.3569H21.1661V29.3569ZM20.7286 29.8569V28.9194H19.7286V29.8569H20.7286ZM20.7286 28.9194V27.9819H19.7286V28.9194H20.7286ZM20.7286 27.9819V27.0444H19.7286V27.9819H20.7286ZM20.7286 27.0444V26.1069H19.7286V27.0444H20.7286ZM20.7286 26.1069V25.1694H19.7286V26.1069H20.7286ZM20.7286 25.1694V24.2319H19.7286V25.1694H20.7286ZM20.7286 24.2319V23.2944H19.7286V24.2319H20.7286ZM20.7286 23.2944V22.3569H19.7286V23.2944H20.7286ZM20.7286 22.3569V21.4194H19.7286V22.3569H20.7286ZM20.2286 21.9194H21.1661V20.9194H20.2286V21.9194ZM21.1661 21.9194H22.1036V20.9194H21.1661V21.9194ZM22.1036 21.9194H23.0411V20.9194H22.1036V21.9194ZM23.0411 21.9194H23.9786V20.9194H23.0411V21.9194ZM23.9786 21.9194H24.9161V20.9194H23.9786V21.9194ZM24.9161 21.9194H25.8536V20.9194H24.9161V21.9194ZM25.8536 21.9194H26.7911V20.9194H25.8536V21.9194ZM26.2911 21.4194V22.3569H27.2911V21.4194H26.2911ZM26.7911 22.8569H27.7286V21.8569H26.7911V22.8569ZM27.2286 22.3569V23.2944H28.2286V22.3569H27.2286ZM27.2286 23.2944V24.2319H28.2286V23.2944H27.2286ZM27.2286 24.2319V25.1694H28.2286V24.2319H27.2286ZM27.7286 24.6694H26.7911V25.6694H27.7286V24.6694ZM26.7911 24.6694H25.8536V25.6694H26.7911V24.6694ZM25.8536 24.6694H24.9161V25.6694H25.8536V24.6694ZM25.4161 25.1694V24.2319H24.4161V25.1694H25.4161ZM25.4161 24.2319V23.2944H24.4161V24.2319H25.4161ZM25.4161 23.2944V22.3569H24.4161V23.2944H25.4161ZM24.9161 21.8569H23.9786V22.8569H24.9161V21.8569ZM23.9786 21.8569H23.0411V22.8569H23.9786V21.8569ZM22.5411 22.3569V23.2944H23.5411V22.3569H22.5411ZM22.5411 23.2944V24.2319H23.5411V23.2944H22.5411ZM22.5411 24.2319V25.1694H23.5411V24.2319H22.5411ZM23.0411 25.6694H23.9786V24.6694H23.0411V25.6694ZM23.9786 25.6694H24.9161V24.6694H23.9786V25.6694ZM24.4161 25.1694V26.1069H25.4161V25.1694H24.4161ZM24.9161 25.6069H23.9786V26.6069H24.9161V25.6069ZM23.9786 25.6069H23.0411V26.6069H23.9786V25.6069ZM22.5411 26.1069V27.0444H23.5411V26.1069H22.5411ZM22.5411 27.0444V27.9819H23.5411V27.0444H22.5411ZM22.5411 27.9819V28.9194H23.5411V27.9819H22.5411ZM22.5411 28.9194V29.8569H23.5411V28.9194H22.5411ZM23.0411 29.3569H22.1036V30.3569H23.0411V29.3569ZM28.6661 29.8569H28.1661V30.3569H28.6661V29.8569ZM28.6661 23.2944V22.7944H28.1661V23.2944H28.6661ZM35.2286 23.2944H35.7286V22.7944H35.2286V23.2944ZM35.2286 24.2319H34.7286V24.7319H35.2286V24.2319ZM36.1661 24.2319H36.6661V23.7319H36.1661V24.2319ZM36.1661 25.1694V25.6694H36.6661V25.1694H36.1661ZM33.3536 25.1694H32.8536V25.6694H33.3536V25.1694ZM33.3536 24.2319H33.8536V23.7319H33.3536V24.2319ZM31.4786 24.2319V23.7319H30.9786V24.2319H31.4786ZM31.4786 29.8569V30.3569H31.9786V29.8569H31.4786ZM30.5411 29.3569H29.6036V30.3569H30.5411V29.3569ZM29.6036 29.3569H28.6661V30.3569H29.6036V29.3569ZM29.1661 29.8569V28.9194H28.1661V29.8569H29.1661ZM29.1661 28.9194V27.9819H28.1661V28.9194H29.1661ZM29.1661 27.9819V27.0444H28.1661V27.9819H29.1661ZM29.1661 27.0444V26.1069H28.1661V27.0444H29.1661ZM29.1661 26.1069V25.1694H28.1661V26.1069H29.1661ZM29.1661 25.1694V24.2319H28.1661V25.1694H29.1661ZM29.1661 24.2319V23.2944H28.1661V24.2319H29.1661ZM28.6661 23.7944H29.6036V22.7944H28.6661V23.7944ZM29.6036 23.7944H30.5411V22.7944H29.6036V23.7944ZM30.5411 23.7944H31.4786V22.7944H30.5411V23.7944ZM31.4786 23.7944H32.4161V22.7944H31.4786V23.7944ZM32.4161 23.7944H33.3536V22.7944H32.4161V23.7944ZM33.3536 23.7944H34.2911V22.7944H33.3536V23.7944ZM34.2911 23.7944H35.2286V22.7944H34.2911V23.7944ZM34.7286 23.2944V24.2319H35.7286V23.2944H34.7286ZM35.2286 24.7319H36.1661V23.7319H35.2286V24.7319ZM35.6661 24.2319V25.1694H36.6661V24.2319H35.6661ZM36.1661 24.6694H35.2286V25.6694H36.1661V24.6694ZM35.2286 24.6694H34.2911V25.6694H35.2286V24.6694ZM34.2911 24.6694H33.3536V25.6694H34.2911V24.6694ZM33.8536 25.1694V24.2319H32.8536V25.1694H33.8536ZM33.3536 23.7319H32.4161V24.7319H33.3536V23.7319ZM32.4161 23.7319H31.4786V24.7319H32.4161V23.7319ZM30.9786 24.2319V25.1694H31.9786V24.2319H30.9786ZM30.9786 25.1694V26.1069H31.9786V25.1694H30.9786ZM30.9786 26.1069V27.0444H31.9786V26.1069H30.9786ZM30.9786 27.0444V27.9819H31.9786V27.0444H30.9786ZM30.9786 27.9819V28.9194H31.9786V27.9819H30.9786ZM30.9786 28.9194V29.8569H31.9786V28.9194H30.9786ZM31.4786 29.3569H30.5411V30.3569H31.4786V29.3569ZM38.0411 29.8569H37.5411V30.3569H38.0411V29.8569ZM38.0411 28.9194H38.5411V28.4194H38.0411V28.9194ZM37.1036 28.9194H36.6036V29.4194H37.1036V28.9194ZM37.1036 24.2319V23.7319H36.6036V24.2319H37.1036ZM38.0411 24.2319V24.7319H38.5411V24.2319H38.0411ZM38.0411 23.2944V22.7944H37.5411V23.2944H38.0411ZM43.6661 23.2944H44.1661V22.7944H43.6661V23.2944ZM43.6661 24.2319H43.1661V24.7319H43.6661V24.2319ZM44.6036 24.2319H45.1036V23.7319H44.6036V24.2319ZM44.6036 28.9194V29.4194H45.1036V28.9194H44.6036ZM43.6661 28.9194V28.4194H43.1661V28.9194H43.6661ZM43.6661 29.8569V30.3569H44.1661V29.8569H43.6661ZM41.7911 28.9194V29.4194H42.2911V28.9194H41.7911ZM41.7911 24.2319H42.2911V23.7319H41.7911V24.2319ZM39.9161 24.2319V23.7319H39.4161V24.2319H39.9161ZM39.9161 28.9194H39.4161V29.4194H39.9161V28.9194ZM42.7286 29.3569H41.7911V30.3569H42.7286V29.3569ZM41.7911 29.3569H40.8536V30.3569H41.7911V29.3569ZM40.8536 29.3569H39.9161V30.3569H40.8536V29.3569ZM39.9161 29.3569H38.9786V30.3569H39.9161V29.3569ZM38.9786 29.3569H38.0411V30.3569H38.9786V29.3569ZM38.5411 29.8569V28.9194H37.5411V29.8569H38.5411ZM38.0411 28.4194H37.1036V29.4194H38.0411V28.4194ZM37.6036 28.9194V27.9819H36.6036V28.9194H37.6036ZM37.6036 27.9819V27.0444H36.6036V27.9819H37.6036ZM37.6036 27.0444V26.1069H36.6036V27.0444H37.6036ZM37.6036 26.1069V25.1694H36.6036V26.1069H37.6036ZM37.6036 25.1694V24.2319H36.6036V25.1694H37.6036ZM37.1036 24.7319H38.0411V23.7319H37.1036V24.7319ZM38.5411 24.2319V23.2944H37.5411V24.2319H38.5411ZM38.0411 23.7944H38.9786V22.7944H38.0411V23.7944ZM38.9786 23.7944H39.9161V22.7944H38.9786V23.7944ZM39.9161 23.7944H40.8536V22.7944H39.9161V23.7944ZM40.8536 23.7944H41.7911V22.7944H40.8536V23.7944ZM41.7911 23.7944H42.7286V22.7944H41.7911V23.7944ZM42.7286 23.7944H43.6661V22.7944H42.7286V23.7944ZM43.1661 23.2944V24.2319H44.1661V23.2944H43.1661ZM43.6661 24.7319H44.6036V23.7319H43.6661V24.7319ZM44.1036 24.2319V25.1694H45.1036V24.2319H44.1036ZM44.1036 25.1694V26.1069H45.1036V25.1694H44.1036ZM44.1036 26.1069V27.0444H45.1036V26.1069H44.1036ZM44.1036 27.0444V27.9819H45.1036V27.0444H44.1036ZM44.1036 27.9819V28.9194H45.1036V27.9819H44.1036ZM44.6036 28.4194H43.6661V29.4194H44.6036V28.4194ZM43.1661 28.9194V29.8569H44.1661V28.9194H43.1661ZM43.6661 29.3569H42.7286V30.3569H43.6661V29.3569ZM40.8536 29.4194H41.7911V28.4194H40.8536V29.4194ZM42.2911 28.9194V27.9819H41.2911V28.9194H42.2911ZM42.2911 27.9819V27.0444H41.2911V27.9819H42.2911ZM42.2911 27.0444V26.1069H41.2911V27.0444H42.2911ZM42.2911 26.1069V25.1694H41.2911V26.1069H42.2911ZM42.2911 25.1694V24.2319H41.2911V25.1694H42.2911ZM41.7911 23.7319H40.8536V24.7319H41.7911V23.7319ZM40.8536 23.7319H39.9161V24.7319H40.8536V23.7319ZM39.4161 24.2319V25.1694H40.4161V24.2319H39.4161ZM39.4161 25.1694V26.1069H40.4161V25.1694H39.4161ZM39.4161 26.1069V27.0444H40.4161V26.1069H39.4161ZM39.4161 27.0444V27.9819H40.4161V27.0444H39.4161ZM39.4161 27.9819V28.9194H40.4161V27.9819H39.4161ZM39.9161 29.4194H40.8536V28.4194H39.9161V29.4194ZM53.9786 29.8569H53.4786V30.3569H53.9786V29.8569ZM53.9786 24.2319H54.4786V23.7319H53.9786V24.2319ZM53.0411 24.2319V23.7319H52.5411V24.2319H53.0411ZM53.0411 29.8569V30.3569H53.5411V29.8569H53.0411ZM49.2911 29.8569H48.7911V30.3569H49.2911V29.8569ZM49.2911 24.2319H49.7911V23.7319H49.2911V24.2319ZM48.3536 24.2319V23.7319H47.8536V24.2319H48.3536ZM48.3536 29.8569V30.3569H48.8536V29.8569H48.3536ZM45.5411 29.8569H45.0411V30.3569H45.5411V29.8569ZM45.5411 23.2944V22.7944H45.0411V23.2944H45.5411ZM50.2286 23.2944H50.7286V22.7944H50.2286V23.2944ZM50.2286 24.2319H49.7286V24.7319H50.2286V24.2319ZM51.1661 24.2319V24.7319H51.6661V24.2319H51.1661ZM51.1661 23.2944V22.7944H50.6661V23.2944H51.1661ZM55.8536 23.2944H56.3536V22.7944H55.8536V23.2944ZM55.8536 24.2319H55.3536V24.7319H55.8536V24.2319ZM56.7911 24.2319H57.2911V23.7319H56.7911V24.2319ZM56.7911 29.8569V30.3569H57.2911V29.8569H56.7911ZM55.8536 29.3569H54.9161V30.3569H55.8536V29.3569ZM54.9161 29.3569H53.9786V30.3569H54.9161V29.3569ZM54.4786 29.8569V28.9194H53.4786V29.8569H54.4786ZM54.4786 28.9194V27.9819H53.4786V28.9194H54.4786ZM54.4786 27.9819V27.0444H53.4786V27.9819H54.4786ZM54.4786 27.0444V26.1069H53.4786V27.0444H54.4786ZM54.4786 26.1069V25.1694H53.4786V26.1069H54.4786ZM54.4786 25.1694V24.2319H53.4786V25.1694H54.4786ZM53.9786 23.7319H53.0411V24.7319H53.9786V23.7319ZM52.5411 24.2319V25.1694H53.5411V24.2319H52.5411ZM52.5411 25.1694V26.1069H53.5411V25.1694H52.5411ZM52.5411 26.1069V27.0444H53.5411V26.1069H52.5411ZM52.5411 27.0444V27.9819H53.5411V27.0444H52.5411ZM52.5411 27.9819V28.9194H53.5411V27.9819H52.5411ZM52.5411 28.9194V29.8569H53.5411V28.9194H52.5411ZM53.0411 29.3569H52.1036V30.3569H53.0411V29.3569ZM52.1036 29.3569H51.1661V30.3569H52.1036V29.3569ZM51.1661 29.3569H50.2286V30.3569H51.1661V29.3569ZM50.2286 29.3569H49.2911V30.3569H50.2286V29.3569ZM49.7911 29.8569V28.9194H48.7911V29.8569H49.7911ZM49.7911 28.9194V27.9819H48.7911V28.9194H49.7911ZM49.7911 27.9819V27.0444H48.7911V27.9819H49.7911ZM49.7911 27.0444V26.1069H48.7911V27.0444H49.7911ZM49.7911 26.1069V25.1694H48.7911V26.1069H49.7911ZM49.7911 25.1694V24.2319H48.7911V25.1694H49.7911ZM49.2911 23.7319H48.3536V24.7319H49.2911V23.7319ZM47.8536 24.2319V25.1694H48.8536V24.2319H47.8536ZM47.8536 25.1694V26.1069H48.8536V25.1694H47.8536ZM47.8536 26.1069V27.0444H48.8536V26.1069H47.8536ZM47.8536 27.0444V27.9819H48.8536V27.0444H47.8536ZM47.8536 27.9819V28.9194H48.8536V27.9819H47.8536ZM47.8536 28.9194V29.8569H48.8536V28.9194H47.8536ZM48.3536 29.3569H47.4161V30.3569H48.3536V29.3569ZM47.4161 29.3569H46.4786V30.3569H47.4161V29.3569ZM46.4786 29.3569H45.5411V30.3569H46.4786V29.3569ZM46.0411 29.8569V28.9194H45.0411V29.8569H46.0411ZM46.0411 28.9194V27.9819H45.0411V28.9194H46.0411ZM46.0411 27.9819V27.0444H45.0411V27.9819H46.0411ZM46.0411 27.0444V26.1069H45.0411V27.0444H46.0411ZM46.0411 26.1069V25.1694H45.0411V26.1069H46.0411ZM46.0411 25.1694V24.2319H45.0411V25.1694H46.0411ZM46.0411 24.2319V23.2944H45.0411V24.2319H46.0411ZM45.5411 23.7944H46.4786V22.7944H45.5411V23.7944ZM46.4786 23.7944H47.4161V22.7944H46.4786V23.7944ZM47.4161 23.7944H48.3536V22.7944H47.4161V23.7944ZM48.3536 23.7944H49.2911V22.7944H48.3536V23.7944ZM49.2911 23.7944H50.2286V22.7944H49.2911V23.7944ZM49.7286 23.2944V24.2319H50.7286V23.2944H49.7286ZM50.2286 24.7319H51.1661V23.7319H50.2286V24.7319ZM51.6661 24.2319V23.2944H50.6661V24.2319H51.6661ZM51.1661 23.7944H52.1036V22.7944H51.1661V23.7944ZM52.1036 23.7944H53.0411V22.7944H52.1036V23.7944ZM53.0411 23.7944H53.9786V22.7944H53.0411V23.7944ZM53.9786 23.7944H54.9161V22.7944H53.9786V23.7944ZM54.9161 23.7944H55.8536V22.7944H54.9161V23.7944ZM55.3536 23.2944V24.2319H56.3536V23.2944H55.3536ZM55.8536 24.7319H56.7911V23.7319H55.8536V24.7319ZM56.2911 24.2319V25.1694H57.2911V24.2319H56.2911ZM56.2911 25.1694V26.1069H57.2911V25.1694H56.2911ZM56.2911 26.1069V27.0444H57.2911V26.1069H56.2911ZM56.2911 27.0444V27.9819H57.2911V27.0444H56.2911ZM56.2911 27.9819V28.9194H57.2911V27.9819H56.2911ZM56.2911 28.9194V29.8569H57.2911V28.9194H56.2911ZM56.7911 29.3569H55.8536V30.3569H56.7911V29.3569ZM58.6661 29.8569H58.1661V30.3569H58.6661V29.8569ZM58.6661 28.9194H59.1661V28.4194H58.6661V28.9194ZM57.7286 28.9194H57.2286V29.4194H57.7286V28.9194ZM57.7286 24.2319V23.7319H57.2286V24.2319H57.7286ZM58.6661 24.2319V24.7319H59.1661V24.2319H58.6661ZM58.6661 23.2944V22.7944H58.1661V23.2944H58.6661ZM64.2911 23.2944H64.7911V22.7944H64.2911V23.2944ZM64.2911 24.2319H63.7911V24.7319H64.2911V24.2319ZM65.2286 24.2319H65.7286V23.7319H65.2286V24.2319ZM65.2286 28.9194V29.4194H65.7286V28.9194H65.2286ZM64.2911 28.9194V28.4194H63.7911V28.9194H64.2911ZM64.2911 29.8569V30.3569H64.7911V29.8569H64.2911ZM62.4161 28.9194V29.4194H62.9161V28.9194H62.4161ZM62.4161 24.2319H62.9161V23.7319H62.4161V24.2319ZM60.5411 24.2319V23.7319H60.0411V24.2319H60.5411ZM60.5411 28.9194H60.0411V29.4194H60.5411V28.9194ZM63.3536 29.3569H62.4161V30.3569H63.3536V29.3569ZM62.4161 29.3569H61.4786V30.3569H62.4161V29.3569ZM61.4786 29.3569H60.5411V30.3569H61.4786V29.3569ZM60.5411 29.3569H59.6036V30.3569H60.5411V29.3569ZM59.6036 29.3569H58.6661V30.3569H59.6036V29.3569ZM59.1661 29.8569V28.9194H58.1661V29.8569H59.1661ZM58.6661 28.4194H57.7286V29.4194H58.6661V28.4194ZM58.2286 28.9194V27.9819H57.2286V28.9194H58.2286ZM58.2286 27.9819V27.0444H57.2286V27.9819H58.2286ZM58.2286 27.0444V26.1069H57.2286V27.0444H58.2286ZM58.2286 26.1069V25.1694H57.2286V26.1069H58.2286ZM58.2286 25.1694V24.2319H57.2286V25.1694H58.2286ZM57.7286 24.7319H58.6661V23.7319H57.7286V24.7319ZM59.1661 24.2319V23.2944H58.1661V24.2319H59.1661ZM58.6661 23.7944H59.6036V22.7944H58.6661V23.7944ZM59.6036 23.7944H60.5411V22.7944H59.6036V23.7944ZM60.5411 23.7944H61.4786V22.7944H60.5411V23.7944ZM61.4786 23.7944H62.4161V22.7944H61.4786V23.7944ZM62.4161 23.7944H63.3536V22.7944H62.4161V23.7944ZM63.3536 23.7944H64.2911V22.7944H63.3536V23.7944ZM63.7911 23.2944V24.2319H64.7911V23.2944H63.7911ZM64.2911 24.7319H65.2286V23.7319H64.2911V24.7319ZM64.7286 24.2319V25.1694H65.7286V24.2319H64.7286ZM64.7286 25.1694V26.1069H65.7286V25.1694H64.7286ZM64.7286 26.1069V27.0444H65.7286V26.1069H64.7286ZM64.7286 27.0444V27.9819H65.7286V27.0444H64.7286ZM64.7286 27.9819V28.9194H65.7286V27.9819H64.7286ZM65.2286 28.4194H64.2911V29.4194H65.2286V28.4194ZM63.7911 28.9194V29.8569H64.7911V28.9194H63.7911ZM64.2911 29.3569H63.3536V30.3569H64.2911V29.3569ZM61.4786 29.4194H62.4161V28.4194H61.4786V29.4194ZM62.9161 28.9194V27.9819H61.9161V28.9194H62.9161ZM62.9161 27.9819V27.0444H61.9161V27.9819H62.9161ZM62.9161 27.0444V26.1069H61.9161V27.0444H62.9161ZM62.9161 26.1069V25.1694H61.9161V26.1069H62.9161ZM62.9161 25.1694V24.2319H61.9161V25.1694H62.9161ZM62.4161 23.7319H61.4786V24.7319H62.4161V23.7319ZM61.4786 23.7319H60.5411V24.7319H61.4786V23.7319ZM60.0411 24.2319V25.1694H61.0411V24.2319H60.0411ZM60.0411 25.1694V26.1069H61.0411V25.1694H60.0411ZM60.0411 26.1069V27.0444H61.0411V26.1069H60.0411ZM60.0411 27.0444V27.9819H61.0411V27.0444H60.0411ZM60.0411 27.9819V28.9194H61.0411V27.9819H60.0411ZM60.5411 29.4194H61.4786V28.4194H60.5411V29.4194ZM67.1036 29.8569H66.6036V30.3569H67.1036V29.8569ZM67.1036 28.9194H67.6036V28.4194H67.1036V28.9194ZM66.1661 28.9194H65.6661V29.4194H66.1661V28.9194ZM66.1661 24.2319V23.7319H65.6661V24.2319H66.1661ZM67.1036 24.2319V24.7319H67.6036V24.2319H67.1036ZM67.1036 23.2944V22.7944H66.6036V23.2944H67.1036ZM72.7286 23.2944H73.2286V22.7944H72.7286V23.2944ZM72.7286 24.2319H72.2286V24.7319H72.7286V24.2319ZM73.6661 24.2319H74.1661V23.7319H73.6661V24.2319ZM73.6661 25.1694V25.6694H74.1661V25.1694H73.6661ZM70.8536 25.1694H70.3536V25.6694H70.8536V25.1694ZM70.8536 24.2319H71.3536V23.7319H70.8536V24.2319ZM68.9786 24.2319V23.7319H68.4786V24.2319H68.9786ZM68.9786 28.9194H68.4786V29.4194H68.9786V28.9194ZM70.8536 28.9194V29.4194H71.3536V28.9194H70.8536ZM70.8536 27.9819V27.4819H70.3536V27.9819H70.8536ZM73.6661 27.9819H74.1661V27.4819H73.6661V27.9819ZM73.6661 28.9194V29.4194H74.1661V28.9194H73.6661ZM72.7286 28.9194V28.4194H72.2286V28.9194H72.7286ZM72.7286 29.8569V30.3569H73.2286V29.8569H72.7286ZM71.7911 29.3569H70.8536V30.3569H71.7911V29.3569ZM70.8536 29.3569H69.9161V30.3569H70.8536V29.3569ZM69.9161 29.3569H68.9786V30.3569H69.9161V29.3569ZM68.9786 29.3569H68.0411V30.3569H68.9786V29.3569ZM68.0411 29.3569H67.1036V30.3569H68.0411V29.3569ZM67.6036 29.8569V28.9194H66.6036V29.8569H67.6036ZM67.1036 28.4194H66.1661V29.4194H67.1036V28.4194ZM66.6661 28.9194V27.9819H65.6661V28.9194H66.6661ZM66.6661 27.9819V27.0444H65.6661V27.9819H66.6661ZM66.6661 27.0444V26.1069H65.6661V27.0444H66.6661ZM66.6661 26.1069V25.1694H65.6661V26.1069H66.6661ZM66.6661 25.1694V24.2319H65.6661V25.1694H66.6661ZM66.1661 24.7319H67.1036V23.7319H66.1661V24.7319ZM67.6036 24.2319V23.2944H66.6036V24.2319H67.6036ZM67.1036 23.7944H68.0411V22.7944H67.1036V23.7944ZM68.0411 23.7944H68.9786V22.7944H68.0411V23.7944ZM68.9786 23.7944H69.9161V22.7944H68.9786V23.7944ZM69.9161 23.7944H70.8536V22.7944H69.9161V23.7944ZM70.8536 23.7944H71.7911V22.7944H70.8536V23.7944ZM71.7911 23.7944H72.7286V22.7944H71.7911V23.7944ZM72.2286 23.2944V24.2319H73.2286V23.2944H72.2286ZM72.7286 24.7319H73.6661V23.7319H72.7286V24.7319ZM73.1661 24.2319V25.1694H74.1661V24.2319H73.1661ZM73.6661 24.6694H72.7286V25.6694H73.6661V24.6694ZM72.7286 24.6694H71.7911V25.6694H72.7286V24.6694ZM71.7911 24.6694H70.8536V25.6694H71.7911V24.6694ZM71.3536 25.1694V24.2319H70.3536V25.1694H71.3536ZM70.8536 23.7319H69.9161V24.7319H70.8536V23.7319ZM69.9161 23.7319H68.9786V24.7319H69.9161V23.7319ZM68.4786 24.2319V25.1694H69.4786V24.2319H68.4786ZM68.4786 25.1694V26.1069H69.4786V25.1694H68.4786ZM68.4786 26.1069V27.0444H69.4786V26.1069H68.4786ZM68.4786 27.0444V27.9819H69.4786V27.0444H68.4786ZM68.4786 27.9819V28.9194H69.4786V27.9819H68.4786ZM68.9786 29.4194H69.9161V28.4194H68.9786V29.4194ZM69.9161 29.4194H70.8536V28.4194H69.9161V29.4194ZM71.3536 28.9194V27.9819H70.3536V28.9194H71.3536ZM70.8536 28.4819H71.7911V27.4819H70.8536V28.4819ZM71.7911 28.4819H72.7286V27.4819H71.7911V28.4819ZM72.7286 28.4819H73.6661V27.4819H72.7286V28.4819ZM73.1661 27.9819V28.9194H74.1661V27.9819H73.1661ZM73.6661 28.4194H72.7286V29.4194H73.6661V28.4194ZM72.2286 28.9194V29.8569H73.2286V28.9194H72.2286ZM72.7286 29.3569H71.7911V30.3569H72.7286V29.3569ZM75.5411 29.8569H75.0411V30.3569H75.5411V29.8569ZM75.5411 28.9194H76.0411V28.4194H75.5411V28.9194ZM74.6036 28.9194H74.1036V29.4194H74.6036V28.9194ZM74.6036 24.2319V23.7319H74.1036V24.2319H74.6036ZM75.5411 24.2319V24.7319H76.0411V24.2319H75.5411ZM75.5411 23.2944V22.7944H75.0411V23.2944H75.5411ZM81.1661 23.2944H81.6661V22.7944H81.1661V23.2944ZM81.1661 24.2319H80.6661V24.7319H81.1661V24.2319ZM82.1036 24.2319H82.6036V23.7319H82.1036V24.2319ZM82.1036 28.9194V29.4194H82.6036V28.9194H82.1036ZM81.1661 28.9194V28.4194H80.6661V28.9194H81.1661ZM81.1661 29.8569V30.3569H81.6661V29.8569H81.1661ZM79.2911 28.9194V29.4194H79.7911V28.9194H79.2911ZM79.2911 24.2319H79.7911V23.7319H79.2911V24.2319ZM77.4161 24.2319V23.7319H76.9161V24.2319H77.4161ZM77.4161 28.9194H76.9161V29.4194H77.4161V28.9194ZM80.2286 29.3569H79.2911V30.3569H80.2286V29.3569ZM79.2911 29.3569H78.3536V30.3569H79.2911V29.3569ZM78.3536 29.3569H77.4161V30.3569H78.3536V29.3569ZM77.4161 29.3569H76.4786V30.3569H77.4161V29.3569ZM76.4786 29.3569H75.5411V30.3569H76.4786V29.3569ZM76.0411 29.8569V28.9194H75.0411V29.8569H76.0411ZM75.5411 28.4194H74.6036V29.4194H75.5411V28.4194ZM75.1036 28.9194V27.9819H74.1036V28.9194H75.1036ZM75.1036 27.9819V27.0444H74.1036V27.9819H75.1036ZM75.1036 27.0444V26.1069H74.1036V27.0444H75.1036ZM75.1036 26.1069V25.1694H74.1036V26.1069H75.1036ZM75.1036 25.1694V24.2319H74.1036V25.1694H75.1036ZM74.6036 24.7319H75.5411V23.7319H74.6036V24.7319ZM76.0411 24.2319V23.2944H75.0411V24.2319H76.0411ZM75.5411 23.7944H76.4786V22.7944H75.5411V23.7944ZM76.4786 23.7944H77.4161V22.7944H76.4786V23.7944ZM77.4161 23.7944H78.3536V22.7944H77.4161V23.7944ZM78.3536 23.7944H79.2911V22.7944H78.3536V23.7944ZM79.2911 23.7944H80.2286V22.7944H79.2911V23.7944ZM80.2286 23.7944H81.1661V22.7944H80.2286V23.7944ZM80.6661 23.2944V24.2319H81.6661V23.2944H80.6661ZM81.1661 24.7319H82.1036V23.7319H81.1661V24.7319ZM81.6036 24.2319V25.1694H82.6036V24.2319H81.6036ZM81.6036 25.1694V26.1069H82.6036V25.1694H81.6036ZM81.6036 26.1069V27.0444H82.6036V26.1069H81.6036ZM81.6036 27.0444V27.9819H82.6036V27.0444H81.6036ZM81.6036 27.9819V28.9194H82.6036V27.9819H81.6036ZM82.1036 28.4194H81.1661V29.4194H82.1036V28.4194ZM80.6661 28.9194V29.8569H81.6661V28.9194H80.6661ZM81.1661 29.3569H80.2286V30.3569H81.1661V29.3569ZM78.3536 29.4194H79.2911V28.4194H78.3536V29.4194ZM79.7911 28.9194V27.9819H78.7911V28.9194H79.7911ZM79.7911 27.9819V27.0444H78.7911V27.9819H79.7911ZM79.7911 27.0444V26.1069H78.7911V27.0444H79.7911ZM79.7911 26.1069V25.1694H78.7911V26.1069H79.7911ZM79.7911 25.1694V24.2319H78.7911V25.1694H79.7911ZM79.2911 23.7319H78.3536V24.7319H79.2911V23.7319ZM78.3536 23.7319H77.4161V24.7319H78.3536V23.7319ZM76.9161 24.2319V25.1694H77.9161V24.2319H76.9161ZM76.9161 25.1694V26.1069H77.9161V25.1694H76.9161ZM76.9161 26.1069V27.0444H77.9161V26.1069H76.9161ZM76.9161 27.0444V27.9819H77.9161V27.0444H76.9161ZM76.9161 27.9819V28.9194H77.9161V27.9819H76.9161ZM77.4161 29.4194H78.3536V28.4194H77.4161V29.4194ZM83.9786 29.8569H83.4786V30.3569H83.9786V29.8569ZM83.9786 28.9194H84.4786V28.4194H83.9786V28.9194ZM83.0411 28.9194H82.5411V29.4194H83.0411V28.9194ZM83.0411 24.2319V23.7319H82.5411V24.2319H83.0411ZM83.9786 24.2319V24.7319H84.4786V24.2319H83.9786ZM83.9786 23.2944V22.7944H83.4786V23.2944H83.9786ZM87.7286 23.2944V23.7944H88.2286V23.2944H87.7286ZM87.7286 20.4819V19.9819H87.2286V20.4819H87.7286ZM90.5411 20.4819H91.0411V19.9819H90.5411V20.4819ZM90.5411 29.8569V30.3569H91.0411V29.8569H90.5411ZM87.7286 28.9194V29.4194H88.2286V28.9194H87.7286ZM87.7286 24.2319H88.2286V23.7319H87.7286V24.2319ZM85.8536 24.2319V23.7319H85.3536V24.2319H85.8536ZM85.8536 28.9194H85.3536V29.4194H85.8536V28.9194ZM89.6036 29.3569H88.6661V30.3569H89.6036V29.3569ZM88.6661 29.3569H87.7286V30.3569H88.6661V29.3569ZM87.7286 29.3569H86.7911V30.3569H87.7286V29.3569ZM86.7911 29.3569H85.8536V30.3569H86.7911V29.3569ZM85.8536 29.3569H84.9161V30.3569H85.8536V29.3569ZM84.9161 29.3569H83.9786V30.3569H84.9161V29.3569ZM84.4786 29.8569V28.9194H83.4786V29.8569H84.4786ZM83.9786 28.4194H83.0411V29.4194H83.9786V28.4194ZM83.5411 28.9194V27.9819H82.5411V28.9194H83.5411ZM83.5411 27.9819V27.0444H82.5411V27.9819H83.5411ZM83.5411 27.0444V26.1069H82.5411V27.0444H83.5411ZM83.5411 26.1069V25.1694H82.5411V26.1069H83.5411ZM83.5411 25.1694V24.2319H82.5411V25.1694H83.5411ZM83.0411 24.7319H83.9786V23.7319H83.0411V24.7319ZM84.4786 24.2319V23.2944H83.4786V24.2319H84.4786ZM83.9786 23.7944H84.9161V22.7944H83.9786V23.7944ZM84.9161 23.7944H85.8536V22.7944H84.9161V23.7944ZM85.8536 23.7944H86.7911V22.7944H85.8536V23.7944ZM86.7911 23.7944H87.7286V22.7944H86.7911V23.7944ZM88.2286 23.2944V22.3569H87.2286V23.2944H88.2286ZM88.2286 22.3569V21.4194H87.2286V22.3569H88.2286ZM88.2286 21.4194V20.4819H87.2286V21.4194H88.2286ZM87.7286 20.9819H88.6661V19.9819H87.7286V20.9819ZM88.6661 20.9819H89.6036V19.9819H88.6661V20.9819ZM89.6036 20.9819H90.5411V19.9819H89.6036V20.9819ZM90.0411 20.4819V21.4194H91.0411V20.4819H90.0411ZM90.0411 21.4194V22.3569H91.0411V21.4194H90.0411ZM90.0411 22.3569V23.2944H91.0411V22.3569H90.0411ZM90.0411 23.2944V24.2319H91.0411V23.2944H90.0411ZM90.0411 24.2319V25.1694H91.0411V24.2319H90.0411ZM90.0411 25.1694V26.1069H91.0411V25.1694H90.0411ZM90.0411 26.1069V27.0444H91.0411V26.1069H90.0411ZM90.0411 27.0444V27.9819H91.0411V27.0444H90.0411ZM90.0411 27.9819V28.9194H91.0411V27.9819H90.0411ZM90.0411 28.9194V29.8569H91.0411V28.9194H90.0411ZM90.5411 29.3569H89.6036V30.3569H90.5411V29.3569ZM86.7911 29.4194H87.7286V28.4194H86.7911V29.4194ZM88.2286 28.9194V27.9819H87.2286V28.9194H88.2286ZM88.2286 27.9819V27.0444H87.2286V27.9819H88.2286ZM88.2286 27.0444V26.1069H87.2286V27.0444H88.2286ZM88.2286 26.1069V25.1694H87.2286V26.1069H88.2286ZM88.2286 25.1694V24.2319H87.2286V25.1694H88.2286ZM87.7286 23.7319H86.7911V24.7319H87.7286V23.7319ZM86.7911 23.7319H85.8536V24.7319H86.7911V23.7319ZM85.3536 24.2319V25.1694H86.3536V24.2319H85.3536ZM85.3536 25.1694V26.1069H86.3536V25.1694H85.3536ZM85.3536 26.1069V27.0444H86.3536V26.1069H85.3536ZM85.3536 27.0444V27.9819H86.3536V27.0444H85.3536ZM85.3536 27.9819V28.9194H86.3536V27.9819H85.3536ZM85.8536 29.4194H86.7911V28.4194H85.8536V29.4194Z" fill="#543847" mask="url(#path-6-outside-3_105_6)"/>
</svg>
