<svg width="236" height="108" viewBox="0 0 236 108" fill="none" xmlns="http://www.w3.org/2000/svg">
<rect x="0.5" y="0.5" width="235" height="107" rx="5.5" fill="#DED798" stroke="#543847"/>
<mask id="path-2-outside-1_105_6" maskUnits="userSpaceOnUse" x="140.6" y="18.8569" width="74" height="12" fill="black">
<rect fill="white" x="140.6" y="18.8569" width="74" height="12"/>
<path d="M149.6 29.8569H148.6H147.6V28.8569V27.8569V26.8569H146.6H145.6H144.6V27.8569V28.8569V29.8569H143.6H142.6H141.6V28.8569V27.8569V26.8569V25.8569V24.8569V23.8569H142.6V22.8569H143.6V21.8569H144.6V20.8569H145.6H146.6H147.6V21.8569H148.6V22.8569H149.6V23.8569V24.8569H150.6V25.8569V26.8569V27.8569V28.8569V29.8569H149.6ZM146.6 25.8569H147.6V24.8569H146.6V23.8569V22.8569H145.6V23.8569V24.8569H144.6V25.8569H145.6H146.6ZM156.6 29.8569H155.6H154.6H153.6H152.6V28.8569H151.6V27.8569V26.8569V25.8569H150.6V24.8569V23.8569V22.8569H151.6H152.6H153.6V23.8569V24.8569V25.8569H154.6V26.8569V27.8569V28.8569H155.6V27.8569V26.8569V25.8569H156.6V24.8569V23.8569V22.8569H157.6H158.6H159.6V23.8569V24.8569V25.8569H158.6V26.8569V27.8569V28.8569H157.6V29.8569H156.6ZM167.6 29.8569H166.6H165.6H164.6H163.6H162.6H161.6V28.8569H160.6V27.8569V26.8569H161.6V25.8569H162.6H163.6H164.6H165.6V24.8569V23.8569H164.6H163.6V24.8569H162.6H161.6H160.6V23.8569H161.6V22.8569H162.6H163.6H164.6H165.6H166.6H167.6V23.8569H168.6V24.8569V25.8569V26.8569V27.8569V28.8569V29.8569H167.6ZM164.6 28.8569H165.6V27.8569V26.8569H164.6H163.6V27.8569V28.8569H164.6ZM170.24 26.1929V24.9449H174.112V26.1929H170.24ZM180.756 29.8569H179.756H178.756H177.756H176.756H175.756V28.8569H174.756V27.8569V26.8569V25.8569V24.8569V23.8569H175.756V22.8569H176.756H177.756H178.756H179.756H180.756H181.756V23.8569H182.756V24.8569H181.756H180.756H179.756V23.8569H178.756H177.756V24.8569V25.8569V26.8569V27.8569V28.8569H178.756H179.756V27.8569H180.756H181.756H182.756V28.8569H181.756V29.8569H180.756ZM189.756 29.8569H188.756H187.756H186.756H185.756H184.756V28.8569H183.756V27.8569V26.8569V25.8569V24.8569V23.8569H184.756V22.8569H185.756H186.756H187.756H188.756H189.756H190.756V23.8569H191.756V24.8569V25.8569V26.8569V27.8569V28.8569H190.756V29.8569H189.756ZM187.756 28.8569H188.756V27.8569V26.8569V25.8569V24.8569V23.8569H187.756H186.756V24.8569V25.8569V26.8569V27.8569V28.8569H187.756ZM194.756 29.8569H193.756H192.756V28.8569V27.8569V26.8569V25.8569V24.8569V23.8569V22.8569H193.756H194.756H195.756V23.8569V24.8569V25.8569V26.8569V27.8569V28.8569V29.8569H194.756ZM194.756 21.8569H193.756H192.756V20.8569V19.8569H193.756H194.756H195.756V20.8569V21.8569H194.756ZM203.756 29.8569H202.756H201.756V28.8569V27.8569V26.8569V25.8569V24.8569V23.8569H200.756H199.756V24.8569V25.8569V26.8569V27.8569V28.8569V29.8569H198.756H197.756H196.756V28.8569V27.8569V26.8569V25.8569V24.8569V23.8569V22.8569H197.756H198.756H199.756H200.756H201.756H202.756H203.756V23.8569H204.756V24.8569V25.8569V26.8569V27.8569V28.8569V29.8569H203.756ZM211.756 29.8569H210.756H209.756H208.756H207.756H206.756V28.8569H205.756V27.8569H206.756H207.756H208.756V28.8569H209.756H210.756V27.8569V26.8569H209.756H208.756H207.756H206.756V25.8569H205.756V24.8569V23.8569H206.756V22.8569H207.756H208.756H209.756H210.756H211.756H212.756V23.8569H213.756V24.8569H212.756H211.756H210.756V23.8569H209.756H208.756V24.8569V25.8569H209.756H210.756H211.756H212.756V26.8569H213.756V27.8569V28.8569H212.756V29.8569H211.756Z"/>
</mask>
<path d="M149.6 29.8569H148.6H147.6V28.8569V27.8569V26.8569H146.6H145.6H144.6V27.8569V28.8569V29.8569H143.6H142.6H141.6V28.8569V27.8569V26.8569V25.8569V24.8569V23.8569H142.6V22.8569H143.6V21.8569H144.6V20.8569H145.6H146.6H147.6V21.8569H148.6V22.8569H149.6V23.8569V24.8569H150.6V25.8569V26.8569V27.8569V28.8569V29.8569H149.6ZM146.6 25.8569H147.6V24.8569H146.6V23.8569V22.8569H145.6V23.8569V24.8569H144.6V25.8569H145.6H146.6ZM156.6 29.8569H155.6H154.6H153.6H152.6V28.8569H151.6V27.8569V26.8569V25.8569H150.6V24.8569V23.8569V22.8569H151.6H152.6H153.6V23.8569V24.8569V25.8569H154.6V26.8569V27.8569V28.8569H155.6V27.8569V26.8569V25.8569H156.6V24.8569V23.8569V22.8569H157.6H158.6H159.6V23.8569V24.8569V25.8569H158.6V26.8569V27.8569V28.8569H157.6V29.8569H156.6ZM167.6 29.8569H166.6H165.6H164.6H163.6H162.6H161.6V28.8569H160.6V27.8569V26.8569H161.6V25.8569H162.6H163.6H164.6H165.6V24.8569V23.8569H164.6H163.6V24.8569H162.6H161.6H160.6V23.8569H161.6V22.8569H162.6H163.6H164.6H165.6H166.6H167.6V23.8569H168.6V24.8569V25.8569V26.8569V27.8569V28.8569V29.8569H167.6ZM164.6 28.8569H165.6V27.8569V26.8569H164.6H163.6V27.8569V28.8569H164.6ZM170.24 26.1929V24.9449H174.112V26.1929H170.24ZM180.756 29.8569H179.756H178.756H177.756H176.756H175.756V28.8569H174.756V27.8569V26.8569V25.8569V24.8569V23.8569H175.756V22.8569H176.756H177.756H178.756H179.756H180.756H181.756V23.8569H182.756V24.8569H181.756H180.756H179.756V23.8569H178.756H177.756V24.8569V25.8569V26.8569V27.8569V28.8569H178.756H179.756V27.8569H180.756H181.756H182.756V28.8569H181.756V29.8569H180.756ZM189.756 29.8569H188.756H187.756H186.756H185.756H184.756V28.8569H183.756V27.8569V26.8569V25.8569V24.8569V23.8569H184.756V22.8569H185.756H186.756H187.756H188.756H189.756H190.756V23.8569H191.756V24.8569V25.8569V26.8569V27.8569V28.8569H190.756V29.8569H189.756ZM187.756 28.8569H188.756V27.8569V26.8569V25.8569V24.8569V23.8569H187.756H186.756V24.8569V25.8569V26.8569V27.8569V28.8569H187.756ZM194.756 29.8569H193.756H192.756V28.8569V27.8569V26.8569V25.8569V24.8569V23.8569V22.8569H193.756H194.756H195.756V23.8569V24.8569V25.8569V26.8569V27.8569V28.8569V29.8569H194.756ZM194.756 21.8569H193.756H192.756V20.8569V19.8569H193.756H194.756H195.756V20.8569V21.8569H194.756ZM203.756 29.8569H202.756H201.756V28.8569V27.8569V26.8569V25.8569V24.8569V23.8569H200.756H199.756V24.8569V25.8569V26.8569V27.8569V28.8569V29.8569H198.756H197.756H196.756V28.8569V27.8569V26.8569V25.8569V24.8569V23.8569V22.8569H197.756H198.756H199.756H200.756H201.756H202.756H203.756V23.8569H204.756V24.8569V25.8569V26.8569V27.8569V28.8569V29.8569H203.756ZM211.756 29.8569H210.756H209.756H208.756H207.756H206.756V28.8569H205.756V27.8569H206.756H207.756H208.756V28.8569H209.756H210.756V27.8569V26.8569H209.756H208.756H207.756H206.756V25.8569H205.756V24.8569V23.8569H206.756V22.8569H207.756H208.756H209.756H210.756H211.756H212.756V23.8569H213.756V24.8569H212.756H211.756H210.756V23.8569H209.756H208.756V24.8569V25.8569H209.756H210.756H211.756H212.756V26.8569H213.756V27.8569V28.8569H212.756V29.8569H211.756Z" fill="#F87E61"/>
<path d="M147.6 29.8569H147.1V30.3569H147.6V29.8569ZM147.6 26.8569H148.1V26.3569H147.6V26.8569ZM144.6 26.8569V26.3569H144.1V26.8569H144.6ZM144.6 29.8569V30.3569H145.1V29.8569H144.6ZM141.6 29.8569H141.1V30.3569H141.6V29.8569ZM141.6 23.8569V23.3569H141.1V23.8569H141.6ZM142.6 23.8569V24.3569H143.1V23.8569H142.6ZM142.6 22.8569V22.3569H142.1V22.8569H142.6ZM143.6 22.8569V23.3569H144.1V22.8569H143.6ZM143.6 21.8569V21.3569H143.1V21.8569H143.6ZM144.6 21.8569V22.3569H145.1V21.8569H144.6ZM144.6 20.8569V20.3569H144.1V20.8569H144.6ZM147.6 20.8569H148.1V20.3569H147.6V20.8569ZM147.6 21.8569H147.1V22.3569H147.6V21.8569ZM148.6 21.8569H149.1V21.3569H148.6V21.8569ZM148.6 22.8569H148.1V23.3569H148.6V22.8569ZM149.6 22.8569H150.1V22.3569H149.6V22.8569ZM149.6 24.8569H149.1V25.3569H149.6V24.8569ZM150.6 24.8569H151.1V24.3569H150.6V24.8569ZM150.6 29.8569V30.3569H151.1V29.8569H150.6ZM147.6 25.8569V26.3569H148.1V25.8569H147.6ZM147.6 24.8569H148.1V24.3569H147.6V24.8569ZM146.6 24.8569H146.1V25.3569H146.6V24.8569ZM146.6 22.8569H147.1V22.3569H146.6V22.8569ZM145.6 22.8569V22.3569H145.1V22.8569H145.6ZM145.6 24.8569V25.3569H146.1V24.8569H145.6ZM144.6 24.8569V24.3569H144.1V24.8569H144.6ZM144.6 25.8569H144.1V26.3569H144.6V25.8569ZM149.6 29.3569H148.6V30.3569H149.6V29.3569ZM148.6 29.3569H147.6V30.3569H148.6V29.3569ZM148.1 29.8569V28.8569H147.1V29.8569H148.1ZM148.1 28.8569V27.8569H147.1V28.8569H148.1ZM148.1 27.8569V26.8569H147.1V27.8569H148.1ZM147.6 26.3569H146.6V27.3569H147.6V26.3569ZM146.6 26.3569H145.6V27.3569H146.6V26.3569ZM145.6 26.3569H144.6V27.3569H145.6V26.3569ZM144.1 26.8569V27.8569H145.1V26.8569H144.1ZM144.1 27.8569V28.8569H145.1V27.8569H144.1ZM144.1 28.8569V29.8569H145.1V28.8569H144.1ZM144.6 29.3569H143.6V30.3569H144.6V29.3569ZM143.6 29.3569H142.6V30.3569H143.6V29.3569ZM142.6 29.3569H141.6V30.3569H142.6V29.3569ZM142.1 29.8569V28.8569H141.1V29.8569H142.1ZM142.1 28.8569V27.8569H141.1V28.8569H142.1ZM142.1 27.8569V26.8569H141.1V27.8569H142.1ZM142.1 26.8569V25.8569H141.1V26.8569H142.1ZM142.1 25.8569V24.8569H141.1V25.8569H142.1ZM142.1 24.8569V23.8569H141.1V24.8569H142.1ZM141.6 24.3569H142.6V23.3569H141.6V24.3569ZM143.1 23.8569V22.8569H142.1V23.8569H143.1ZM142.6 23.3569H143.6V22.3569H142.6V23.3569ZM144.1 22.8569V21.8569H143.1V22.8569H144.1ZM143.6 22.3569H144.6V21.3569H143.6V22.3569ZM145.1 21.8569V20.8569H144.1V21.8569H145.1ZM144.6 21.3569H145.6V20.3569H144.6V21.3569ZM145.6 21.3569H146.6V20.3569H145.6V21.3569ZM146.6 21.3569H147.6V20.3569H146.6V21.3569ZM147.1 20.8569V21.8569H148.1V20.8569H147.1ZM147.6 22.3569H148.6V21.3569H147.6V22.3569ZM148.1 21.8569V22.8569H149.1V21.8569H148.1ZM148.6 23.3569H149.6V22.3569H148.6V23.3569ZM149.1 22.8569V23.8569H150.1V22.8569H149.1ZM149.1 23.8569V24.8569H150.1V23.8569H149.1ZM149.6 25.3569H150.6V24.3569H149.6V25.3569ZM150.1 24.8569V25.8569H151.1V24.8569H150.1ZM150.1 25.8569V26.8569H151.1V25.8569H150.1ZM150.1 26.8569V27.8569H151.1V26.8569H150.1ZM150.1 27.8569V28.8569H151.1V27.8569H150.1ZM150.1 28.8569V29.8569H151.1V28.8569H150.1ZM150.6 29.3569H149.6V30.3569H150.6V29.3569ZM146.6 26.3569H147.6V25.3569H146.6V26.3569ZM148.1 25.8569V24.8569H147.1V25.8569H148.1ZM147.6 24.3569H146.6V25.3569H147.6V24.3569ZM147.1 24.8569V23.8569H146.1V24.8569H147.1ZM147.1 23.8569V22.8569H146.1V23.8569H147.1ZM146.6 22.3569H145.6V23.3569H146.6V22.3569ZM145.1 22.8569V23.8569H146.1V22.8569H145.1ZM145.1 23.8569V24.8569H146.1V23.8569H145.1ZM145.6 24.3569H144.6V25.3569H145.6V24.3569ZM144.1 24.8569V25.8569H145.1V24.8569H144.1ZM144.6 26.3569H145.6V25.3569H144.6V26.3569ZM145.6 26.3569H146.6V25.3569H145.6V26.3569ZM152.6 29.8569H152.1V30.3569H152.6V29.8569ZM152.6 28.8569H153.1V28.3569H152.6V28.8569ZM151.6 28.8569H151.1V29.3569H151.6V28.8569ZM151.6 25.8569H152.1V25.3569H151.6V25.8569ZM150.6 25.8569H150.1V26.3569H150.6V25.8569ZM150.6 22.8569V22.3569H150.1V22.8569H150.6ZM153.6 22.8569H154.1V22.3569H153.6V22.8569ZM153.6 25.8569H153.1V26.3569H153.6V25.8569ZM154.6 25.8569H155.1V25.3569H154.6V25.8569ZM154.6 28.8569H154.1V29.3569H154.6V28.8569ZM155.6 28.8569V29.3569H156.1V28.8569H155.6ZM155.6 25.8569V25.3569H155.1V25.8569H155.6ZM156.6 25.8569V26.3569H157.1V25.8569H156.6ZM156.6 22.8569V22.3569H156.1V22.8569H156.6ZM159.6 22.8569H160.1V22.3569H159.6V22.8569ZM159.6 25.8569V26.3569H160.1V25.8569H159.6ZM158.6 25.8569V25.3569H158.1V25.8569H158.6ZM158.6 28.8569V29.3569H159.1V28.8569H158.6ZM157.6 28.8569V28.3569H157.1V28.8569H157.6ZM157.6 29.8569V30.3569H158.1V29.8569H157.6ZM156.6 29.3569H155.6V30.3569H156.6V29.3569ZM155.6 29.3569H154.6V30.3569H155.6V29.3569ZM154.6 29.3569H153.6V30.3569H154.6V29.3569ZM153.6 29.3569H152.6V30.3569H153.6V29.3569ZM153.1 29.8569V28.8569H152.1V29.8569H153.1ZM152.6 28.3569H151.6V29.3569H152.6V28.3569ZM152.1 28.8569V27.8569H151.1V28.8569H152.1ZM152.1 27.8569V26.8569H151.1V27.8569H152.1ZM152.1 26.8569V25.8569H151.1V26.8569H152.1ZM151.6 25.3569H150.6V26.3569H151.6V25.3569ZM151.1 25.8569V24.8569H150.1V25.8569H151.1ZM151.1 24.8569V23.8569H150.1V24.8569H151.1ZM151.1 23.8569V22.8569H150.1V23.8569H151.1ZM150.6 23.3569H151.6V22.3569H150.6V23.3569ZM151.6 23.3569H152.6V22.3569H151.6V23.3569ZM152.6 23.3569H153.6V22.3569H152.6V23.3569ZM153.1 22.8569V23.8569H154.1V22.8569H153.1ZM153.1 23.8569V24.8569H154.1V23.8569H153.1ZM153.1 24.8569V25.8569H154.1V24.8569H153.1ZM153.6 26.3569H154.6V25.3569H153.6V26.3569ZM154.1 25.8569V26.8569H155.1V25.8569H154.1ZM154.1 26.8569V27.8569H155.1V26.8569H154.1ZM154.1 27.8569V28.8569H155.1V27.8569H154.1ZM154.6 29.3569H155.6V28.3569H154.6V29.3569ZM156.1 28.8569V27.8569H155.1V28.8569H156.1ZM156.1 27.8569V26.8569H155.1V27.8569H156.1ZM156.1 26.8569V25.8569H155.1V26.8569H156.1ZM155.6 26.3569H156.6V25.3569H155.6V26.3569ZM157.1 25.8569V24.8569H156.1V25.8569H157.1ZM157.1 24.8569V23.8569H156.1V24.8569H157.1ZM157.1 23.8569V22.8569H156.1V23.8569H157.1ZM156.6 23.3569H157.6V22.3569H156.6V23.3569ZM157.6 23.3569H158.6V22.3569H157.6V23.3569ZM158.6 23.3569H159.6V22.3569H158.6V23.3569ZM159.1 22.8569V23.8569H160.1V22.8569H159.1ZM159.1 23.8569V24.8569H160.1V23.8569H159.1ZM159.1 24.8569V25.8569H160.1V24.8569H159.1ZM159.6 25.3569H158.6V26.3569H159.6V25.3569ZM158.1 25.8569V26.8569H159.1V25.8569H158.1ZM158.1 26.8569V27.8569H159.1V26.8569H158.1ZM158.1 27.8569V28.8569H159.1V27.8569H158.1ZM158.6 28.3569H157.6V29.3569H158.6V28.3569ZM157.1 28.8569V29.8569H158.1V28.8569H157.1ZM157.6 29.3569H156.6V30.3569H157.6V29.3569ZM161.6 29.8569H161.1V30.3569H161.6V29.8569ZM161.6 28.8569H162.1V28.3569H161.6V28.8569ZM160.6 28.8569H160.1V29.3569H160.6V28.8569ZM160.6 26.8569V26.3569H160.1V26.8569H160.6ZM161.6 26.8569V27.3569H162.1V26.8569H161.6ZM161.6 25.8569V25.3569H161.1V25.8569H161.6ZM165.6 25.8569V26.3569H166.1V25.8569H165.6ZM165.6 23.8569H166.1V23.3569H165.6V23.8569ZM163.6 23.8569V23.3569H163.1V23.8569H163.6ZM163.6 24.8569V25.3569H164.1V24.8569H163.6ZM160.6 24.8569H160.1V25.3569H160.6V24.8569ZM160.6 23.8569V23.3569H160.1V23.8569H160.6ZM161.6 23.8569V24.3569H162.1V23.8569H161.6ZM161.6 22.8569V22.3569H161.1V22.8569H161.6ZM167.6 22.8569H168.1V22.3569H167.6V22.8569ZM167.6 23.8569H167.1V24.3569H167.6V23.8569ZM168.6 23.8569H169.1V23.3569H168.6V23.8569ZM168.6 29.8569V30.3569H169.1V29.8569H168.6ZM165.6 28.8569V29.3569H166.1V28.8569H165.6ZM165.6 26.8569H166.1V26.3569H165.6V26.8569ZM163.6 26.8569V26.3569H163.1V26.8569H163.6ZM163.6 28.8569H163.1V29.3569H163.6V28.8569ZM167.6 29.3569H166.6V30.3569H167.6V29.3569ZM166.6 29.3569H165.6V30.3569H166.6V29.3569ZM165.6 29.3569H164.6V30.3569H165.6V29.3569ZM164.6 29.3569H163.6V30.3569H164.6V29.3569ZM163.6 29.3569H162.6V30.3569H163.6V29.3569ZM162.6 29.3569H161.6V30.3569H162.6V29.3569ZM162.1 29.8569V28.8569H161.1V29.8569H162.1ZM161.6 28.3569H160.6V29.3569H161.6V28.3569ZM161.1 28.8569V27.8569H160.1V28.8569H161.1ZM161.1 27.8569V26.8569H160.1V27.8569H161.1ZM160.6 27.3569H161.6V26.3569H160.6V27.3569ZM162.1 26.8569V25.8569H161.1V26.8569H162.1ZM161.6 26.3569H162.6V25.3569H161.6V26.3569ZM162.6 26.3569H163.6V25.3569H162.6V26.3569ZM163.6 26.3569H164.6V25.3569H163.6V26.3569ZM164.6 26.3569H165.6V25.3569H164.6V26.3569ZM166.1 25.8569V24.8569H165.1V25.8569H166.1ZM166.1 24.8569V23.8569H165.1V24.8569H166.1ZM165.6 23.3569H164.6V24.3569H165.6V23.3569ZM164.6 23.3569H163.6V24.3569H164.6V23.3569ZM163.1 23.8569V24.8569H164.1V23.8569H163.1ZM163.6 24.3569H162.6V25.3569H163.6V24.3569ZM162.6 24.3569H161.6V25.3569H162.6V24.3569ZM161.6 24.3569H160.6V25.3569H161.6V24.3569ZM161.1 24.8569V23.8569H160.1V24.8569H161.1ZM160.6 24.3569H161.6V23.3569H160.6V24.3569ZM162.1 23.8569V22.8569H161.1V23.8569H162.1ZM161.6 23.3569H162.6V22.3569H161.6V23.3569ZM162.6 23.3569H163.6V22.3569H162.6V23.3569ZM163.6 23.3569H164.6V22.3569H163.6V23.3569ZM164.6 23.3569H165.6V22.3569H164.6V23.3569ZM165.6 23.3569H166.6V22.3569H165.6V23.3569ZM166.6 23.3569H167.6V22.3569H166.6V23.3569ZM167.1 22.8569V23.8569H168.1V22.8569H167.1ZM167.6 24.3569H168.6V23.3569H167.6V24.3569ZM168.1 23.8569V24.8569H169.1V23.8569H168.1ZM168.1 24.8569V25.8569H169.1V24.8569H168.1ZM168.1 25.8569V26.8569H169.1V25.8569H168.1ZM168.1 26.8569V27.8569H169.1V26.8569H168.1ZM168.1 27.8569V28.8569H169.1V27.8569H168.1ZM168.1 28.8569V29.8569H169.1V28.8569H168.1ZM168.6 29.3569H167.6V30.3569H168.6V29.3569ZM164.6 29.3569H165.6V28.3569H164.6V29.3569ZM166.1 28.8569V27.8569H165.1V28.8569H166.1ZM166.1 27.8569V26.8569H165.1V27.8569H166.1ZM165.6 26.3569H164.6V27.3569H165.6V26.3569ZM164.6 26.3569H163.6V27.3569H164.6V26.3569ZM163.1 26.8569V27.8569H164.1V26.8569H163.1ZM163.1 27.8569V28.8569H164.1V27.8569H163.1ZM163.6 29.3569H164.6V28.3569H163.6V29.3569ZM170.24 26.1929H169.74V26.6929H170.24V26.1929ZM170.24 24.9449V24.4449H169.74V24.9449H170.24ZM174.112 24.9449H174.612V24.4449H174.112V24.9449ZM174.112 26.1929V26.6929H174.612V26.1929H174.112ZM170.74 26.1929V24.9449H169.74V26.1929H170.74ZM170.24 25.4449H174.112V24.4449H170.24V25.4449ZM173.612 24.9449V26.1929H174.612V24.9449H173.612ZM174.112 25.6929H170.24V26.6929H174.112V25.6929ZM175.756 29.8569H175.256V30.3569H175.756V29.8569ZM175.756 28.8569H176.256V28.3569H175.756V28.8569ZM174.756 28.8569H174.256V29.3569H174.756V28.8569ZM174.756 23.8569V23.3569H174.256V23.8569H174.756ZM175.756 23.8569V24.3569H176.256V23.8569H175.756ZM175.756 22.8569V22.3569H175.256V22.8569H175.756ZM181.756 22.8569H182.256V22.3569H181.756V22.8569ZM181.756 23.8569H181.256V24.3569H181.756V23.8569ZM182.756 23.8569H183.256V23.3569H182.756V23.8569ZM182.756 24.8569V25.3569H183.256V24.8569H182.756ZM179.756 24.8569H179.256V25.3569H179.756V24.8569ZM179.756 23.8569H180.256V23.3569H179.756V23.8569ZM177.756 23.8569V23.3569H177.256V23.8569H177.756ZM177.756 28.8569H177.256V29.3569H177.756V28.8569ZM179.756 28.8569V29.3569H180.256V28.8569H179.756ZM179.756 27.8569V27.3569H179.256V27.8569H179.756ZM182.756 27.8569H183.256V27.3569H182.756V27.8569ZM182.756 28.8569V29.3569H183.256V28.8569H182.756ZM181.756 28.8569V28.3569H181.256V28.8569H181.756ZM181.756 29.8569V30.3569H182.256V29.8569H181.756ZM180.756 29.3569H179.756V30.3569H180.756V29.3569ZM179.756 29.3569H178.756V30.3569H179.756V29.3569ZM178.756 29.3569H177.756V30.3569H178.756V29.3569ZM177.756 29.3569H176.756V30.3569H177.756V29.3569ZM176.756 29.3569H175.756V30.3569H176.756V29.3569ZM176.256 29.8569V28.8569H175.256V29.8569H176.256ZM175.756 28.3569H174.756V29.3569H175.756V28.3569ZM175.256 28.8569V27.8569H174.256V28.8569H175.256ZM175.256 27.8569V26.8569H174.256V27.8569H175.256ZM175.256 26.8569V25.8569H174.256V26.8569H175.256ZM175.256 25.8569V24.8569H174.256V25.8569H175.256ZM175.256 24.8569V23.8569H174.256V24.8569H175.256ZM174.756 24.3569H175.756V23.3569H174.756V24.3569ZM176.256 23.8569V22.8569H175.256V23.8569H176.256ZM175.756 23.3569H176.756V22.3569H175.756V23.3569ZM176.756 23.3569H177.756V22.3569H176.756V23.3569ZM177.756 23.3569H178.756V22.3569H177.756V23.3569ZM178.756 23.3569H179.756V22.3569H178.756V23.3569ZM179.756 23.3569H180.756V22.3569H179.756V23.3569ZM180.756 23.3569H181.756V22.3569H180.756V23.3569ZM181.256 22.8569V23.8569H182.256V22.8569H181.256ZM181.756 24.3569H182.756V23.3569H181.756V24.3569ZM182.256 23.8569V24.8569H183.256V23.8569H182.256ZM182.756 24.3569H181.756V25.3569H182.756V24.3569ZM181.756 24.3569H180.756V25.3569H181.756V24.3569ZM180.756 24.3569H179.756V25.3569H180.756V24.3569ZM180.256 24.8569V23.8569H179.256V24.8569H180.256ZM179.756 23.3569H178.756V24.3569H179.756V23.3569ZM178.756 23.3569H177.756V24.3569H178.756V23.3569ZM177.256 23.8569V24.8569H178.256V23.8569H177.256ZM177.256 24.8569V25.8569H178.256V24.8569H177.256ZM177.256 25.8569V26.8569H178.256V25.8569H177.256ZM177.256 26.8569V27.8569H178.256V26.8569H177.256ZM177.256 27.8569V28.8569H178.256V27.8569H177.256ZM177.756 29.3569H178.756V28.3569H177.756V29.3569ZM178.756 29.3569H179.756V28.3569H178.756V29.3569ZM180.256 28.8569V27.8569H179.256V28.8569H180.256ZM179.756 28.3569H180.756V27.3569H179.756V28.3569ZM180.756 28.3569H181.756V27.3569H180.756V28.3569ZM181.756 28.3569H182.756V27.3569H181.756V28.3569ZM182.256 27.8569V28.8569H183.256V27.8569H182.256ZM182.756 28.3569H181.756V29.3569H182.756V28.3569ZM181.256 28.8569V29.8569H182.256V28.8569H181.256ZM181.756 29.3569H180.756V30.3569H181.756V29.3569ZM184.756 29.8569H184.256V30.3569H184.756V29.8569ZM184.756 28.8569H185.256V28.3569H184.756V28.8569ZM183.756 28.8569H183.256V29.3569H183.756V28.8569ZM183.756 23.8569V23.3569H183.256V23.8569H183.756ZM184.756 23.8569V24.3569H185.256V23.8569H184.756ZM184.756 22.8569V22.3569H184.256V22.8569H184.756ZM190.756 22.8569H191.256V22.3569H190.756V22.8569ZM190.756 23.8569H190.256V24.3569H190.756V23.8569ZM191.756 23.8569H192.256V23.3569H191.756V23.8569ZM191.756 28.8569V29.3569H192.256V28.8569H191.756ZM190.756 28.8569V28.3569H190.256V28.8569H190.756ZM190.756 29.8569V30.3569H191.256V29.8569H190.756ZM188.756 28.8569V29.3569H189.256V28.8569H188.756ZM188.756 23.8569H189.256V23.3569H188.756V23.8569ZM186.756 23.8569V23.3569H186.256V23.8569H186.756ZM186.756 28.8569H186.256V29.3569H186.756V28.8569ZM189.756 29.3569H188.756V30.3569H189.756V29.3569ZM188.756 29.3569H187.756V30.3569H188.756V29.3569ZM187.756 29.3569H186.756V30.3569H187.756V29.3569ZM186.756 29.3569H185.756V30.3569H186.756V29.3569ZM185.756 29.3569H184.756V30.3569H185.756V29.3569ZM185.256 29.8569V28.8569H184.256V29.8569H185.256ZM184.756 28.3569H183.756V29.3569H184.756V28.3569ZM184.256 28.8569V27.8569H183.256V28.8569H184.256ZM184.256 27.8569V26.8569H183.256V27.8569H184.256ZM184.256 26.8569V25.8569H183.256V26.8569H184.256ZM184.256 25.8569V24.8569H183.256V25.8569H184.256ZM184.256 24.8569V23.8569H183.256V24.8569H184.256ZM183.756 24.3569H184.756V23.3569H183.756V24.3569ZM185.256 23.8569V22.8569H184.256V23.8569H185.256ZM184.756 23.3569H185.756V22.3569H184.756V23.3569ZM185.756 23.3569H186.756V22.3569H185.756V23.3569ZM186.756 23.3569H187.756V22.3569H186.756V23.3569ZM187.756 23.3569H188.756V22.3569H187.756V23.3569ZM188.756 23.3569H189.756V22.3569H188.756V23.3569ZM189.756 23.3569H190.756V22.3569H189.756V23.3569ZM190.256 22.8569V23.8569H191.256V22.8569H190.256ZM190.756 24.3569H191.756V23.3569H190.756V24.3569ZM191.256 23.8569V24.8569H192.256V23.8569H191.256ZM191.256 24.8569V25.8569H192.256V24.8569H191.256ZM191.256 25.8569V26.8569H192.256V25.8569H191.256ZM191.256 26.8569V27.8569H192.256V26.8569H191.256ZM191.256 27.8569V28.8569H192.256V27.8569H191.256ZM191.756 28.3569H190.756V29.3569H191.756V28.3569ZM190.256 28.8569V29.8569H191.256V28.8569H190.256ZM190.756 29.3569H189.756V30.3569H190.756V29.3569ZM187.756 29.3569H188.756V28.3569H187.756V29.3569ZM189.256 28.8569V27.8569H188.256V28.8569H189.256ZM189.256 27.8569V26.8569H188.256V27.8569H189.256ZM189.256 26.8569V25.8569H188.256V26.8569H189.256ZM189.256 25.8569V24.8569H188.256V25.8569H189.256ZM189.256 24.8569V23.8569H188.256V24.8569H189.256ZM188.756 23.3569H187.756V24.3569H188.756V23.3569ZM187.756 23.3569H186.756V24.3569H187.756V23.3569ZM186.256 23.8569V24.8569H187.256V23.8569H186.256ZM186.256 24.8569V25.8569H187.256V24.8569H186.256ZM186.256 25.8569V26.8569H187.256V25.8569H186.256ZM186.256 26.8569V27.8569H187.256V26.8569H186.256ZM186.256 27.8569V28.8569H187.256V27.8569H186.256ZM186.756 29.3569H187.756V28.3569H186.756V29.3569ZM192.756 29.8569H192.256V30.3569H192.756V29.8569ZM192.756 22.8569V22.3569H192.256V22.8569H192.756ZM195.756 22.8569H196.256V22.3569H195.756V22.8569ZM195.756 29.8569V30.3569H196.256V29.8569H195.756ZM192.756 21.8569H192.256V22.3569H192.756V21.8569ZM192.756 19.8569V19.3569H192.256V19.8569H192.756ZM195.756 19.8569H196.256V19.3569H195.756V19.8569ZM195.756 21.8569V22.3569H196.256V21.8569H195.756ZM194.756 29.3569H193.756V30.3569H194.756V29.3569ZM193.756 29.3569H192.756V30.3569H193.756V29.3569ZM193.256 29.8569V28.8569H192.256V29.8569H193.256ZM193.256 28.8569V27.8569H192.256V28.8569H193.256ZM193.256 27.8569V26.8569H192.256V27.8569H193.256ZM193.256 26.8569V25.8569H192.256V26.8569H193.256ZM193.256 25.8569V24.8569H192.256V25.8569H193.256ZM193.256 24.8569V23.8569H192.256V24.8569H193.256ZM193.256 23.8569V22.8569H192.256V23.8569H193.256ZM192.756 23.3569H193.756V22.3569H192.756V23.3569ZM193.756 23.3569H194.756V22.3569H193.756V23.3569ZM194.756 23.3569H195.756V22.3569H194.756V23.3569ZM195.256 22.8569V23.8569H196.256V22.8569H195.256ZM195.256 23.8569V24.8569H196.256V23.8569H195.256ZM195.256 24.8569V25.8569H196.256V24.8569H195.256ZM195.256 25.8569V26.8569H196.256V25.8569H195.256ZM195.256 26.8569V27.8569H196.256V26.8569H195.256ZM195.256 27.8569V28.8569H196.256V27.8569H195.256ZM195.256 28.8569V29.8569H196.256V28.8569H195.256ZM195.756 29.3569H194.756V30.3569H195.756V29.3569ZM194.756 21.3569H193.756V22.3569H194.756V21.3569ZM193.756 21.3569H192.756V22.3569H193.756V21.3569ZM193.256 21.8569V20.8569H192.256V21.8569H193.256ZM193.256 20.8569V19.8569H192.256V20.8569H193.256ZM192.756 20.3569H193.756V19.3569H192.756V20.3569ZM193.756 20.3569H194.756V19.3569H193.756V20.3569ZM194.756 20.3569H195.756V19.3569H194.756V20.3569ZM195.256 19.8569V20.8569H196.256V19.8569H195.256ZM195.256 20.8569V21.8569H196.256V20.8569H195.256ZM195.756 21.3569H194.756V22.3569H195.756V21.3569ZM201.756 29.8569H201.256V30.3569H201.756V29.8569ZM201.756 23.8569H202.256V23.3569H201.756V23.8569ZM199.756 23.8569V23.3569H199.256V23.8569H199.756ZM199.756 29.8569V30.3569H200.256V29.8569H199.756ZM196.756 29.8569H196.256V30.3569H196.756V29.8569ZM196.756 22.8569V22.3569H196.256V22.8569H196.756ZM203.756 22.8569H204.256V22.3569H203.756V22.8569ZM203.756 23.8569H203.256V24.3569H203.756V23.8569ZM204.756 23.8569H205.256V23.3569H204.756V23.8569ZM204.756 29.8569V30.3569H205.256V29.8569H204.756ZM203.756 29.3569H202.756V30.3569H203.756V29.3569ZM202.756 29.3569H201.756V30.3569H202.756V29.3569ZM202.256 29.8569V28.8569H201.256V29.8569H202.256ZM202.256 28.8569V27.8569H201.256V28.8569H202.256ZM202.256 27.8569V26.8569H201.256V27.8569H202.256ZM202.256 26.8569V25.8569H201.256V26.8569H202.256ZM202.256 25.8569V24.8569H201.256V25.8569H202.256ZM202.256 24.8569V23.8569H201.256V24.8569H202.256ZM201.756 23.3569H200.756V24.3569H201.756V23.3569ZM200.756 23.3569H199.756V24.3569H200.756V23.3569ZM199.256 23.8569V24.8569H200.256V23.8569H199.256ZM199.256 24.8569V25.8569H200.256V24.8569H199.256ZM199.256 25.8569V26.8569H200.256V25.8569H199.256ZM199.256 26.8569V27.8569H200.256V26.8569H199.256ZM199.256 27.8569V28.8569H200.256V27.8569H199.256ZM199.256 28.8569V29.8569H200.256V28.8569H199.256ZM199.756 29.3569H198.756V30.3569H199.756V29.3569ZM198.756 29.3569H197.756V30.3569H198.756V29.3569ZM197.756 29.3569H196.756V30.3569H197.756V29.3569ZM197.256 29.8569V28.8569H196.256V29.8569H197.256ZM197.256 28.8569V27.8569H196.256V28.8569H197.256ZM197.256 27.8569V26.8569H196.256V27.8569H197.256ZM197.256 26.8569V25.8569H196.256V26.8569H197.256ZM197.256 25.8569V24.8569H196.256V25.8569H197.256ZM197.256 24.8569V23.8569H196.256V24.8569H197.256ZM197.256 23.8569V22.8569H196.256V23.8569H197.256ZM196.756 23.3569H197.756V22.3569H196.756V23.3569ZM197.756 23.3569H198.756V22.3569H197.756V23.3569ZM198.756 23.3569H199.756V22.3569H198.756V23.3569ZM199.756 23.3569H200.756V22.3569H199.756V23.3569ZM200.756 23.3569H201.756V22.3569H200.756V23.3569ZM201.756 23.3569H202.756V22.3569H201.756V23.3569ZM202.756 23.3569H203.756V22.3569H202.756V23.3569ZM203.256 22.8569V23.8569H204.256V22.8569H203.256ZM203.756 24.3569H204.756V23.3569H203.756V24.3569ZM204.256 23.8569V24.8569H205.256V23.8569H204.256ZM204.256 24.8569V25.8569H205.256V24.8569H204.256ZM204.256 25.8569V26.8569H205.256V25.8569H204.256ZM204.256 26.8569V27.8569H205.256V26.8569H204.256ZM204.256 27.8569V28.8569H205.256V27.8569H204.256ZM204.256 28.8569V29.8569H205.256V28.8569H204.256ZM204.756 29.3569H203.756V30.3569H204.756V29.3569ZM206.756 29.8569H206.256V30.3569H206.756V29.8569ZM206.756 28.8569H207.256V28.3569H206.756V28.8569ZM205.756 28.8569H205.256V29.3569H205.756V28.8569ZM205.756 27.8569V27.3569H205.256V27.8569H205.756ZM208.756 27.8569H209.256V27.3569H208.756V27.8569ZM208.756 28.8569H208.256V29.3569H208.756V28.8569ZM210.756 28.8569V29.3569H211.256V28.8569H210.756ZM210.756 26.8569H211.256V26.3569H210.756V26.8569ZM206.756 26.8569H206.256V27.3569H206.756V26.8569ZM206.756 25.8569H207.256V25.3569H206.756V25.8569ZM205.756 25.8569H205.256V26.3569H205.756V25.8569ZM205.756 23.8569V23.3569H205.256V23.8569H205.756ZM206.756 23.8569V24.3569H207.256V23.8569H206.756ZM206.756 22.8569V22.3569H206.256V22.8569H206.756ZM212.756 22.8569H213.256V22.3569H212.756V22.8569ZM212.756 23.8569H212.256V24.3569H212.756V23.8569ZM213.756 23.8569H214.256V23.3569H213.756V23.8569ZM213.756 24.8569V25.3569H214.256V24.8569H213.756ZM210.756 24.8569H210.256V25.3569H210.756V24.8569ZM210.756 23.8569H211.256V23.3569H210.756V23.8569ZM208.756 23.8569V23.3569H208.256V23.8569H208.756ZM208.756 25.8569H208.256V26.3569H208.756V25.8569ZM212.756 25.8569H213.256V25.3569H212.756V25.8569ZM212.756 26.8569H212.256V27.3569H212.756V26.8569ZM213.756 26.8569H214.256V26.3569H213.756V26.8569ZM213.756 28.8569V29.3569H214.256V28.8569H213.756ZM212.756 28.8569V28.3569H212.256V28.8569H212.756ZM212.756 29.8569V30.3569H213.256V29.8569H212.756ZM211.756 29.3569H210.756V30.3569H211.756V29.3569ZM210.756 29.3569H209.756V30.3569H210.756V29.3569ZM209.756 29.3569H208.756V30.3569H209.756V29.3569ZM208.756 29.3569H207.756V30.3569H208.756V29.3569ZM207.756 29.3569H206.756V30.3569H207.756V29.3569ZM207.256 29.8569V28.8569H206.256V29.8569H207.256ZM206.756 28.3569H205.756V29.3569H206.756V28.3569ZM206.256 28.8569V27.8569H205.256V28.8569H206.256ZM205.756 28.3569H206.756V27.3569H205.756V28.3569ZM206.756 28.3569H207.756V27.3569H206.756V28.3569ZM207.756 28.3569H208.756V27.3569H207.756V28.3569ZM208.256 27.8569V28.8569H209.256V27.8569H208.256ZM208.756 29.3569H209.756V28.3569H208.756V29.3569ZM209.756 29.3569H210.756V28.3569H209.756V29.3569ZM211.256 28.8569V27.8569H210.256V28.8569H211.256ZM211.256 27.8569V26.8569H210.256V27.8569H211.256ZM210.756 26.3569H209.756V27.3569H210.756V26.3569ZM209.756 26.3569H208.756V27.3569H209.756V26.3569ZM208.756 26.3569H207.756V27.3569H208.756V26.3569ZM207.756 26.3569H206.756V27.3569H207.756V26.3569ZM207.256 26.8569V25.8569H206.256V26.8569H207.256ZM206.756 25.3569H205.756V26.3569H206.756V25.3569ZM206.256 25.8569V24.8569H205.256V25.8569H206.256ZM206.256 24.8569V23.8569H205.256V24.8569H206.256ZM205.756 24.3569H206.756V23.3569H205.756V24.3569ZM207.256 23.8569V22.8569H206.256V23.8569H207.256ZM206.756 23.3569H207.756V22.3569H206.756V23.3569ZM207.756 23.3569H208.756V22.3569H207.756V23.3569ZM208.756 23.3569H209.756V22.3569H208.756V23.3569ZM209.756 23.3569H210.756V22.3569H209.756V23.3569ZM210.756 23.3569H211.756V22.3569H210.756V23.3569ZM211.756 23.3569H212.756V22.3569H211.756V23.3569ZM212.256 22.8569V23.8569H213.256V22.8569H212.256ZM212.756 24.3569H213.756V23.3569H212.756V24.3569ZM213.256 23.8569V24.8569H214.256V23.8569H213.256ZM213.756 24.3569H212.756V25.3569H213.756V24.3569ZM212.756 24.3569H211.756V25.3569H212.756V24.3569ZM211.756 24.3569H210.756V25.3569H211.756V24.3569ZM211.256 24.8569V23.8569H210.256V24.8569H211.256ZM210.756 23.3569H209.756V24.3569H210.756V23.3569ZM209.756 23.3569H208.756V24.3569H209.756V23.3569ZM208.256 23.8569V24.8569H209.256V23.8569H208.256ZM208.256 24.8569V25.8569H209.256V24.8569H208.256ZM208.756 26.3569H209.756V25.3569H208.756V26.3569ZM209.756 26.3569H210.756V25.3569H209.756V26.3569ZM210.756 26.3569H211.756V25.3569H210.756V26.3569ZM211.756 26.3569H212.756V25.3569H211.756V26.3569ZM212.256 25.8569V26.8569H213.256V25.8569H212.256ZM212.756 27.3569H213.756V26.3569H212.756V27.3569ZM213.256 26.8569V27.8569H214.256V26.8569H213.256ZM213.256 27.8569V28.8569H214.256V27.8569H213.256ZM213.756 28.3569H212.756V29.3569H213.756V28.3569ZM212.256 28.8569V29.8569H213.256V28.8569H212.256ZM212.756 29.3569H211.756V30.3569H212.756V29.3569Z" fill="#543847" mask="url(#path-2-outside-1_105_6)"/>
<mask id="path-4-outside-2_105_6" maskUnits="userSpaceOnUse" x="160.829" y="61.2856" width="35" height="12" fill="black">
<rect fill="white" x="160.829" y="61.2856" width="35" height="12"/>
<path d="M167.829 72.2856H166.829H165.829H164.829H163.829H162.829H161.829V71.2856V70.2856V69.2856V68.2856V67.2856V66.2856V65.2856V64.2856V63.2856H162.829H163.829H164.829H165.829H166.829H167.829H168.829V64.2856H169.829V65.2856V66.2856V67.2856H168.829H167.829V68.2856H168.829H169.829V69.2856V70.2856V71.2856H168.829V72.2856H167.829ZM165.829 71.2856H166.829V70.2856V69.2856V68.2856H165.829H164.829V69.2856V70.2856V71.2856H165.829ZM165.829 67.2856H166.829V66.2856V65.2856V64.2856H165.829H164.829V65.2856V66.2856V67.2856H165.829ZM176.829 72.2856H175.829H174.829H173.829H172.829H171.829V71.2856H170.829V70.2856V69.2856V68.2856V67.2856V66.2856H171.829V65.2856H172.829H173.829H174.829H175.829H176.829H177.829V66.2856H178.829V67.2856V68.2856V69.2856H177.829H176.829H175.829H174.829H173.829V70.2856V71.2856H174.829H175.829V70.2856H176.829H177.829H178.829V71.2856H177.829V72.2856H176.829ZM174.829 68.2856H175.829V67.2856V66.2856H174.829H173.829V67.2856V68.2856H174.829ZM185.829 72.2856H184.829H183.829H182.829H181.829H180.829V71.2856H179.829V70.2856H180.829H181.829H182.829V71.2856H183.829H184.829V70.2856V69.2856H183.829H182.829H181.829H180.829V68.2856H179.829V67.2856V66.2856H180.829V65.2856H181.829H182.829H183.829H184.829H185.829H186.829V66.2856H187.829V67.2856H186.829H185.829H184.829V66.2856H183.829H182.829V67.2856V68.2856H183.829H184.829H185.829H186.829V69.2856H187.829V70.2856V71.2856H186.829V72.2856H185.829ZM193.829 72.2856H192.829H191.829V71.2856H190.829V70.2856H189.829V69.2856V68.2856V67.2856V66.2856H188.829V65.2856H189.829V64.2856V63.2856V62.2856H190.829H191.829H192.829V63.2856V64.2856V65.2856H193.829H194.829V66.2856H193.829H192.829V67.2856V68.2856V69.2856V70.2856H193.829V71.2856H194.829V72.2856H193.829Z"/>
</mask>
<path d="M167.829 72.2856H166.829H165.829H164.829H163.829H162.829H161.829V71.2856V70.2856V69.2856V68.2856V67.2856V66.2856V65.2856V64.2856V63.2856H162.829H163.829H164.829H165.829H166.829H167.829H168.829V64.2856H169.829V65.2856V66.2856V67.2856H168.829H167.829V68.2856H168.829H169.829V69.2856V70.2856V71.2856H168.829V72.2856H167.829ZM165.829 71.2856H166.829V70.2856V69.2856V68.2856H165.829H164.829V69.2856V70.2856V71.2856H165.829ZM165.829 67.2856H166.829V66.2856V65.2856V64.2856H165.829H164.829V65.2856V66.2856V67.2856H165.829ZM176.829 72.2856H175.829H174.829H173.829H172.829H171.829V71.2856H170.829V70.2856V69.2856V68.2856V67.2856V66.2856H171.829V65.2856H172.829H173.829H174.829H175.829H176.829H177.829V66.2856H178.829V67.2856V68.2856V69.2856H177.829H176.829H175.829H174.829H173.829V70.2856V71.2856H174.829H175.829V70.2856H176.829H177.829H178.829V71.2856H177.829V72.2856H176.829ZM174.829 68.2856H175.829V67.2856V66.2856H174.829H173.829V67.2856V68.2856H174.829ZM185.829 72.2856H184.829H183.829H182.829H181.829H180.829V71.2856H179.829V70.2856H180.829H181.829H182.829V71.2856H183.829H184.829V70.2856V69.2856H183.829H182.829H181.829H180.829V68.2856H179.829V67.2856V66.2856H180.829V65.2856H181.829H182.829H183.829H184.829H185.829H186.829V66.2856H187.829V67.2856H186.829H185.829H184.829V66.2856H183.829H182.829V67.2856V68.2856H183.829H184.829H185.829H186.829V69.2856H187.829V70.2856V71.2856H186.829V72.2856H185.829ZM193.829 72.2856H192.829H191.829V71.2856H190.829V70.2856H189.829V69.2856V68.2856V67.2856V66.2856H188.829V65.2856H189.829V64.2856V63.2856V62.2856H190.829H191.829H192.829V63.2856V64.2856V65.2856H193.829H194.829V66.2856H193.829H192.829V67.2856V68.2856V69.2856V70.2856H193.829V71.2856H194.829V72.2856H193.829Z" fill="#F87E61"/>
<path d="M161.829 72.2856H161.329V72.7856H161.829V72.2856ZM161.829 63.2856V62.7856H161.329V63.2856H161.829ZM168.829 63.2856H169.329V62.7856H168.829V63.2856ZM168.829 64.2856H168.329V64.7856H168.829V64.2856ZM169.829 64.2856H170.329V63.7856H169.829V64.2856ZM169.829 67.2856V67.7856H170.329V67.2856H169.829ZM167.829 67.2856V66.7856H167.329V67.2856H167.829ZM167.829 68.2856H167.329V68.7856H167.829V68.2856ZM169.829 68.2856H170.329V67.7856H169.829V68.2856ZM169.829 71.2856V71.7856H170.329V71.2856H169.829ZM168.829 71.2856V70.7856H168.329V71.2856H168.829ZM168.829 72.2856V72.7856H169.329V72.2856H168.829ZM166.829 71.2856V71.7856H167.329V71.2856H166.829ZM166.829 68.2856H167.329V67.7856H166.829V68.2856ZM164.829 68.2856V67.7856H164.329V68.2856H164.829ZM164.829 71.2856H164.329V71.7856H164.829V71.2856ZM166.829 67.2856V67.7856H167.329V67.2856H166.829ZM166.829 64.2856H167.329V63.7856H166.829V64.2856ZM164.829 64.2856V63.7856H164.329V64.2856H164.829ZM164.829 67.2856H164.329V67.7856H164.829V67.2856ZM167.829 71.7856H166.829V72.7856H167.829V71.7856ZM166.829 71.7856H165.829V72.7856H166.829V71.7856ZM165.829 71.7856H164.829V72.7856H165.829V71.7856ZM164.829 71.7856H163.829V72.7856H164.829V71.7856ZM163.829 71.7856H162.829V72.7856H163.829V71.7856ZM162.829 71.7856H161.829V72.7856H162.829V71.7856ZM162.329 72.2856V71.2856H161.329V72.2856H162.329ZM162.329 71.2856V70.2856H161.329V71.2856H162.329ZM162.329 70.2856V69.2856H161.329V70.2856H162.329ZM162.329 69.2856V68.2856H161.329V69.2856H162.329ZM162.329 68.2856V67.2856H161.329V68.2856H162.329ZM162.329 67.2856V66.2856H161.329V67.2856H162.329ZM162.329 66.2856V65.2856H161.329V66.2856H162.329ZM162.329 65.2856V64.2856H161.329V65.2856H162.329ZM162.329 64.2856V63.2856H161.329V64.2856H162.329ZM161.829 63.7856H162.829V62.7856H161.829V63.7856ZM162.829 63.7856H163.829V62.7856H162.829V63.7856ZM163.829 63.7856H164.829V62.7856H163.829V63.7856ZM164.829 63.7856H165.829V62.7856H164.829V63.7856ZM165.829 63.7856H166.829V62.7856H165.829V63.7856ZM166.829 63.7856H167.829V62.7856H166.829V63.7856ZM167.829 63.7856H168.829V62.7856H167.829V63.7856ZM168.329 63.2856V64.2856H169.329V63.2856H168.329ZM168.829 64.7856H169.829V63.7856H168.829V64.7856ZM169.329 64.2856V65.2856H170.329V64.2856H169.329ZM169.329 65.2856V66.2856H170.329V65.2856H169.329ZM169.329 66.2856V67.2856H170.329V66.2856H169.329ZM169.829 66.7856H168.829V67.7856H169.829V66.7856ZM168.829 66.7856H167.829V67.7856H168.829V66.7856ZM167.329 67.2856V68.2856H168.329V67.2856H167.329ZM167.829 68.7856H168.829V67.7856H167.829V68.7856ZM168.829 68.7856H169.829V67.7856H168.829V68.7856ZM169.329 68.2856V69.2856H170.329V68.2856H169.329ZM169.329 69.2856V70.2856H170.329V69.2856H169.329ZM169.329 70.2856V71.2856H170.329V70.2856H169.329ZM169.829 70.7856H168.829V71.7856H169.829V70.7856ZM168.329 71.2856V72.2856H169.329V71.2856H168.329ZM168.829 71.7856H167.829V72.7856H168.829V71.7856ZM165.829 71.7856H166.829V70.7856H165.829V71.7856ZM167.329 71.2856V70.2856H166.329V71.2856H167.329ZM167.329 70.2856V69.2856H166.329V70.2856H167.329ZM167.329 69.2856V68.2856H166.329V69.2856H167.329ZM166.829 67.7856H165.829V68.7856H166.829V67.7856ZM165.829 67.7856H164.829V68.7856H165.829V67.7856ZM164.329 68.2856V69.2856H165.329V68.2856H164.329ZM164.329 69.2856V70.2856H165.329V69.2856H164.329ZM164.329 70.2856V71.2856H165.329V70.2856H164.329ZM164.829 71.7856H165.829V70.7856H164.829V71.7856ZM165.829 67.7856H166.829V66.7856H165.829V67.7856ZM167.329 67.2856V66.2856H166.329V67.2856H167.329ZM167.329 66.2856V65.2856H166.329V66.2856H167.329ZM167.329 65.2856V64.2856H166.329V65.2856H167.329ZM166.829 63.7856H165.829V64.7856H166.829V63.7856ZM165.829 63.7856H164.829V64.7856H165.829V63.7856ZM164.329 64.2856V65.2856H165.329V64.2856H164.329ZM164.329 65.2856V66.2856H165.329V65.2856H164.329ZM164.329 66.2856V67.2856H165.329V66.2856H164.329ZM164.829 67.7856H165.829V66.7856H164.829V67.7856ZM171.829 72.2856H171.329V72.7856H171.829V72.2856ZM171.829 71.2856H172.329V70.7856H171.829V71.2856ZM170.829 71.2856H170.329V71.7856H170.829V71.2856ZM170.829 66.2856V65.7856H170.329V66.2856H170.829ZM171.829 66.2856V66.7856H172.329V66.2856H171.829ZM171.829 65.2856V64.7856H171.329V65.2856H171.829ZM177.829 65.2856H178.329V64.7856H177.829V65.2856ZM177.829 66.2856H177.329V66.7856H177.829V66.2856ZM178.829 66.2856H179.329V65.7856H178.829V66.2856ZM178.829 69.2856V69.7856H179.329V69.2856H178.829ZM173.829 69.2856V68.7856H173.329V69.2856H173.829ZM173.829 71.2856H173.329V71.7856H173.829V71.2856ZM175.829 71.2856V71.7856H176.329V71.2856H175.829ZM175.829 70.2856V69.7856H175.329V70.2856H175.829ZM178.829 70.2856H179.329V69.7856H178.829V70.2856ZM178.829 71.2856V71.7856H179.329V71.2856H178.829ZM177.829 71.2856V70.7856H177.329V71.2856H177.829ZM177.829 72.2856V72.7856H178.329V72.2856H177.829ZM175.829 68.2856V68.7856H176.329V68.2856H175.829ZM175.829 66.2856H176.329V65.7856H175.829V66.2856ZM173.829 66.2856V65.7856H173.329V66.2856H173.829ZM173.829 68.2856H173.329V68.7856H173.829V68.2856ZM176.829 71.7856H175.829V72.7856H176.829V71.7856ZM175.829 71.7856H174.829V72.7856H175.829V71.7856ZM174.829 71.7856H173.829V72.7856H174.829V71.7856ZM173.829 71.7856H172.829V72.7856H173.829V71.7856ZM172.829 71.7856H171.829V72.7856H172.829V71.7856ZM172.329 72.2856V71.2856H171.329V72.2856H172.329ZM171.829 70.7856H170.829V71.7856H171.829V70.7856ZM171.329 71.2856V70.2856H170.329V71.2856H171.329ZM171.329 70.2856V69.2856H170.329V70.2856H171.329ZM171.329 69.2856V68.2856H170.329V69.2856H171.329ZM171.329 68.2856V67.2856H170.329V68.2856H171.329ZM171.329 67.2856V66.2856H170.329V67.2856H171.329ZM170.829 66.7856H171.829V65.7856H170.829V66.7856ZM172.329 66.2856V65.2856H171.329V66.2856H172.329ZM171.829 65.7856H172.829V64.7856H171.829V65.7856ZM172.829 65.7856H173.829V64.7856H172.829V65.7856ZM173.829 65.7856H174.829V64.7856H173.829V65.7856ZM174.829 65.7856H175.829V64.7856H174.829V65.7856ZM175.829 65.7856H176.829V64.7856H175.829V65.7856ZM176.829 65.7856H177.829V64.7856H176.829V65.7856ZM177.329 65.2856V66.2856H178.329V65.2856H177.329ZM177.829 66.7856H178.829V65.7856H177.829V66.7856ZM178.329 66.2856V67.2856H179.329V66.2856H178.329ZM178.329 67.2856V68.2856H179.329V67.2856H178.329ZM178.329 68.2856V69.2856H179.329V68.2856H178.329ZM178.829 68.7856H177.829V69.7856H178.829V68.7856ZM177.829 68.7856H176.829V69.7856H177.829V68.7856ZM176.829 68.7856H175.829V69.7856H176.829V68.7856ZM175.829 68.7856H174.829V69.7856H175.829V68.7856ZM174.829 68.7856H173.829V69.7856H174.829V68.7856ZM173.329 69.2856V70.2856H174.329V69.2856H173.329ZM173.329 70.2856V71.2856H174.329V70.2856H173.329ZM173.829 71.7856H174.829V70.7856H173.829V71.7856ZM174.829 71.7856H175.829V70.7856H174.829V71.7856ZM176.329 71.2856V70.2856H175.329V71.2856H176.329ZM175.829 70.7856H176.829V69.7856H175.829V70.7856ZM176.829 70.7856H177.829V69.7856H176.829V70.7856ZM177.829 70.7856H178.829V69.7856H177.829V70.7856ZM178.329 70.2856V71.2856H179.329V70.2856H178.329ZM178.829 70.7856H177.829V71.7856H178.829V70.7856ZM177.329 71.2856V72.2856H178.329V71.2856H177.329ZM177.829 71.7856H176.829V72.7856H177.829V71.7856ZM174.829 68.7856H175.829V67.7856H174.829V68.7856ZM176.329 68.2856V67.2856H175.329V68.2856H176.329ZM176.329 67.2856V66.2856H175.329V67.2856H176.329ZM175.829 65.7856H174.829V66.7856H175.829V65.7856ZM174.829 65.7856H173.829V66.7856H174.829V65.7856ZM173.329 66.2856V67.2856H174.329V66.2856H173.329ZM173.329 67.2856V68.2856H174.329V67.2856H173.329ZM173.829 68.7856H174.829V67.7856H173.829V68.7856ZM180.829 72.2856H180.329V72.7856H180.829V72.2856ZM180.829 71.2856H181.329V70.7856H180.829V71.2856ZM179.829 71.2856H179.329V71.7856H179.829V71.2856ZM179.829 70.2856V69.7856H179.329V70.2856H179.829ZM182.829 70.2856H183.329V69.7856H182.829V70.2856ZM182.829 71.2856H182.329V71.7856H182.829V71.2856ZM184.829 71.2856V71.7856H185.329V71.2856H184.829ZM184.829 69.2856H185.329V68.7856H184.829V69.2856ZM180.829 69.2856H180.329V69.7856H180.829V69.2856ZM180.829 68.2856H181.329V67.7856H180.829V68.2856ZM179.829 68.2856H179.329V68.7856H179.829V68.2856ZM179.829 66.2856V65.7856H179.329V66.2856H179.829ZM180.829 66.2856V66.7856H181.329V66.2856H180.829ZM180.829 65.2856V64.7856H180.329V65.2856H180.829ZM186.829 65.2856H187.329V64.7856H186.829V65.2856ZM186.829 66.2856H186.329V66.7856H186.829V66.2856ZM187.829 66.2856H188.329V65.7856H187.829V66.2856ZM187.829 67.2856V67.7856H188.329V67.2856H187.829ZM184.829 67.2856H184.329V67.7856H184.829V67.2856ZM184.829 66.2856H185.329V65.7856H184.829V66.2856ZM182.829 66.2856V65.7856H182.329V66.2856H182.829ZM182.829 68.2856H182.329V68.7856H182.829V68.2856ZM186.829 68.2856H187.329V67.7856H186.829V68.2856ZM186.829 69.2856H186.329V69.7856H186.829V69.2856ZM187.829 69.2856H188.329V68.7856H187.829V69.2856ZM187.829 71.2856V71.7856H188.329V71.2856H187.829ZM186.829 71.2856V70.7856H186.329V71.2856H186.829ZM186.829 72.2856V72.7856H187.329V72.2856H186.829ZM185.829 71.7856H184.829V72.7856H185.829V71.7856ZM184.829 71.7856H183.829V72.7856H184.829V71.7856ZM183.829 71.7856H182.829V72.7856H183.829V71.7856ZM182.829 71.7856H181.829V72.7856H182.829V71.7856ZM181.829 71.7856H180.829V72.7856H181.829V71.7856ZM181.329 72.2856V71.2856H180.329V72.2856H181.329ZM180.829 70.7856H179.829V71.7856H180.829V70.7856ZM180.329 71.2856V70.2856H179.329V71.2856H180.329ZM179.829 70.7856H180.829V69.7856H179.829V70.7856ZM180.829 70.7856H181.829V69.7856H180.829V70.7856ZM181.829 70.7856H182.829V69.7856H181.829V70.7856ZM182.329 70.2856V71.2856H183.329V70.2856H182.329ZM182.829 71.7856H183.829V70.7856H182.829V71.7856ZM183.829 71.7856H184.829V70.7856H183.829V71.7856ZM185.329 71.2856V70.2856H184.329V71.2856H185.329ZM185.329 70.2856V69.2856H184.329V70.2856H185.329ZM184.829 68.7856H183.829V69.7856H184.829V68.7856ZM183.829 68.7856H182.829V69.7856H183.829V68.7856ZM182.829 68.7856H181.829V69.7856H182.829V68.7856ZM181.829 68.7856H180.829V69.7856H181.829V68.7856ZM181.329 69.2856V68.2856H180.329V69.2856H181.329ZM180.829 67.7856H179.829V68.7856H180.829V67.7856ZM180.329 68.2856V67.2856H179.329V68.2856H180.329ZM180.329 67.2856V66.2856H179.329V67.2856H180.329ZM179.829 66.7856H180.829V65.7856H179.829V66.7856ZM181.329 66.2856V65.2856H180.329V66.2856H181.329ZM180.829 65.7856H181.829V64.7856H180.829V65.7856ZM181.829 65.7856H182.829V64.7856H181.829V65.7856ZM182.829 65.7856H183.829V64.7856H182.829V65.7856ZM183.829 65.7856H184.829V64.7856H183.829V65.7856ZM184.829 65.7856H185.829V64.7856H184.829V65.7856ZM185.829 65.7856H186.829V64.7856H185.829V65.7856ZM186.329 65.2856V66.2856H187.329V65.2856H186.329ZM186.829 66.7856H187.829V65.7856H186.829V66.7856ZM187.329 66.2856V67.2856H188.329V66.2856H187.329ZM187.829 66.7856H186.829V67.7856H187.829V66.7856ZM186.829 66.7856H185.829V67.7856H186.829V66.7856ZM185.829 66.7856H184.829V67.7856H185.829V66.7856ZM185.329 67.2856V66.2856H184.329V67.2856H185.329ZM184.829 65.7856H183.829V66.7856H184.829V65.7856ZM183.829 65.7856H182.829V66.7856H183.829V65.7856ZM182.329 66.2856V67.2856H183.329V66.2856H182.329ZM182.329 67.2856V68.2856H183.329V67.2856H182.329ZM182.829 68.7856H183.829V67.7856H182.829V68.7856ZM183.829 68.7856H184.829V67.7856H183.829V68.7856ZM184.829 68.7856H185.829V67.7856H184.829V68.7856ZM185.829 68.7856H186.829V67.7856H185.829V68.7856ZM186.329 68.2856V69.2856H187.329V68.2856H186.329ZM186.829 69.7856H187.829V68.7856H186.829V69.7856ZM187.329 69.2856V70.2856H188.329V69.2856H187.329ZM187.329 70.2856V71.2856H188.329V70.2856H187.329ZM187.829 70.7856H186.829V71.7856H187.829V70.7856ZM186.329 71.2856V72.2856H187.329V71.2856H186.329ZM186.829 71.7856H185.829V72.7856H186.829V71.7856ZM191.829 72.2856H191.329V72.7856H191.829V72.2856ZM191.829 71.2856H192.329V70.7856H191.829V71.2856ZM190.829 71.2856H190.329V71.7856H190.829V71.2856ZM190.829 70.2856H191.329V69.7856H190.829V70.2856ZM189.829 70.2856H189.329V70.7856H189.829V70.2856ZM189.829 66.2856H190.329V65.7856H189.829V66.2856ZM188.829 66.2856H188.329V66.7856H188.829V66.2856ZM188.829 65.2856V64.7856H188.329V65.2856H188.829ZM189.829 65.2856V65.7856H190.329V65.2856H189.829ZM189.829 62.2856V61.7856H189.329V62.2856H189.829ZM192.829 62.2856H193.329V61.7856H192.829V62.2856ZM192.829 65.2856H192.329V65.7856H192.829V65.2856ZM194.829 65.2856H195.329V64.7856H194.829V65.2856ZM194.829 66.2856V66.7856H195.329V66.2856H194.829ZM192.829 66.2856V65.7856H192.329V66.2856H192.829ZM192.829 70.2856H192.329V70.7856H192.829V70.2856ZM193.829 70.2856H194.329V69.7856H193.829V70.2856ZM193.829 71.2856H193.329V71.7856H193.829V71.2856ZM194.829 71.2856H195.329V70.7856H194.829V71.2856ZM194.829 72.2856V72.7856H195.329V72.2856H194.829ZM193.829 71.7856H192.829V72.7856H193.829V71.7856ZM192.829 71.7856H191.829V72.7856H192.829V71.7856ZM192.329 72.2856V71.2856H191.329V72.2856H192.329ZM191.829 70.7856H190.829V71.7856H191.829V70.7856ZM191.329 71.2856V70.2856H190.329V71.2856H191.329ZM190.829 69.7856H189.829V70.7856H190.829V69.7856ZM190.329 70.2856V69.2856H189.329V70.2856H190.329ZM190.329 69.2856V68.2856H189.329V69.2856H190.329ZM190.329 68.2856V67.2856H189.329V68.2856H190.329ZM190.329 67.2856V66.2856H189.329V67.2856H190.329ZM189.829 65.7856H188.829V66.7856H189.829V65.7856ZM189.329 66.2856V65.2856H188.329V66.2856H189.329ZM188.829 65.7856H189.829V64.7856H188.829V65.7856ZM190.329 65.2856V64.2856H189.329V65.2856H190.329ZM190.329 64.2856V63.2856H189.329V64.2856H190.329ZM190.329 63.2856V62.2856H189.329V63.2856H190.329ZM189.829 62.7856H190.829V61.7856H189.829V62.7856ZM190.829 62.7856H191.829V61.7856H190.829V62.7856ZM191.829 62.7856H192.829V61.7856H191.829V62.7856ZM192.329 62.2856V63.2856H193.329V62.2856H192.329ZM192.329 63.2856V64.2856H193.329V63.2856H192.329ZM192.329 64.2856V65.2856H193.329V64.2856H192.329ZM192.829 65.7856H193.829V64.7856H192.829V65.7856ZM193.829 65.7856H194.829V64.7856H193.829V65.7856ZM194.329 65.2856V66.2856H195.329V65.2856H194.329ZM194.829 65.7856H193.829V66.7856H194.829V65.7856ZM193.829 65.7856H192.829V66.7856H193.829V65.7856ZM192.329 66.2856V67.2856H193.329V66.2856H192.329ZM192.329 67.2856V68.2856H193.329V67.2856H192.329ZM192.329 68.2856V69.2856H193.329V68.2856H192.329ZM192.329 69.2856V70.2856H193.329V69.2856H192.329ZM192.829 70.7856H193.829V69.7856H192.829V70.7856ZM193.329 70.2856V71.2856H194.329V70.2856H193.329ZM193.829 71.7856H194.829V70.7856H193.829V71.7856ZM194.329 71.2856V72.2856H195.329V71.2856H194.329ZM194.829 71.7856H193.829V72.7856H194.829V71.7856Z" fill="#543847" mask="url(#path-4-outside-2_105_6)"/>
<mask id="path-6-outside-3_105_6" maskUnits="userSpaceOnUse" x="19.2286" y="18.8569" width="77" height="12" fill="black">
<rect fill="white" x="19.2286" y="18.8569" width="77" height="12"/>
<path d="M22.2286 29.8569H21.2286H20.2286V28.8569V27.8569V26.8569V25.8569V24.8569V23.8569V22.8569V21.8569V20.8569H21.2286H22.2286H23.2286H24.2286H25.2286H26.2286H27.2286V21.8569H28.2286V22.8569V23.8569V24.8569H27.2286H26.2286H25.2286V23.8569V22.8569V21.8569H24.2286H23.2286V22.8569V23.8569V24.8569H24.2286H25.2286V25.8569H24.2286H23.2286V26.8569V27.8569V28.8569V29.8569H22.2286ZM31.2286 29.8569H30.2286H29.2286V28.8569V27.8569V26.8569V25.8569V24.8569V23.8569V22.8569H30.2286H31.2286H32.2286H33.2286H34.2286H35.2286H36.2286V23.8569H37.2286V24.8569H36.2286H35.2286H34.2286V23.8569H33.2286H32.2286V24.8569V25.8569V26.8569V27.8569V28.8569V29.8569H31.2286ZM44.2286 29.8569H43.2286H42.2286H41.2286H40.2286H39.2286V28.8569H38.2286V27.8569V26.8569V25.8569V24.8569V23.8569H39.2286V22.8569H40.2286H41.2286H42.2286H43.2286H44.2286H45.2286V23.8569H46.2286V24.8569V25.8569V26.8569V27.8569V28.8569H45.2286V29.8569H44.2286ZM42.2286 28.8569H43.2286V27.8569V26.8569V25.8569V24.8569V23.8569H42.2286H41.2286V24.8569V25.8569V26.8569V27.8569V28.8569H42.2286ZM58.2286 29.8569H57.2286H56.2286V28.8569V27.8569V26.8569V25.8569V24.8569V23.8569H55.2286V24.8569V25.8569V26.8569V27.8569V28.8569V29.8569H54.2286H53.2286H52.2286H51.2286V28.8569V27.8569V26.8569V25.8569V24.8569V23.8569H50.2286V24.8569V25.8569V26.8569V27.8569V28.8569V29.8569H49.2286H48.2286H47.2286V28.8569V27.8569V26.8569V25.8569V24.8569V23.8569V22.8569H48.2286H49.2286H50.2286H51.2286H52.2286V23.8569H53.2286V22.8569H54.2286H55.2286H56.2286H57.2286H58.2286V23.8569H59.2286V24.8569V25.8569V26.8569V27.8569V28.8569V29.8569H58.2286ZM66.2286 29.8569H65.2286H64.2286H63.2286H62.2286H61.2286V28.8569H60.2286V27.8569V26.8569V25.8569V24.8569V23.8569H61.2286V22.8569H62.2286H63.2286H64.2286H65.2286H66.2286H67.2286V23.8569H68.2286V24.8569V25.8569V26.8569V27.8569V28.8569H67.2286V29.8569H66.2286ZM64.2286 28.8569H65.2286V27.8569V26.8569V25.8569V24.8569V23.8569H64.2286H63.2286V24.8569V25.8569V26.8569V27.8569V28.8569H64.2286ZM75.2286 29.8569H74.2286H73.2286H72.2286H71.2286H70.2286V28.8569H69.2286V27.8569V26.8569V25.8569V24.8569V23.8569H70.2286V22.8569H71.2286H72.2286H73.2286H74.2286H75.2286H76.2286V23.8569H77.2286V24.8569H76.2286H75.2286H74.2286V23.8569H73.2286H72.2286V24.8569V25.8569V26.8569V27.8569V28.8569H73.2286H74.2286V27.8569H75.2286H76.2286H77.2286V28.8569H76.2286V29.8569H75.2286ZM84.2286 29.8569H83.2286H82.2286H81.2286H80.2286H79.2286V28.8569H78.2286V27.8569V26.8569V25.8569V24.8569V23.8569H79.2286V22.8569H80.2286H81.2286H82.2286H83.2286H84.2286H85.2286V23.8569H86.2286V24.8569V25.8569V26.8569V27.8569V28.8569H85.2286V29.8569H84.2286ZM82.2286 28.8569H83.2286V27.8569V26.8569V25.8569V24.8569V23.8569H82.2286H81.2286V24.8569V25.8569V26.8569V27.8569V28.8569H82.2286ZM94.2286 29.8569H93.2286H92.2286H91.2286H90.2286H89.2286H88.2286V28.8569H87.2286V27.8569V26.8569V25.8569V24.8569V23.8569H88.2286V22.8569H89.2286H90.2286H91.2286H92.2286V21.8569V20.8569V19.8569H93.2286H94.2286H95.2286V20.8569V21.8569V22.8569V23.8569V24.8569V25.8569V26.8569V27.8569V28.8569V29.8569H94.2286ZM91.2286 28.8569H92.2286V27.8569V26.8569V25.8569V24.8569V23.8569H91.2286H90.2286V24.8569V25.8569V26.8569V27.8569V28.8569H91.2286Z"/>
</mask>
<path d="M22.2286 29.8569H21.2286H20.2286V28.8569V27.8569V26.8569V25.8569V24.8569V23.8569V22.8569V21.8569V20.8569H21.2286H22.2286H23.2286H24.2286H25.2286H26.2286H27.2286V21.8569H28.2286V22.8569V23.8569V24.8569H27.2286H26.2286H25.2286V23.8569V22.8569V21.8569H24.2286H23.2286V22.8569V23.8569V24.8569H24.2286H25.2286V25.8569H24.2286H23.2286V26.8569V27.8569V28.8569V29.8569H22.2286ZM31.2286 29.8569H30.2286H29.2286V28.8569V27.8569V26.8569V25.8569V24.8569V23.8569V22.8569H30.2286H31.2286H32.2286H33.2286H34.2286H35.2286H36.2286V23.8569H37.2286V24.8569H36.2286H35.2286H34.2286V23.8569H33.2286H32.2286V24.8569V25.8569V26.8569V27.8569V28.8569V29.8569H31.2286ZM44.2286 29.8569H43.2286H42.2286H41.2286H40.2286H39.2286V28.8569H38.2286V27.8569V26.8569V25.8569V24.8569V23.8569H39.2286V22.8569H40.2286H41.2286H42.2286H43.2286H44.2286H45.2286V23.8569H46.2286V24.8569V25.8569V26.8569V27.8569V28.8569H45.2286V29.8569H44.2286ZM42.2286 28.8569H43.2286V27.8569V26.8569V25.8569V24.8569V23.8569H42.2286H41.2286V24.8569V25.8569V26.8569V27.8569V28.8569H42.2286ZM58.2286 29.8569H57.2286H56.2286V28.8569V27.8569V26.8569V25.8569V24.8569V23.8569H55.2286V24.8569V25.8569V26.8569V27.8569V28.8569V29.8569H54.2286H53.2286H52.2286H51.2286V28.8569V27.8569V26.8569V25.8569V24.8569V23.8569H50.2286V24.8569V25.8569V26.8569V27.8569V28.8569V29.8569H49.2286H48.2286H47.2286V28.8569V27.8569V26.8569V25.8569V24.8569V23.8569V22.8569H48.2286H49.2286H50.2286H51.2286H52.2286V23.8569H53.2286V22.8569H54.2286H55.2286H56.2286H57.2286H58.2286V23.8569H59.2286V24.8569V25.8569V26.8569V27.8569V28.8569V29.8569H58.2286ZM66.2286 29.8569H65.2286H64.2286H63.2286H62.2286H61.2286V28.8569H60.2286V27.8569V26.8569V25.8569V24.8569V23.8569H61.2286V22.8569H62.2286H63.2286H64.2286H65.2286H66.2286H67.2286V23.8569H68.2286V24.8569V25.8569V26.8569V27.8569V28.8569H67.2286V29.8569H66.2286ZM64.2286 28.8569H65.2286V27.8569V26.8569V25.8569V24.8569V23.8569H64.2286H63.2286V24.8569V25.8569V26.8569V27.8569V28.8569H64.2286ZM75.2286 29.8569H74.2286H73.2286H72.2286H71.2286H70.2286V28.8569H69.2286V27.8569V26.8569V25.8569V24.8569V23.8569H70.2286V22.8569H71.2286H72.2286H73.2286H74.2286H75.2286H76.2286V23.8569H77.2286V24.8569H76.2286H75.2286H74.2286V23.8569H73.2286H72.2286V24.8569V25.8569V26.8569V27.8569V28.8569H73.2286H74.2286V27.8569H75.2286H76.2286H77.2286V28.8569H76.2286V29.8569H75.2286ZM84.2286 29.8569H83.2286H82.2286H81.2286H80.2286H79.2286V28.8569H78.2286V27.8569V26.8569V25.8569V24.8569V23.8569H79.2286V22.8569H80.2286H81.2286H82.2286H83.2286H84.2286H85.2286V23.8569H86.2286V24.8569V25.8569V26.8569V27.8569V28.8569H85.2286V29.8569H84.2286ZM82.2286 28.8569H83.2286V27.8569V26.8569V25.8569V24.8569V23.8569H82.2286H81.2286V24.8569V25.8569V26.8569V27.8569V28.8569H82.2286ZM94.2286 29.8569H93.2286H92.2286H91.2286H90.2286H89.2286H88.2286V28.8569H87.2286V27.8569V26.8569V25.8569V24.8569V23.8569H88.2286V22.8569H89.2286H90.2286H91.2286H92.2286V21.8569V20.8569V19.8569H93.2286H94.2286H95.2286V20.8569V21.8569V22.8569V23.8569V24.8569V25.8569V26.8569V27.8569V28.8569V29.8569H94.2286ZM91.2286 28.8569H92.2286V27.8569V26.8569V25.8569V24.8569V23.8569H91.2286H90.2286V24.8569V25.8569V26.8569V27.8569V28.8569H91.2286Z" fill="#F87E61"/>
<path d="M20.2286 29.8569H19.7286V30.3569H20.2286V29.8569ZM20.2286 20.8569V20.3569H19.7286V20.8569H20.2286ZM27.2286 20.8569H27.7286V20.3569H27.2286V20.8569ZM27.2286 21.8569H26.7286V22.3569H27.2286V21.8569ZM28.2286 21.8569H28.7286V21.3569H28.2286V21.8569ZM28.2286 24.8569V25.3569H28.7286V24.8569H28.2286ZM25.2286 24.8569H24.7286V25.3569H25.2286V24.8569ZM25.2286 21.8569H25.7286V21.3569H25.2286V21.8569ZM23.2286 21.8569V21.3569H22.7286V21.8569H23.2286ZM23.2286 24.8569H22.7286V25.3569H23.2286V24.8569ZM25.2286 24.8569H25.7286V24.3569H25.2286V24.8569ZM25.2286 25.8569V26.3569H25.7286V25.8569H25.2286ZM23.2286 25.8569V25.3569H22.7286V25.8569H23.2286ZM23.2286 29.8569V30.3569H23.7286V29.8569H23.2286ZM22.2286 29.3569H21.2286V30.3569H22.2286V29.3569ZM21.2286 29.3569H20.2286V30.3569H21.2286V29.3569ZM20.7286 29.8569V28.8569H19.7286V29.8569H20.7286ZM20.7286 28.8569V27.8569H19.7286V28.8569H20.7286ZM20.7286 27.8569V26.8569H19.7286V27.8569H20.7286ZM20.7286 26.8569V25.8569H19.7286V26.8569H20.7286ZM20.7286 25.8569V24.8569H19.7286V25.8569H20.7286ZM20.7286 24.8569V23.8569H19.7286V24.8569H20.7286ZM20.7286 23.8569V22.8569H19.7286V23.8569H20.7286ZM20.7286 22.8569V21.8569H19.7286V22.8569H20.7286ZM20.7286 21.8569V20.8569H19.7286V21.8569H20.7286ZM20.2286 21.3569H21.2286V20.3569H20.2286V21.3569ZM21.2286 21.3569H22.2286V20.3569H21.2286V21.3569ZM22.2286 21.3569H23.2286V20.3569H22.2286V21.3569ZM23.2286 21.3569H24.2286V20.3569H23.2286V21.3569ZM24.2286 21.3569H25.2286V20.3569H24.2286V21.3569ZM25.2286 21.3569H26.2286V20.3569H25.2286V21.3569ZM26.2286 21.3569H27.2286V20.3569H26.2286V21.3569ZM26.7286 20.8569V21.8569H27.7286V20.8569H26.7286ZM27.2286 22.3569H28.2286V21.3569H27.2286V22.3569ZM27.7286 21.8569V22.8569H28.7286V21.8569H27.7286ZM27.7286 22.8569V23.8569H28.7286V22.8569H27.7286ZM27.7286 23.8569V24.8569H28.7286V23.8569H27.7286ZM28.2286 24.3569H27.2286V25.3569H28.2286V24.3569ZM27.2286 24.3569H26.2286V25.3569H27.2286V24.3569ZM26.2286 24.3569H25.2286V25.3569H26.2286V24.3569ZM25.7286 24.8569V23.8569H24.7286V24.8569H25.7286ZM25.7286 23.8569V22.8569H24.7286V23.8569H25.7286ZM25.7286 22.8569V21.8569H24.7286V22.8569H25.7286ZM25.2286 21.3569H24.2286V22.3569H25.2286V21.3569ZM24.2286 21.3569H23.2286V22.3569H24.2286V21.3569ZM22.7286 21.8569V22.8569H23.7286V21.8569H22.7286ZM22.7286 22.8569V23.8569H23.7286V22.8569H22.7286ZM22.7286 23.8569V24.8569H23.7286V23.8569H22.7286ZM23.2286 25.3569H24.2286V24.3569H23.2286V25.3569ZM24.2286 25.3569H25.2286V24.3569H24.2286V25.3569ZM24.7286 24.8569V25.8569H25.7286V24.8569H24.7286ZM25.2286 25.3569H24.2286V26.3569H25.2286V25.3569ZM24.2286 25.3569H23.2286V26.3569H24.2286V25.3569ZM22.7286 25.8569V26.8569H23.7286V25.8569H22.7286ZM22.7286 26.8569V27.8569H23.7286V26.8569H22.7286ZM22.7286 27.8569V28.8569H23.7286V27.8569H22.7286ZM22.7286 28.8569V29.8569H23.7286V28.8569H22.7286ZM23.2286 29.3569H22.2286V30.3569H23.2286V29.3569ZM29.2286 29.8569H28.7286V30.3569H29.2286V29.8569ZM29.2286 22.8569V22.3569H28.7286V22.8569H29.2286ZM36.2286 22.8569H36.7286V22.3569H36.2286V22.8569ZM36.2286 23.8569H35.7286V24.3569H36.2286V23.8569ZM37.2286 23.8569H37.7286V23.3569H37.2286V23.8569ZM37.2286 24.8569V25.3569H37.7286V24.8569H37.2286ZM34.2286 24.8569H33.7286V25.3569H34.2286V24.8569ZM34.2286 23.8569H34.7286V23.3569H34.2286V23.8569ZM32.2286 23.8569V23.3569H31.7286V23.8569H32.2286ZM32.2286 29.8569V30.3569H32.7286V29.8569H32.2286ZM31.2286 29.3569H30.2286V30.3569H31.2286V29.3569ZM30.2286 29.3569H29.2286V30.3569H30.2286V29.3569ZM29.7286 29.8569V28.8569H28.7286V29.8569H29.7286ZM29.7286 28.8569V27.8569H28.7286V28.8569H29.7286ZM29.7286 27.8569V26.8569H28.7286V27.8569H29.7286ZM29.7286 26.8569V25.8569H28.7286V26.8569H29.7286ZM29.7286 25.8569V24.8569H28.7286V25.8569H29.7286ZM29.7286 24.8569V23.8569H28.7286V24.8569H29.7286ZM29.7286 23.8569V22.8569H28.7286V23.8569H29.7286ZM29.2286 23.3569H30.2286V22.3569H29.2286V23.3569ZM30.2286 23.3569H31.2286V22.3569H30.2286V23.3569ZM31.2286 23.3569H32.2286V22.3569H31.2286V23.3569ZM32.2286 23.3569H33.2286V22.3569H32.2286V23.3569ZM33.2286 23.3569H34.2286V22.3569H33.2286V23.3569ZM34.2286 23.3569H35.2286V22.3569H34.2286V23.3569ZM35.2286 23.3569H36.2286V22.3569H35.2286V23.3569ZM35.7286 22.8569V23.8569H36.7286V22.8569H35.7286ZM36.2286 24.3569H37.2286V23.3569H36.2286V24.3569ZM36.7286 23.8569V24.8569H37.7286V23.8569H36.7286ZM37.2286 24.3569H36.2286V25.3569H37.2286V24.3569ZM36.2286 24.3569H35.2286V25.3569H36.2286V24.3569ZM35.2286 24.3569H34.2286V25.3569H35.2286V24.3569ZM34.7286 24.8569V23.8569H33.7286V24.8569H34.7286ZM34.2286 23.3569H33.2286V24.3569H34.2286V23.3569ZM33.2286 23.3569H32.2286V24.3569H33.2286V23.3569ZM31.7286 23.8569V24.8569H32.7286V23.8569H31.7286ZM31.7286 24.8569V25.8569H32.7286V24.8569H31.7286ZM31.7286 25.8569V26.8569H32.7286V25.8569H31.7286ZM31.7286 26.8569V27.8569H32.7286V26.8569H31.7286ZM31.7286 27.8569V28.8569H32.7286V27.8569H31.7286ZM31.7286 28.8569V29.8569H32.7286V28.8569H31.7286ZM32.2286 29.3569H31.2286V30.3569H32.2286V29.3569ZM39.2286 29.8569H38.7286V30.3569H39.2286V29.8569ZM39.2286 28.8569H39.7286V28.3569H39.2286V28.8569ZM38.2286 28.8569H37.7286V29.3569H38.2286V28.8569ZM38.2286 23.8569V23.3569H37.7286V23.8569H38.2286ZM39.2286 23.8569V24.3569H39.7286V23.8569H39.2286ZM39.2286 22.8569V22.3569H38.7286V22.8569H39.2286ZM45.2286 22.8569H45.7286V22.3569H45.2286V22.8569ZM45.2286 23.8569H44.7286V24.3569H45.2286V23.8569ZM46.2286 23.8569H46.7286V23.3569H46.2286V23.8569ZM46.2286 28.8569V29.3569H46.7286V28.8569H46.2286ZM45.2286 28.8569V28.3569H44.7286V28.8569H45.2286ZM45.2286 29.8569V30.3569H45.7286V29.8569H45.2286ZM43.2286 28.8569V29.3569H43.7286V28.8569H43.2286ZM43.2286 23.8569H43.7286V23.3569H43.2286V23.8569ZM41.2286 23.8569V23.3569H40.7286V23.8569H41.2286ZM41.2286 28.8569H40.7286V29.3569H41.2286V28.8569ZM44.2286 29.3569H43.2286V30.3569H44.2286V29.3569ZM43.2286 29.3569H42.2286V30.3569H43.2286V29.3569ZM42.2286 29.3569H41.2286V30.3569H42.2286V29.3569ZM41.2286 29.3569H40.2286V30.3569H41.2286V29.3569ZM40.2286 29.3569H39.2286V30.3569H40.2286V29.3569ZM39.7286 29.8569V28.8569H38.7286V29.8569H39.7286ZM39.2286 28.3569H38.2286V29.3569H39.2286V28.3569ZM38.7286 28.8569V27.8569H37.7286V28.8569H38.7286ZM38.7286 27.8569V26.8569H37.7286V27.8569H38.7286ZM38.7286 26.8569V25.8569H37.7286V26.8569H38.7286ZM38.7286 25.8569V24.8569H37.7286V25.8569H38.7286ZM38.7286 24.8569V23.8569H37.7286V24.8569H38.7286ZM38.2286 24.3569H39.2286V23.3569H38.2286V24.3569ZM39.7286 23.8569V22.8569H38.7286V23.8569H39.7286ZM39.2286 23.3569H40.2286V22.3569H39.2286V23.3569ZM40.2286 23.3569H41.2286V22.3569H40.2286V23.3569ZM41.2286 23.3569H42.2286V22.3569H41.2286V23.3569ZM42.2286 23.3569H43.2286V22.3569H42.2286V23.3569ZM43.2286 23.3569H44.2286V22.3569H43.2286V23.3569ZM44.2286 23.3569H45.2286V22.3569H44.2286V23.3569ZM44.7286 22.8569V23.8569H45.7286V22.8569H44.7286ZM45.2286 24.3569H46.2286V23.3569H45.2286V24.3569ZM45.7286 23.8569V24.8569H46.7286V23.8569H45.7286ZM45.7286 24.8569V25.8569H46.7286V24.8569H45.7286ZM45.7286 25.8569V26.8569H46.7286V25.8569H45.7286ZM45.7286 26.8569V27.8569H46.7286V26.8569H45.7286ZM45.7286 27.8569V28.8569H46.7286V27.8569H45.7286ZM46.2286 28.3569H45.2286V29.3569H46.2286V28.3569ZM44.7286 28.8569V29.8569H45.7286V28.8569H44.7286ZM45.2286 29.3569H44.2286V30.3569H45.2286V29.3569ZM42.2286 29.3569H43.2286V28.3569H42.2286V29.3569ZM43.7286 28.8569V27.8569H42.7286V28.8569H43.7286ZM43.7286 27.8569V26.8569H42.7286V27.8569H43.7286ZM43.7286 26.8569V25.8569H42.7286V26.8569H43.7286ZM43.7286 25.8569V24.8569H42.7286V25.8569H43.7286ZM43.7286 24.8569V23.8569H42.7286V24.8569H43.7286ZM43.2286 23.3569H42.2286V24.3569H43.2286V23.3569ZM42.2286 23.3569H41.2286V24.3569H42.2286V23.3569ZM40.7286 23.8569V24.8569H41.7286V23.8569H40.7286ZM40.7286 24.8569V25.8569H41.7286V24.8569H40.7286ZM40.7286 25.8569V26.8569H41.7286V25.8569H40.7286ZM40.7286 26.8569V27.8569H41.7286V26.8569H40.7286ZM40.7286 27.8569V28.8569H41.7286V27.8569H40.7286ZM41.2286 29.3569H42.2286V28.3569H41.2286V29.3569ZM56.2286 29.8569H55.7286V30.3569H56.2286V29.8569ZM56.2286 23.8569H56.7286V23.3569H56.2286V23.8569ZM55.2286 23.8569V23.3569H54.7286V23.8569H55.2286ZM55.2286 29.8569V30.3569H55.7286V29.8569H55.2286ZM51.2286 29.8569H50.7286V30.3569H51.2286V29.8569ZM51.2286 23.8569H51.7286V23.3569H51.2286V23.8569ZM50.2286 23.8569V23.3569H49.7286V23.8569H50.2286ZM50.2286 29.8569V30.3569H50.7286V29.8569H50.2286ZM47.2286 29.8569H46.7286V30.3569H47.2286V29.8569ZM47.2286 22.8569V22.3569H46.7286V22.8569H47.2286ZM52.2286 22.8569H52.7286V22.3569H52.2286V22.8569ZM52.2286 23.8569H51.7286V24.3569H52.2286V23.8569ZM53.2286 23.8569V24.3569H53.7286V23.8569H53.2286ZM53.2286 22.8569V22.3569H52.7286V22.8569H53.2286ZM58.2286 22.8569H58.7286V22.3569H58.2286V22.8569ZM58.2286 23.8569H57.7286V24.3569H58.2286V23.8569ZM59.2286 23.8569H59.7286V23.3569H59.2286V23.8569ZM59.2286 29.8569V30.3569H59.7286V29.8569H59.2286ZM58.2286 29.3569H57.2286V30.3569H58.2286V29.3569ZM57.2286 29.3569H56.2286V30.3569H57.2286V29.3569ZM56.7286 29.8569V28.8569H55.7286V29.8569H56.7286ZM56.7286 28.8569V27.8569H55.7286V28.8569H56.7286ZM56.7286 27.8569V26.8569H55.7286V27.8569H56.7286ZM56.7286 26.8569V25.8569H55.7286V26.8569H56.7286ZM56.7286 25.8569V24.8569H55.7286V25.8569H56.7286ZM56.7286 24.8569V23.8569H55.7286V24.8569H56.7286ZM56.2286 23.3569H55.2286V24.3569H56.2286V23.3569ZM54.7286 23.8569V24.8569H55.7286V23.8569H54.7286ZM54.7286 24.8569V25.8569H55.7286V24.8569H54.7286ZM54.7286 25.8569V26.8569H55.7286V25.8569H54.7286ZM54.7286 26.8569V27.8569H55.7286V26.8569H54.7286ZM54.7286 27.8569V28.8569H55.7286V27.8569H54.7286ZM54.7286 28.8569V29.8569H55.7286V28.8569H54.7286ZM55.2286 29.3569H54.2286V30.3569H55.2286V29.3569ZM54.2286 29.3569H53.2286V30.3569H54.2286V29.3569ZM53.2286 29.3569H52.2286V30.3569H53.2286V29.3569ZM52.2286 29.3569H51.2286V30.3569H52.2286V29.3569ZM51.7286 29.8569V28.8569H50.7286V29.8569H51.7286ZM51.7286 28.8569V27.8569H50.7286V28.8569H51.7286ZM51.7286 27.8569V26.8569H50.7286V27.8569H51.7286ZM51.7286 26.8569V25.8569H50.7286V26.8569H51.7286ZM51.7286 25.8569V24.8569H50.7286V25.8569H51.7286ZM51.7286 24.8569V23.8569H50.7286V24.8569H51.7286ZM51.2286 23.3569H50.2286V24.3569H51.2286V23.3569ZM49.7286 23.8569V24.8569H50.7286V23.8569H49.7286ZM49.7286 24.8569V25.8569H50.7286V24.8569H49.7286ZM49.7286 25.8569V26.8569H50.7286V25.8569H49.7286ZM49.7286 26.8569V27.8569H50.7286V26.8569H49.7286ZM49.7286 27.8569V28.8569H50.7286V27.8569H49.7286ZM49.7286 28.8569V29.8569H50.7286V28.8569H49.7286ZM50.2286 29.3569H49.2286V30.3569H50.2286V29.3569ZM49.2286 29.3569H48.2286V30.3569H49.2286V29.3569ZM48.2286 29.3569H47.2286V30.3569H48.2286V29.3569ZM47.7286 29.8569V28.8569H46.7286V29.8569H47.7286ZM47.7286 28.8569V27.8569H46.7286V28.8569H47.7286ZM47.7286 27.8569V26.8569H46.7286V27.8569H47.7286ZM47.7286 26.8569V25.8569H46.7286V26.8569H47.7286ZM47.7286 25.8569V24.8569H46.7286V25.8569H47.7286ZM47.7286 24.8569V23.8569H46.7286V24.8569H47.7286ZM47.7286 23.8569V22.8569H46.7286V23.8569H47.7286ZM47.2286 23.3569H48.2286V22.3569H47.2286V23.3569ZM48.2286 23.3569H49.2286V22.3569H48.2286V23.3569ZM49.2286 23.3569H50.2286V22.3569H49.2286V23.3569ZM50.2286 23.3569H51.2286V22.3569H50.2286V23.3569ZM51.2286 23.3569H52.2286V22.3569H51.2286V23.3569ZM51.7286 22.8569V23.8569H52.7286V22.8569H51.7286ZM52.2286 24.3569H53.2286V23.3569H52.2286V24.3569ZM53.7286 23.8569V22.8569H52.7286V23.8569H53.7286ZM53.2286 23.3569H54.2286V22.3569H53.2286V23.3569ZM54.2286 23.3569H55.2286V22.3569H54.2286V23.3569ZM55.2286 23.3569H56.2286V22.3569H55.2286V23.3569ZM56.2286 23.3569H57.2286V22.3569H56.2286V23.3569ZM57.2286 23.3569H58.2286V22.3569H57.2286V23.3569ZM57.7286 22.8569V23.8569H58.7286V22.8569H57.7286ZM58.2286 24.3569H59.2286V23.3569H58.2286V24.3569ZM58.7286 23.8569V24.8569H59.7286V23.8569H58.7286ZM58.7286 24.8569V25.8569H59.7286V24.8569H58.7286ZM58.7286 25.8569V26.8569H59.7286V25.8569H58.7286ZM58.7286 26.8569V27.8569H59.7286V26.8569H58.7286ZM58.7286 27.8569V28.8569H59.7286V27.8569H58.7286ZM58.7286 28.8569V29.8569H59.7286V28.8569H58.7286ZM59.2286 29.3569H58.2286V30.3569H59.2286V29.3569ZM61.2286 29.8569H60.7286V30.3569H61.2286V29.8569ZM61.2286 28.8569H61.7286V28.3569H61.2286V28.8569ZM60.2286 28.8569H59.7286V29.3569H60.2286V28.8569ZM60.2286 23.8569V23.3569H59.7286V23.8569H60.2286ZM61.2286 23.8569V24.3569H61.7286V23.8569H61.2286ZM61.2286 22.8569V22.3569H60.7286V22.8569H61.2286ZM67.2286 22.8569H67.7286V22.3569H67.2286V22.8569ZM67.2286 23.8569H66.7286V24.3569H67.2286V23.8569ZM68.2286 23.8569H68.7286V23.3569H68.2286V23.8569ZM68.2286 28.8569V29.3569H68.7286V28.8569H68.2286ZM67.2286 28.8569V28.3569H66.7286V28.8569H67.2286ZM67.2286 29.8569V30.3569H67.7286V29.8569H67.2286ZM65.2286 28.8569V29.3569H65.7286V28.8569H65.2286ZM65.2286 23.8569H65.7286V23.3569H65.2286V23.8569ZM63.2286 23.8569V23.3569H62.7286V23.8569H63.2286ZM63.2286 28.8569H62.7286V29.3569H63.2286V28.8569ZM66.2286 29.3569H65.2286V30.3569H66.2286V29.3569ZM65.2286 29.3569H64.2286V30.3569H65.2286V29.3569ZM64.2286 29.3569H63.2286V30.3569H64.2286V29.3569ZM63.2286 29.3569H62.2286V30.3569H63.2286V29.3569ZM62.2286 29.3569H61.2286V30.3569H62.2286V29.3569ZM61.7286 29.8569V28.8569H60.7286V29.8569H61.7286ZM61.2286 28.3569H60.2286V29.3569H61.2286V28.3569ZM60.7286 28.8569V27.8569H59.7286V28.8569H60.7286ZM60.7286 27.8569V26.8569H59.7286V27.8569H60.7286ZM60.7286 26.8569V25.8569H59.7286V26.8569H60.7286ZM60.7286 25.8569V24.8569H59.7286V25.8569H60.7286ZM60.7286 24.8569V23.8569H59.7286V24.8569H60.7286ZM60.2286 24.3569H61.2286V23.3569H60.2286V24.3569ZM61.7286 23.8569V22.8569H60.7286V23.8569H61.7286ZM61.2286 23.3569H62.2286V22.3569H61.2286V23.3569ZM62.2286 23.3569H63.2286V22.3569H62.2286V23.3569ZM63.2286 23.3569H64.2286V22.3569H63.2286V23.3569ZM64.2286 23.3569H65.2286V22.3569H64.2286V23.3569ZM65.2286 23.3569H66.2286V22.3569H65.2286V23.3569ZM66.2286 23.3569H67.2286V22.3569H66.2286V23.3569ZM66.7286 22.8569V23.8569H67.7286V22.8569H66.7286ZM67.2286 24.3569H68.2286V23.3569H67.2286V24.3569ZM67.7286 23.8569V24.8569H68.7286V23.8569H67.7286ZM67.7286 24.8569V25.8569H68.7286V24.8569H67.7286ZM67.7286 25.8569V26.8569H68.7286V25.8569H67.7286ZM67.7286 26.8569V27.8569H68.7286V26.8569H67.7286ZM67.7286 27.8569V28.8569H68.7286V27.8569H67.7286ZM68.2286 28.3569H67.2286V29.3569H68.2286V28.3569ZM66.7286 28.8569V29.8569H67.7286V28.8569H66.7286ZM67.2286 29.3569H66.2286V30.3569H67.2286V29.3569ZM64.2286 29.3569H65.2286V28.3569H64.2286V29.3569ZM65.7286 28.8569V27.8569H64.7286V28.8569H65.7286ZM65.7286 27.8569V26.8569H64.7286V27.8569H65.7286ZM65.7286 26.8569V25.8569H64.7286V26.8569H65.7286ZM65.7286 25.8569V24.8569H64.7286V25.8569H65.7286ZM65.7286 24.8569V23.8569H64.7286V24.8569H65.7286ZM65.2286 23.3569H64.2286V24.3569H65.2286V23.3569ZM64.2286 23.3569H63.2286V24.3569H64.2286V23.3569ZM62.7286 23.8569V24.8569H63.7286V23.8569H62.7286ZM62.7286 24.8569V25.8569H63.7286V24.8569H62.7286ZM62.7286 25.8569V26.8569H63.7286V25.8569H62.7286ZM62.7286 26.8569V27.8569H63.7286V26.8569H62.7286ZM62.7286 27.8569V28.8569H63.7286V27.8569H62.7286ZM63.2286 29.3569H64.2286V28.3569H63.2286V29.3569ZM70.2286 29.8569H69.7286V30.3569H70.2286V29.8569ZM70.2286 28.8569H70.7286V28.3569H70.2286V28.8569ZM69.2286 28.8569H68.7286V29.3569H69.2286V28.8569ZM69.2286 23.8569V23.3569H68.7286V23.8569H69.2286ZM70.2286 23.8569V24.3569H70.7286V23.8569H70.2286ZM70.2286 22.8569V22.3569H69.7286V22.8569H70.2286ZM76.2286 22.8569H76.7286V22.3569H76.2286V22.8569ZM76.2286 23.8569H75.7286V24.3569H76.2286V23.8569ZM77.2286 23.8569H77.7286V23.3569H77.2286V23.8569ZM77.2286 24.8569V25.3569H77.7286V24.8569H77.2286ZM74.2286 24.8569H73.7286V25.3569H74.2286V24.8569ZM74.2286 23.8569H74.7286V23.3569H74.2286V23.8569ZM72.2286 23.8569V23.3569H71.7286V23.8569H72.2286ZM72.2286 28.8569H71.7286V29.3569H72.2286V28.8569ZM74.2286 28.8569V29.3569H74.7286V28.8569H74.2286ZM74.2286 27.8569V27.3569H73.7286V27.8569H74.2286ZM77.2286 27.8569H77.7286V27.3569H77.2286V27.8569ZM77.2286 28.8569V29.3569H77.7286V28.8569H77.2286ZM76.2286 28.8569V28.3569H75.7286V28.8569H76.2286ZM76.2286 29.8569V30.3569H76.7286V29.8569H76.2286ZM75.2286 29.3569H74.2286V30.3569H75.2286V29.3569ZM74.2286 29.3569H73.2286V30.3569H74.2286V29.3569ZM73.2286 29.3569H72.2286V30.3569H73.2286V29.3569ZM72.2286 29.3569H71.2286V30.3569H72.2286V29.3569ZM71.2286 29.3569H70.2286V30.3569H71.2286V29.3569ZM70.7286 29.8569V28.8569H69.7286V29.8569H70.7286ZM70.2286 28.3569H69.2286V29.3569H70.2286V28.3569ZM69.7286 28.8569V27.8569H68.7286V28.8569H69.7286ZM69.7286 27.8569V26.8569H68.7286V27.8569H69.7286ZM69.7286 26.8569V25.8569H68.7286V26.8569H69.7286ZM69.7286 25.8569V24.8569H68.7286V25.8569H69.7286ZM69.7286 24.8569V23.8569H68.7286V24.8569H69.7286ZM69.2286 24.3569H70.2286V23.3569H69.2286V24.3569ZM70.7286 23.8569V22.8569H69.7286V23.8569H70.7286ZM70.2286 23.3569H71.2286V22.3569H70.2286V23.3569ZM71.2286 23.3569H72.2286V22.3569H71.2286V23.3569ZM72.2286 23.3569H73.2286V22.3569H72.2286V23.3569ZM73.2286 23.3569H74.2286V22.3569H73.2286V23.3569ZM74.2286 23.3569H75.2286V22.3569H74.2286V23.3569ZM75.2286 23.3569H76.2286V22.3569H75.2286V23.3569ZM75.7286 22.8569V23.8569H76.7286V22.8569H75.7286ZM76.2286 24.3569H77.2286V23.3569H76.2286V24.3569ZM76.7286 23.8569V24.8569H77.7286V23.8569H76.7286ZM77.2286 24.3569H76.2286V25.3569H77.2286V24.3569ZM76.2286 24.3569H75.2286V25.3569H76.2286V24.3569ZM75.2286 24.3569H74.2286V25.3569H75.2286V24.3569ZM74.7286 24.8569V23.8569H73.7286V24.8569H74.7286ZM74.2286 23.3569H73.2286V24.3569H74.2286V23.3569ZM73.2286 23.3569H72.2286V24.3569H73.2286V23.3569ZM71.7286 23.8569V24.8569H72.7286V23.8569H71.7286ZM71.7286 24.8569V25.8569H72.7286V24.8569H71.7286ZM71.7286 25.8569V26.8569H72.7286V25.8569H71.7286ZM71.7286 26.8569V27.8569H72.7286V26.8569H71.7286ZM71.7286 27.8569V28.8569H72.7286V27.8569H71.7286ZM72.2286 29.3569H73.2286V28.3569H72.2286V29.3569ZM73.2286 29.3569H74.2286V28.3569H73.2286V29.3569ZM74.7286 28.8569V27.8569H73.7286V28.8569H74.7286ZM74.2286 28.3569H75.2286V27.3569H74.2286V28.3569ZM75.2286 28.3569H76.2286V27.3569H75.2286V28.3569ZM76.2286 28.3569H77.2286V27.3569H76.2286V28.3569ZM76.7286 27.8569V28.8569H77.7286V27.8569H76.7286ZM77.2286 28.3569H76.2286V29.3569H77.2286V28.3569ZM75.7286 28.8569V29.8569H76.7286V28.8569H75.7286ZM76.2286 29.3569H75.2286V30.3569H76.2286V29.3569ZM79.2286 29.8569H78.7286V30.3569H79.2286V29.8569ZM79.2286 28.8569H79.7286V28.3569H79.2286V28.8569ZM78.2286 28.8569H77.7286V29.3569H78.2286V28.8569ZM78.2286 23.8569V23.3569H77.7286V23.8569H78.2286ZM79.2286 23.8569V24.3569H79.7286V23.8569H79.2286ZM79.2286 22.8569V22.3569H78.7286V22.8569H79.2286ZM85.2286 22.8569H85.7286V22.3569H85.2286V22.8569ZM85.2286 23.8569H84.7286V24.3569H85.2286V23.8569ZM86.2286 23.8569H86.7286V23.3569H86.2286V23.8569ZM86.2286 28.8569V29.3569H86.7286V28.8569H86.2286ZM85.2286 28.8569V28.3569H84.7286V28.8569H85.2286ZM85.2286 29.8569V30.3569H85.7286V29.8569H85.2286ZM83.2286 28.8569V29.3569H83.7286V28.8569H83.2286ZM83.2286 23.8569H83.7286V23.3569H83.2286V23.8569ZM81.2286 23.8569V23.3569H80.7286V23.8569H81.2286ZM81.2286 28.8569H80.7286V29.3569H81.2286V28.8569ZM84.2286 29.3569H83.2286V30.3569H84.2286V29.3569ZM83.2286 29.3569H82.2286V30.3569H83.2286V29.3569ZM82.2286 29.3569H81.2286V30.3569H82.2286V29.3569ZM81.2286 29.3569H80.2286V30.3569H81.2286V29.3569ZM80.2286 29.3569H79.2286V30.3569H80.2286V29.3569ZM79.7286 29.8569V28.8569H78.7286V29.8569H79.7286ZM79.2286 28.3569H78.2286V29.3569H79.2286V28.3569ZM78.7286 28.8569V27.8569H77.7286V28.8569H78.7286ZM78.7286 27.8569V26.8569H77.7286V27.8569H78.7286ZM78.7286 26.8569V25.8569H77.7286V26.8569H78.7286ZM78.7286 25.8569V24.8569H77.7286V25.8569H78.7286ZM78.7286 24.8569V23.8569H77.7286V24.8569H78.7286ZM78.2286 24.3569H79.2286V23.3569H78.2286V24.3569ZM79.7286 23.8569V22.8569H78.7286V23.8569H79.7286ZM79.2286 23.3569H80.2286V22.3569H79.2286V23.3569ZM80.2286 23.3569H81.2286V22.3569H80.2286V23.3569ZM81.2286 23.3569H82.2286V22.3569H81.2286V23.3569ZM82.2286 23.3569H83.2286V22.3569H82.2286V23.3569ZM83.2286 23.3569H84.2286V22.3569H83.2286V23.3569ZM84.2286 23.3569H85.2286V22.3569H84.2286V23.3569ZM84.7286 22.8569V23.8569H85.7286V22.8569H84.7286ZM85.2286 24.3569H86.2286V23.3569H85.2286V24.3569ZM85.7286 23.8569V24.8569H86.7286V23.8569H85.7286ZM85.7286 24.8569V25.8569H86.7286V24.8569H85.7286ZM85.7286 25.8569V26.8569H86.7286V25.8569H85.7286ZM85.7286 26.8569V27.8569H86.7286V26.8569H85.7286ZM85.7286 27.8569V28.8569H86.7286V27.8569H85.7286ZM86.2286 28.3569H85.2286V29.3569H86.2286V28.3569ZM84.7286 28.8569V29.8569H85.7286V28.8569H84.7286ZM85.2286 29.3569H84.2286V30.3569H85.2286V29.3569ZM82.2286 29.3569H83.2286V28.3569H82.2286V29.3569ZM83.7286 28.8569V27.8569H82.7286V28.8569H83.7286ZM83.7286 27.8569V26.8569H82.7286V27.8569H83.7286ZM83.7286 26.8569V25.8569H82.7286V26.8569H83.7286ZM83.7286 25.8569V24.8569H82.7286V25.8569H83.7286ZM83.7286 24.8569V23.8569H82.7286V24.8569H83.7286ZM83.2286 23.3569H82.2286V24.3569H83.2286V23.3569ZM82.2286 23.3569H81.2286V24.3569H82.2286V23.3569ZM80.7286 23.8569V24.8569H81.7286V23.8569H80.7286ZM80.7286 24.8569V25.8569H81.7286V24.8569H80.7286ZM80.7286 25.8569V26.8569H81.7286V25.8569H80.7286ZM80.7286 26.8569V27.8569H81.7286V26.8569H80.7286ZM80.7286 27.8569V28.8569H81.7286V27.8569H80.7286ZM81.2286 29.3569H82.2286V28.3569H81.2286V29.3569ZM88.2286 29.8569H87.7286V30.3569H88.2286V29.8569ZM88.2286 28.8569H88.7286V28.3569H88.2286V28.8569ZM87.2286 28.8569H86.7286V29.3569H87.2286V28.8569ZM87.2286 23.8569V23.3569H86.7286V23.8569H87.2286ZM88.2286 23.8569V24.3569H88.7286V23.8569H88.2286ZM88.2286 22.8569V22.3569H87.7286V22.8569H88.2286ZM92.2286 22.8569V23.3569H92.7286V22.8569H92.2286ZM92.2286 19.8569V19.3569H91.7286V19.8569H92.2286ZM95.2286 19.8569H95.7286V19.3569H95.2286V19.8569ZM95.2286 29.8569V30.3569H95.7286V29.8569H95.2286ZM92.2286 28.8569V29.3569H92.7286V28.8569H92.2286ZM92.2286 23.8569H92.7286V23.3569H92.2286V23.8569ZM90.2286 23.8569V23.3569H89.7286V23.8569H90.2286ZM90.2286 28.8569H89.7286V29.3569H90.2286V28.8569ZM94.2286 29.3569H93.2286V30.3569H94.2286V29.3569ZM93.2286 29.3569H92.2286V30.3569H93.2286V29.3569ZM92.2286 29.3569H91.2286V30.3569H92.2286V29.3569ZM91.2286 29.3569H90.2286V30.3569H91.2286V29.3569ZM90.2286 29.3569H89.2286V30.3569H90.2286V29.3569ZM89.2286 29.3569H88.2286V30.3569H89.2286V29.3569ZM88.7286 29.8569V28.8569H87.7286V29.8569H88.7286ZM88.2286 28.3569H87.2286V29.3569H88.2286V28.3569ZM87.7286 28.8569V27.8569H86.7286V28.8569H87.7286ZM87.7286 27.8569V26.8569H86.7286V27.8569H87.7286ZM87.7286 26.8569V25.8569H86.7286V26.8569H87.7286ZM87.7286 25.8569V24.8569H86.7286V25.8569H87.7286ZM87.7286 24.8569V23.8569H86.7286V24.8569H87.7286ZM87.2286 24.3569H88.2286V23.3569H87.2286V24.3569ZM88.7286 23.8569V22.8569H87.7286V23.8569H88.7286ZM88.2286 23.3569H89.2286V22.3569H88.2286V23.3569ZM89.2286 23.3569H90.2286V22.3569H89.2286V23.3569ZM90.2286 23.3569H91.2286V22.3569H90.2286V23.3569ZM91.2286 23.3569H92.2286V22.3569H91.2286V23.3569ZM92.7286 22.8569V21.8569H91.7286V22.8569H92.7286ZM92.7286 21.8569V20.8569H91.7286V21.8569H92.7286ZM92.7286 20.8569V19.8569H91.7286V20.8569H92.7286ZM92.2286 20.3569H93.2286V19.3569H92.2286V20.3569ZM93.2286 20.3569H94.2286V19.3569H93.2286V20.3569ZM94.2286 20.3569H95.2286V19.3569H94.2286V20.3569ZM94.7286 19.8569V20.8569H95.7286V19.8569H94.7286ZM94.7286 20.8569V21.8569H95.7286V20.8569H94.7286ZM94.7286 21.8569V22.8569H95.7286V21.8569H94.7286ZM94.7286 22.8569V23.8569H95.7286V22.8569H94.7286ZM94.7286 23.8569V24.8569H95.7286V23.8569H94.7286ZM94.7286 24.8569V25.8569H95.7286V24.8569H94.7286ZM94.7286 25.8569V26.8569H95.7286V25.8569H94.7286ZM94.7286 26.8569V27.8569H95.7286V26.8569H94.7286ZM94.7286 27.8569V28.8569H95.7286V27.8569H94.7286ZM94.7286 28.8569V29.8569H95.7286V28.8569H94.7286ZM95.2286 29.3569H94.2286V30.3569H95.2286V29.3569ZM91.2286 29.3569H92.2286V28.3569H91.2286V29.3569ZM92.7286 28.8569V27.8569H91.7286V28.8569H92.7286ZM92.7286 27.8569V26.8569H91.7286V27.8569H92.7286ZM92.7286 26.8569V25.8569H91.7286V26.8569H92.7286ZM92.7286 25.8569V24.8569H91.7286V25.8569H92.7286ZM92.7286 24.8569V23.8569H91.7286V24.8569H92.7286ZM92.2286 23.3569H91.2286V24.3569H92.2286V23.3569ZM91.2286 23.3569H90.2286V24.3569H91.2286V23.3569ZM89.7286 23.8569V24.8569H90.7286V23.8569H89.7286ZM89.7286 24.8569V25.8569H90.7286V24.8569H89.7286ZM89.7286 25.8569V26.8569H90.7286V25.8569H89.7286ZM89.7286 26.8569V27.8569H90.7286V26.8569H89.7286ZM89.7286 27.8569V28.8569H90.7286V27.8569H89.7286ZM90.2286 29.3569H91.2286V28.3569H90.2286V29.3569Z" fill="#543847" mask="url(#path-6-outside-3_105_6)"/>
</svg>
