<svg width="236" height="108" viewBox="0 0 236 108" fill="none" xmlns="http://www.w3.org/2000/svg">
<rect x="0.5" y="0.5" width="235" height="107" rx="5.5" fill="#DED798" stroke="#543847"/>
<mask id="path-2-outside-1_105_6" maskUnits="userSpaceOnUse" x="141" y="20" width="83" height="13" fill="black">
<rect fill="white" x="141" y="20" width="83" height="13"/>
<path d="M151 32H149.875H148.75V30.875V29.75V28.625H147.625H146.5H145.375V29.75V30.875V32H144.25H143.125H142V30.875V29.75V28.625V27.5V26.375V25.25H143.125V24.125H144.25V23H145.375V21.875H146.5H147.625H148.75V23H149.875V24.125H151V25.25V26.375H152.125V27.5V28.625V29.75V30.875V32H151ZM147.625 27.5H148.75V26.375H147.625V25.25V24.125H146.5V25.25V26.375H145.375V27.5H146.5H147.625ZM158.875 32H157.75H156.625H155.5H154.375V30.875H153.25V29.75V28.625V27.5H152.125V26.375V25.25V24.125H153.25H154.375H155.5V25.25V26.375V27.5H156.625V28.625V29.75V30.875H157.75V29.75V28.625V27.5H158.875V26.375V25.25V24.125H160H161.125H162.25V25.25V26.375V27.5H161.125V28.625V29.75V30.875H160V32H158.875ZM171.25 32H170.125H169H167.875H166.75H165.625H164.5V30.875H163.375V29.75V28.625H164.5V27.5H165.625H166.75H167.875H169V26.375V25.25H167.875H166.75V26.375H165.625H164.5H163.375V25.25H164.5V24.125H165.625H166.75H167.875H169H170.125H171.25V25.25H172.375V26.375V27.5V28.625V29.75V30.875V32H171.25ZM167.875 30.875H169V29.75V28.625H167.875H166.75V29.75V30.875H167.875ZM174.22 27.878V26.474H178.576V27.878H174.22ZM186.051 32H184.926H183.801H182.676H181.551H180.426V30.875H179.301V29.75V28.625V27.5V26.375V25.25H180.426V24.125H181.551H182.676H183.801H184.926H186.051H187.176V25.25H188.301V26.375H187.176H186.051H184.926V25.25H183.801H182.676V26.375V27.5V28.625V29.75V30.875H183.801H184.926V29.75H186.051H187.176H188.301V30.875H187.176V32H186.051ZM196.176 32H195.051H193.926H192.801H191.676H190.551V30.875H189.426V29.75V28.625V27.5V26.375V25.25H190.551V24.125H191.676H192.801H193.926H195.051H196.176H197.301V25.25H198.426V26.375V27.5V28.625V29.75V30.875H197.301V32H196.176ZM193.926 30.875H195.051V29.75V28.625V27.5V26.375V25.25H193.926H192.801V26.375V27.5V28.625V29.75V30.875H193.926ZM201.801 32H200.676H199.551V30.875V29.75V28.625V27.5V26.375V25.25V24.125H200.676H201.801H202.926V25.25V26.375V27.5V28.625V29.75V30.875V32H201.801ZM201.801 23H200.676H199.551V21.875V20.75H200.676H201.801H202.926V21.875V23H201.801ZM211.926 32H210.801H209.676V30.875V29.75V28.625V27.5V26.375V25.25H208.551H207.426V26.375V27.5V28.625V29.75V30.875V32H206.301H205.176H204.051V30.875V29.75V28.625V27.5V26.375V25.25V24.125H205.176H206.301H207.426H208.551H209.676H210.801H211.926V25.25H213.051V26.375V27.5V28.625V29.75V30.875V32H211.926ZM220.926 32H219.801H218.676H217.551H216.426H215.301V30.875H214.176V29.75H215.301H216.426H217.551V30.875H218.676H219.801V29.75V28.625H218.676H217.551H216.426H215.301V27.5H214.176V26.375V25.25H215.301V24.125H216.426H217.551H218.676H219.801H220.926H222.051V25.25H223.176V26.375H222.051H220.926H219.801V25.25H218.676H217.551V26.375V27.5H218.676H219.801H220.926H222.051V28.625H223.176V29.75V30.875H222.051V32H220.926Z"/>
</mask>
<path d="M151 32H149.875H148.75V30.875V29.75V28.625H147.625H146.5H145.375V29.75V30.875V32H144.25H143.125H142V30.875V29.75V28.625V27.5V26.375V25.25H143.125V24.125H144.25V23H145.375V21.875H146.5H147.625H148.75V23H149.875V24.125H151V25.25V26.375H152.125V27.5V28.625V29.75V30.875V32H151ZM147.625 27.5H148.75V26.375H147.625V25.25V24.125H146.5V25.25V26.375H145.375V27.5H146.5H147.625ZM158.875 32H157.75H156.625H155.5H154.375V30.875H153.25V29.75V28.625V27.5H152.125V26.375V25.25V24.125H153.25H154.375H155.5V25.25V26.375V27.5H156.625V28.625V29.75V30.875H157.75V29.75V28.625V27.5H158.875V26.375V25.25V24.125H160H161.125H162.25V25.25V26.375V27.5H161.125V28.625V29.75V30.875H160V32H158.875ZM171.25 32H170.125H169H167.875H166.75H165.625H164.5V30.875H163.375V29.75V28.625H164.5V27.5H165.625H166.75H167.875H169V26.375V25.25H167.875H166.75V26.375H165.625H164.5H163.375V25.25H164.5V24.125H165.625H166.75H167.875H169H170.125H171.25V25.25H172.375V26.375V27.5V28.625V29.75V30.875V32H171.25ZM167.875 30.875H169V29.75V28.625H167.875H166.75V29.75V30.875H167.875ZM174.22 27.878V26.474H178.576V27.878H174.22ZM186.051 32H184.926H183.801H182.676H181.551H180.426V30.875H179.301V29.75V28.625V27.5V26.375V25.25H180.426V24.125H181.551H182.676H183.801H184.926H186.051H187.176V25.25H188.301V26.375H187.176H186.051H184.926V25.25H183.801H182.676V26.375V27.5V28.625V29.75V30.875H183.801H184.926V29.75H186.051H187.176H188.301V30.875H187.176V32H186.051ZM196.176 32H195.051H193.926H192.801H191.676H190.551V30.875H189.426V29.75V28.625V27.5V26.375V25.25H190.551V24.125H191.676H192.801H193.926H195.051H196.176H197.301V25.25H198.426V26.375V27.5V28.625V29.75V30.875H197.301V32H196.176ZM193.926 30.875H195.051V29.75V28.625V27.5V26.375V25.25H193.926H192.801V26.375V27.5V28.625V29.75V30.875H193.926ZM201.801 32H200.676H199.551V30.875V29.75V28.625V27.5V26.375V25.25V24.125H200.676H201.801H202.926V25.25V26.375V27.5V28.625V29.75V30.875V32H201.801ZM201.801 23H200.676H199.551V21.875V20.75H200.676H201.801H202.926V21.875V23H201.801ZM211.926 32H210.801H209.676V30.875V29.75V28.625V27.5V26.375V25.25H208.551H207.426V26.375V27.5V28.625V29.75V30.875V32H206.301H205.176H204.051V30.875V29.75V28.625V27.5V26.375V25.25V24.125H205.176H206.301H207.426H208.551H209.676H210.801H211.926V25.25H213.051V26.375V27.5V28.625V29.75V30.875V32H211.926ZM220.926 32H219.801H218.676H217.551H216.426H215.301V30.875H214.176V29.75H215.301H216.426H217.551V30.875H218.676H219.801V29.75V28.625H218.676H217.551H216.426H215.301V27.5H214.176V26.375V25.25H215.301V24.125H216.426H217.551H218.676H219.801H220.926H222.051V25.25H223.176V26.375H222.051H220.926H219.801V25.25H218.676H217.551V26.375V27.5H218.676H219.801H220.926H222.051V28.625H223.176V29.75V30.875H222.051V32H220.926Z" fill="#F87E61"/>
<path d="M148.75 32H148.25V32.5H148.75V32ZM148.75 28.625H149.25V28.125H148.75V28.625ZM145.375 28.625V28.125H144.875V28.625H145.375ZM145.375 32V32.5H145.875V32H145.375ZM142 32H141.5V32.5H142V32ZM142 25.25V24.75H141.5V25.25H142ZM143.125 25.25V25.75H143.625V25.25H143.125ZM143.125 24.125V23.625H142.625V24.125H143.125ZM144.25 24.125V24.625H144.75V24.125H144.25ZM144.25 23V22.5H143.75V23H144.25ZM145.375 23V23.5H145.875V23H145.375ZM145.375 21.875V21.375H144.875V21.875H145.375ZM148.75 21.875H149.25V21.375H148.75V21.875ZM148.75 23H148.25V23.5H148.75V23ZM149.875 23H150.375V22.5H149.875V23ZM149.875 24.125H149.375V24.625H149.875V24.125ZM151 24.125H151.5V23.625H151V24.125ZM151 26.375H150.5V26.875H151V26.375ZM152.125 26.375H152.625V25.875H152.125V26.375ZM152.125 32V32.5H152.625V32H152.125ZM148.75 27.5V28H149.25V27.5H148.75ZM148.75 26.375H149.25V25.875H148.75V26.375ZM147.625 26.375H147.125V26.875H147.625V26.375ZM147.625 24.125H148.125V23.625H147.625V24.125ZM146.5 24.125V23.625H146V24.125H146.5ZM146.5 26.375V26.875H147V26.375H146.5ZM145.375 26.375V25.875H144.875V26.375H145.375ZM145.375 27.5H144.875V28H145.375V27.5ZM151 31.5H149.875V32.5H151V31.5ZM149.875 31.5H148.75V32.5H149.875V31.5ZM149.25 32V30.875H148.25V32H149.25ZM149.25 30.875V29.75H148.25V30.875H149.25ZM149.25 29.75V28.625H148.25V29.75H149.25ZM148.75 28.125H147.625V29.125H148.75V28.125ZM147.625 28.125H146.5V29.125H147.625V28.125ZM146.5 28.125H145.375V29.125H146.5V28.125ZM144.875 28.625V29.75H145.875V28.625H144.875ZM144.875 29.75V30.875H145.875V29.75H144.875ZM144.875 30.875V32H145.875V30.875H144.875ZM145.375 31.5H144.25V32.5H145.375V31.5ZM144.25 31.5H143.125V32.5H144.25V31.5ZM143.125 31.5H142V32.5H143.125V31.5ZM142.5 32V30.875H141.5V32H142.5ZM142.5 30.875V29.75H141.5V30.875H142.5ZM142.5 29.75V28.625H141.5V29.75H142.5ZM142.5 28.625V27.5H141.5V28.625H142.5ZM142.5 27.5V26.375H141.5V27.5H142.5ZM142.5 26.375V25.25H141.5V26.375H142.5ZM142 25.75H143.125V24.75H142V25.75ZM143.625 25.25V24.125H142.625V25.25H143.625ZM143.125 24.625H144.25V23.625H143.125V24.625ZM144.75 24.125V23H143.75V24.125H144.75ZM144.25 23.5H145.375V22.5H144.25V23.5ZM145.875 23V21.875H144.875V23H145.875ZM145.375 22.375H146.5V21.375H145.375V22.375ZM146.5 22.375H147.625V21.375H146.5V22.375ZM147.625 22.375H148.75V21.375H147.625V22.375ZM148.25 21.875V23H149.25V21.875H148.25ZM148.75 23.5H149.875V22.5H148.75V23.5ZM149.375 23V24.125H150.375V23H149.375ZM149.875 24.625H151V23.625H149.875V24.625ZM150.5 24.125V25.25H151.5V24.125H150.5ZM150.5 25.25V26.375H151.5V25.25H150.5ZM151 26.875H152.125V25.875H151V26.875ZM151.625 26.375V27.5H152.625V26.375H151.625ZM151.625 27.5V28.625H152.625V27.5H151.625ZM151.625 28.625V29.75H152.625V28.625H151.625ZM151.625 29.75V30.875H152.625V29.75H151.625ZM151.625 30.875V32H152.625V30.875H151.625ZM152.125 31.5H151V32.5H152.125V31.5ZM147.625 28H148.75V27H147.625V28ZM149.25 27.5V26.375H148.25V27.5H149.25ZM148.75 25.875H147.625V26.875H148.75V25.875ZM148.125 26.375V25.25H147.125V26.375H148.125ZM148.125 25.25V24.125H147.125V25.25H148.125ZM147.625 23.625H146.5V24.625H147.625V23.625ZM146 24.125V25.25H147V24.125H146ZM146 25.25V26.375H147V25.25H146ZM146.5 25.875H145.375V26.875H146.5V25.875ZM144.875 26.375V27.5H145.875V26.375H144.875ZM145.375 28H146.5V27H145.375V28ZM146.5 28H147.625V27H146.5V28ZM154.375 32H153.875V32.5H154.375V32ZM154.375 30.875H154.875V30.375H154.375V30.875ZM153.25 30.875H152.75V31.375H153.25V30.875ZM153.25 27.5H153.75V27H153.25V27.5ZM152.125 27.5H151.625V28H152.125V27.5ZM152.125 24.125V23.625H151.625V24.125H152.125ZM155.5 24.125H156V23.625H155.5V24.125ZM155.5 27.5H155V28H155.5V27.5ZM156.625 27.5H157.125V27H156.625V27.5ZM156.625 30.875H156.125V31.375H156.625V30.875ZM157.75 30.875V31.375H158.25V30.875H157.75ZM157.75 27.5V27H157.25V27.5H157.75ZM158.875 27.5V28H159.375V27.5H158.875ZM158.875 24.125V23.625H158.375V24.125H158.875ZM162.25 24.125H162.75V23.625H162.25V24.125ZM162.25 27.5V28H162.75V27.5H162.25ZM161.125 27.5V27H160.625V27.5H161.125ZM161.125 30.875V31.375H161.625V30.875H161.125ZM160 30.875V30.375H159.5V30.875H160ZM160 32V32.5H160.5V32H160ZM158.875 31.5H157.75V32.5H158.875V31.5ZM157.75 31.5H156.625V32.5H157.75V31.5ZM156.625 31.5H155.5V32.5H156.625V31.5ZM155.5 31.5H154.375V32.5H155.5V31.5ZM154.875 32V30.875H153.875V32H154.875ZM154.375 30.375H153.25V31.375H154.375V30.375ZM153.75 30.875V29.75H152.75V30.875H153.75ZM153.75 29.75V28.625H152.75V29.75H153.75ZM153.75 28.625V27.5H152.75V28.625H153.75ZM153.25 27H152.125V28H153.25V27ZM152.625 27.5V26.375H151.625V27.5H152.625ZM152.625 26.375V25.25H151.625V26.375H152.625ZM152.625 25.25V24.125H151.625V25.25H152.625ZM152.125 24.625H153.25V23.625H152.125V24.625ZM153.25 24.625H154.375V23.625H153.25V24.625ZM154.375 24.625H155.5V23.625H154.375V24.625ZM155 24.125V25.25H156V24.125H155ZM155 25.25V26.375H156V25.25H155ZM155 26.375V27.5H156V26.375H155ZM155.5 28H156.625V27H155.5V28ZM156.125 27.5V28.625H157.125V27.5H156.125ZM156.125 28.625V29.75H157.125V28.625H156.125ZM156.125 29.75V30.875H157.125V29.75H156.125ZM156.625 31.375H157.75V30.375H156.625V31.375ZM158.25 30.875V29.75H157.25V30.875H158.25ZM158.25 29.75V28.625H157.25V29.75H158.25ZM158.25 28.625V27.5H157.25V28.625H158.25ZM157.75 28H158.875V27H157.75V28ZM159.375 27.5V26.375H158.375V27.5H159.375ZM159.375 26.375V25.25H158.375V26.375H159.375ZM159.375 25.25V24.125H158.375V25.25H159.375ZM158.875 24.625H160V23.625H158.875V24.625ZM160 24.625H161.125V23.625H160V24.625ZM161.125 24.625H162.25V23.625H161.125V24.625ZM161.75 24.125V25.25H162.75V24.125H161.75ZM161.75 25.25V26.375H162.75V25.25H161.75ZM161.75 26.375V27.5H162.75V26.375H161.75ZM162.25 27H161.125V28H162.25V27ZM160.625 27.5V28.625H161.625V27.5H160.625ZM160.625 28.625V29.75H161.625V28.625H160.625ZM160.625 29.75V30.875H161.625V29.75H160.625ZM161.125 30.375H160V31.375H161.125V30.375ZM159.5 30.875V32H160.5V30.875H159.5ZM160 31.5H158.875V32.5H160V31.5ZM164.5 32H164V32.5H164.5V32ZM164.5 30.875H165V30.375H164.5V30.875ZM163.375 30.875H162.875V31.375H163.375V30.875ZM163.375 28.625V28.125H162.875V28.625H163.375ZM164.5 28.625V29.125H165V28.625H164.5ZM164.5 27.5V27H164V27.5H164.5ZM169 27.5V28H169.5V27.5H169ZM169 25.25H169.5V24.75H169V25.25ZM166.75 25.25V24.75H166.25V25.25H166.75ZM166.75 26.375V26.875H167.25V26.375H166.75ZM163.375 26.375H162.875V26.875H163.375V26.375ZM163.375 25.25V24.75H162.875V25.25H163.375ZM164.5 25.25V25.75H165V25.25H164.5ZM164.5 24.125V23.625H164V24.125H164.5ZM171.25 24.125H171.75V23.625H171.25V24.125ZM171.25 25.25H170.75V25.75H171.25V25.25ZM172.375 25.25H172.875V24.75H172.375V25.25ZM172.375 32V32.5H172.875V32H172.375ZM169 30.875V31.375H169.5V30.875H169ZM169 28.625H169.5V28.125H169V28.625ZM166.75 28.625V28.125H166.25V28.625H166.75ZM166.75 30.875H166.25V31.375H166.75V30.875ZM171.25 31.5H170.125V32.5H171.25V31.5ZM170.125 31.5H169V32.5H170.125V31.5ZM169 31.5H167.875V32.5H169V31.5ZM167.875 31.5H166.75V32.5H167.875V31.5ZM166.75 31.5H165.625V32.5H166.75V31.5ZM165.625 31.5H164.5V32.5H165.625V31.5ZM165 32V30.875H164V32H165ZM164.5 30.375H163.375V31.375H164.5V30.375ZM163.875 30.875V29.75H162.875V30.875H163.875ZM163.875 29.75V28.625H162.875V29.75H163.875ZM163.375 29.125H164.5V28.125H163.375V29.125ZM165 28.625V27.5H164V28.625H165ZM164.5 28H165.625V27H164.5V28ZM165.625 28H166.75V27H165.625V28ZM166.75 28H167.875V27H166.75V28ZM167.875 28H169V27H167.875V28ZM169.5 27.5V26.375H168.5V27.5H169.5ZM169.5 26.375V25.25H168.5V26.375H169.5ZM169 24.75H167.875V25.75H169V24.75ZM167.875 24.75H166.75V25.75H167.875V24.75ZM166.25 25.25V26.375H167.25V25.25H166.25ZM166.75 25.875H165.625V26.875H166.75V25.875ZM165.625 25.875H164.5V26.875H165.625V25.875ZM164.5 25.875H163.375V26.875H164.5V25.875ZM163.875 26.375V25.25H162.875V26.375H163.875ZM163.375 25.75H164.5V24.75H163.375V25.75ZM165 25.25V24.125H164V25.25H165ZM164.5 24.625H165.625V23.625H164.5V24.625ZM165.625 24.625H166.75V23.625H165.625V24.625ZM166.75 24.625H167.875V23.625H166.75V24.625ZM167.875 24.625H169V23.625H167.875V24.625ZM169 24.625H170.125V23.625H169V24.625ZM170.125 24.625H171.25V23.625H170.125V24.625ZM170.75 24.125V25.25H171.75V24.125H170.75ZM171.25 25.75H172.375V24.75H171.25V25.75ZM171.875 25.25V26.375H172.875V25.25H171.875ZM171.875 26.375V27.5H172.875V26.375H171.875ZM171.875 27.5V28.625H172.875V27.5H171.875ZM171.875 28.625V29.75H172.875V28.625H171.875ZM171.875 29.75V30.875H172.875V29.75H171.875ZM171.875 30.875V32H172.875V30.875H171.875ZM172.375 31.5H171.25V32.5H172.375V31.5ZM167.875 31.375H169V30.375H167.875V31.375ZM169.5 30.875V29.75H168.5V30.875H169.5ZM169.5 29.75V28.625H168.5V29.75H169.5ZM169 28.125H167.875V29.125H169V28.125ZM167.875 28.125H166.75V29.125H167.875V28.125ZM166.25 28.625V29.75H167.25V28.625H166.25ZM166.25 29.75V30.875H167.25V29.75H166.25ZM166.75 31.375H167.875V30.375H166.75V31.375ZM174.22 27.878H173.72V28.378H174.22V27.878ZM174.22 26.474V25.974H173.72V26.474H174.22ZM178.576 26.474H179.076V25.974H178.576V26.474ZM178.576 27.878V28.378H179.076V27.878H178.576ZM174.72 27.878V26.474H173.72V27.878H174.72ZM174.22 26.974H178.576V25.974H174.22V26.974ZM178.076 26.474V27.878H179.076V26.474H178.076ZM178.576 27.378H174.22V28.378H178.576V27.378ZM180.426 32H179.926V32.5H180.426V32ZM180.426 30.875H180.926V30.375H180.426V30.875ZM179.301 30.875H178.801V31.375H179.301V30.875ZM179.301 25.25V24.75H178.801V25.25H179.301ZM180.426 25.25V25.75H180.926V25.25H180.426ZM180.426 24.125V23.625H179.926V24.125H180.426ZM187.176 24.125H187.676V23.625H187.176V24.125ZM187.176 25.25H186.676V25.75H187.176V25.25ZM188.301 25.25H188.801V24.75H188.301V25.25ZM188.301 26.375V26.875H188.801V26.375H188.301ZM184.926 26.375H184.426V26.875H184.926V26.375ZM184.926 25.25H185.426V24.75H184.926V25.25ZM182.676 25.25V24.75H182.176V25.25H182.676ZM182.676 30.875H182.176V31.375H182.676V30.875ZM184.926 30.875V31.375H185.426V30.875H184.926ZM184.926 29.75V29.25H184.426V29.75H184.926ZM188.301 29.75H188.801V29.25H188.301V29.75ZM188.301 30.875V31.375H188.801V30.875H188.301ZM187.176 30.875V30.375H186.676V30.875H187.176ZM187.176 32V32.5H187.676V32H187.176ZM186.051 31.5H184.926V32.5H186.051V31.5ZM184.926 31.5H183.801V32.5H184.926V31.5ZM183.801 31.5H182.676V32.5H183.801V31.5ZM182.676 31.5H181.551V32.5H182.676V31.5ZM181.551 31.5H180.426V32.5H181.551V31.5ZM180.926 32V30.875H179.926V32H180.926ZM180.426 30.375H179.301V31.375H180.426V30.375ZM179.801 30.875V29.75H178.801V30.875H179.801ZM179.801 29.75V28.625H178.801V29.75H179.801ZM179.801 28.625V27.5H178.801V28.625H179.801ZM179.801 27.5V26.375H178.801V27.5H179.801ZM179.801 26.375V25.25H178.801V26.375H179.801ZM179.301 25.75H180.426V24.75H179.301V25.75ZM180.926 25.25V24.125H179.926V25.25H180.926ZM180.426 24.625H181.551V23.625H180.426V24.625ZM181.551 24.625H182.676V23.625H181.551V24.625ZM182.676 24.625H183.801V23.625H182.676V24.625ZM183.801 24.625H184.926V23.625H183.801V24.625ZM184.926 24.625H186.051V23.625H184.926V24.625ZM186.051 24.625H187.176V23.625H186.051V24.625ZM186.676 24.125V25.25H187.676V24.125H186.676ZM187.176 25.75H188.301V24.75H187.176V25.75ZM187.801 25.25V26.375H188.801V25.25H187.801ZM188.301 25.875H187.176V26.875H188.301V25.875ZM187.176 25.875H186.051V26.875H187.176V25.875ZM186.051 25.875H184.926V26.875H186.051V25.875ZM185.426 26.375V25.25H184.426V26.375H185.426ZM184.926 24.75H183.801V25.75H184.926V24.75ZM183.801 24.75H182.676V25.75H183.801V24.75ZM182.176 25.25V26.375H183.176V25.25H182.176ZM182.176 26.375V27.5H183.176V26.375H182.176ZM182.176 27.5V28.625H183.176V27.5H182.176ZM182.176 28.625V29.75H183.176V28.625H182.176ZM182.176 29.75V30.875H183.176V29.75H182.176ZM182.676 31.375H183.801V30.375H182.676V31.375ZM183.801 31.375H184.926V30.375H183.801V31.375ZM185.426 30.875V29.75H184.426V30.875H185.426ZM184.926 30.25H186.051V29.25H184.926V30.25ZM186.051 30.25H187.176V29.25H186.051V30.25ZM187.176 30.25H188.301V29.25H187.176V30.25ZM187.801 29.75V30.875H188.801V29.75H187.801ZM188.301 30.375H187.176V31.375H188.301V30.375ZM186.676 30.875V32H187.676V30.875H186.676ZM187.176 31.5H186.051V32.5H187.176V31.5ZM190.551 32H190.051V32.5H190.551V32ZM190.551 30.875H191.051V30.375H190.551V30.875ZM189.426 30.875H188.926V31.375H189.426V30.875ZM189.426 25.25V24.75H188.926V25.25H189.426ZM190.551 25.25V25.75H191.051V25.25H190.551ZM190.551 24.125V23.625H190.051V24.125H190.551ZM197.301 24.125H197.801V23.625H197.301V24.125ZM197.301 25.25H196.801V25.75H197.301V25.25ZM198.426 25.25H198.926V24.75H198.426V25.25ZM198.426 30.875V31.375H198.926V30.875H198.426ZM197.301 30.875V30.375H196.801V30.875H197.301ZM197.301 32V32.5H197.801V32H197.301ZM195.051 30.875V31.375H195.551V30.875H195.051ZM195.051 25.25H195.551V24.75H195.051V25.25ZM192.801 25.25V24.75H192.301V25.25H192.801ZM192.801 30.875H192.301V31.375H192.801V30.875ZM196.176 31.5H195.051V32.5H196.176V31.5ZM195.051 31.5H193.926V32.5H195.051V31.5ZM193.926 31.5H192.801V32.5H193.926V31.5ZM192.801 31.5H191.676V32.5H192.801V31.5ZM191.676 31.5H190.551V32.5H191.676V31.5ZM191.051 32V30.875H190.051V32H191.051ZM190.551 30.375H189.426V31.375H190.551V30.375ZM189.926 30.875V29.75H188.926V30.875H189.926ZM189.926 29.75V28.625H188.926V29.75H189.926ZM189.926 28.625V27.5H188.926V28.625H189.926ZM189.926 27.5V26.375H188.926V27.5H189.926ZM189.926 26.375V25.25H188.926V26.375H189.926ZM189.426 25.75H190.551V24.75H189.426V25.75ZM191.051 25.25V24.125H190.051V25.25H191.051ZM190.551 24.625H191.676V23.625H190.551V24.625ZM191.676 24.625H192.801V23.625H191.676V24.625ZM192.801 24.625H193.926V23.625H192.801V24.625ZM193.926 24.625H195.051V23.625H193.926V24.625ZM195.051 24.625H196.176V23.625H195.051V24.625ZM196.176 24.625H197.301V23.625H196.176V24.625ZM196.801 24.125V25.25H197.801V24.125H196.801ZM197.301 25.75H198.426V24.75H197.301V25.75ZM197.926 25.25V26.375H198.926V25.25H197.926ZM197.926 26.375V27.5H198.926V26.375H197.926ZM197.926 27.5V28.625H198.926V27.5H197.926ZM197.926 28.625V29.75H198.926V28.625H197.926ZM197.926 29.75V30.875H198.926V29.75H197.926ZM198.426 30.375H197.301V31.375H198.426V30.375ZM196.801 30.875V32H197.801V30.875H196.801ZM197.301 31.5H196.176V32.5H197.301V31.5ZM193.926 31.375H195.051V30.375H193.926V31.375ZM195.551 30.875V29.75H194.551V30.875H195.551ZM195.551 29.75V28.625H194.551V29.75H195.551ZM195.551 28.625V27.5H194.551V28.625H195.551ZM195.551 27.5V26.375H194.551V27.5H195.551ZM195.551 26.375V25.25H194.551V26.375H195.551ZM195.051 24.75H193.926V25.75H195.051V24.75ZM193.926 24.75H192.801V25.75H193.926V24.75ZM192.301 25.25V26.375H193.301V25.25H192.301ZM192.301 26.375V27.5H193.301V26.375H192.301ZM192.301 27.5V28.625H193.301V27.5H192.301ZM192.301 28.625V29.75H193.301V28.625H192.301ZM192.301 29.75V30.875H193.301V29.75H192.301ZM192.801 31.375H193.926V30.375H192.801V31.375ZM199.551 32H199.051V32.5H199.551V32ZM199.551 24.125V23.625H199.051V24.125H199.551ZM202.926 24.125H203.426V23.625H202.926V24.125ZM202.926 32V32.5H203.426V32H202.926ZM199.551 23H199.051V23.5H199.551V23ZM199.551 20.75V20.25H199.051V20.75H199.551ZM202.926 20.75H203.426V20.25H202.926V20.75ZM202.926 23V23.5H203.426V23H202.926ZM201.801 31.5H200.676V32.5H201.801V31.5ZM200.676 31.5H199.551V32.5H200.676V31.5ZM200.051 32V30.875H199.051V32H200.051ZM200.051 30.875V29.75H199.051V30.875H200.051ZM200.051 29.75V28.625H199.051V29.75H200.051ZM200.051 28.625V27.5H199.051V28.625H200.051ZM200.051 27.5V26.375H199.051V27.5H200.051ZM200.051 26.375V25.25H199.051V26.375H200.051ZM200.051 25.25V24.125H199.051V25.25H200.051ZM199.551 24.625H200.676V23.625H199.551V24.625ZM200.676 24.625H201.801V23.625H200.676V24.625ZM201.801 24.625H202.926V23.625H201.801V24.625ZM202.426 24.125V25.25H203.426V24.125H202.426ZM202.426 25.25V26.375H203.426V25.25H202.426ZM202.426 26.375V27.5H203.426V26.375H202.426ZM202.426 27.5V28.625H203.426V27.5H202.426ZM202.426 28.625V29.75H203.426V28.625H202.426ZM202.426 29.75V30.875H203.426V29.75H202.426ZM202.426 30.875V32H203.426V30.875H202.426ZM202.926 31.5H201.801V32.5H202.926V31.5ZM201.801 22.5H200.676V23.5H201.801V22.5ZM200.676 22.5H199.551V23.5H200.676V22.5ZM200.051 23V21.875H199.051V23H200.051ZM200.051 21.875V20.75H199.051V21.875H200.051ZM199.551 21.25H200.676V20.25H199.551V21.25ZM200.676 21.25H201.801V20.25H200.676V21.25ZM201.801 21.25H202.926V20.25H201.801V21.25ZM202.426 20.75V21.875H203.426V20.75H202.426ZM202.426 21.875V23H203.426V21.875H202.426ZM202.926 22.5H201.801V23.5H202.926V22.5ZM209.676 32H209.176V32.5H209.676V32ZM209.676 25.25H210.176V24.75H209.676V25.25ZM207.426 25.25V24.75H206.926V25.25H207.426ZM207.426 32V32.5H207.926V32H207.426ZM204.051 32H203.551V32.5H204.051V32ZM204.051 24.125V23.625H203.551V24.125H204.051ZM211.926 24.125H212.426V23.625H211.926V24.125ZM211.926 25.25H211.426V25.75H211.926V25.25ZM213.051 25.25H213.551V24.75H213.051V25.25ZM213.051 32V32.5H213.551V32H213.051ZM211.926 31.5H210.801V32.5H211.926V31.5ZM210.801 31.5H209.676V32.5H210.801V31.5ZM210.176 32V30.875H209.176V32H210.176ZM210.176 30.875V29.75H209.176V30.875H210.176ZM210.176 29.75V28.625H209.176V29.75H210.176ZM210.176 28.625V27.5H209.176V28.625H210.176ZM210.176 27.5V26.375H209.176V27.5H210.176ZM210.176 26.375V25.25H209.176V26.375H210.176ZM209.676 24.75H208.551V25.75H209.676V24.75ZM208.551 24.75H207.426V25.75H208.551V24.75ZM206.926 25.25V26.375H207.926V25.25H206.926ZM206.926 26.375V27.5H207.926V26.375H206.926ZM206.926 27.5V28.625H207.926V27.5H206.926ZM206.926 28.625V29.75H207.926V28.625H206.926ZM206.926 29.75V30.875H207.926V29.75H206.926ZM206.926 30.875V32H207.926V30.875H206.926ZM207.426 31.5H206.301V32.5H207.426V31.5ZM206.301 31.5H205.176V32.5H206.301V31.5ZM205.176 31.5H204.051V32.5H205.176V31.5ZM204.551 32V30.875H203.551V32H204.551ZM204.551 30.875V29.75H203.551V30.875H204.551ZM204.551 29.75V28.625H203.551V29.75H204.551ZM204.551 28.625V27.5H203.551V28.625H204.551ZM204.551 27.5V26.375H203.551V27.5H204.551ZM204.551 26.375V25.25H203.551V26.375H204.551ZM204.551 25.25V24.125H203.551V25.25H204.551ZM204.051 24.625H205.176V23.625H204.051V24.625ZM205.176 24.625H206.301V23.625H205.176V24.625ZM206.301 24.625H207.426V23.625H206.301V24.625ZM207.426 24.625H208.551V23.625H207.426V24.625ZM208.551 24.625H209.676V23.625H208.551V24.625ZM209.676 24.625H210.801V23.625H209.676V24.625ZM210.801 24.625H211.926V23.625H210.801V24.625ZM211.426 24.125V25.25H212.426V24.125H211.426ZM211.926 25.75H213.051V24.75H211.926V25.75ZM212.551 25.25V26.375H213.551V25.25H212.551ZM212.551 26.375V27.5H213.551V26.375H212.551ZM212.551 27.5V28.625H213.551V27.5H212.551ZM212.551 28.625V29.75H213.551V28.625H212.551ZM212.551 29.75V30.875H213.551V29.75H212.551ZM212.551 30.875V32H213.551V30.875H212.551ZM213.051 31.5H211.926V32.5H213.051V31.5ZM215.301 32H214.801V32.5H215.301V32ZM215.301 30.875H215.801V30.375H215.301V30.875ZM214.176 30.875H213.676V31.375H214.176V30.875ZM214.176 29.75V29.25H213.676V29.75H214.176ZM217.551 29.75H218.051V29.25H217.551V29.75ZM217.551 30.875H217.051V31.375H217.551V30.875ZM219.801 30.875V31.375H220.301V30.875H219.801ZM219.801 28.625H220.301V28.125H219.801V28.625ZM215.301 28.625H214.801V29.125H215.301V28.625ZM215.301 27.5H215.801V27H215.301V27.5ZM214.176 27.5H213.676V28H214.176V27.5ZM214.176 25.25V24.75H213.676V25.25H214.176ZM215.301 25.25V25.75H215.801V25.25H215.301ZM215.301 24.125V23.625H214.801V24.125H215.301ZM222.051 24.125H222.551V23.625H222.051V24.125ZM222.051 25.25H221.551V25.75H222.051V25.25ZM223.176 25.25H223.676V24.75H223.176V25.25ZM223.176 26.375V26.875H223.676V26.375H223.176ZM219.801 26.375H219.301V26.875H219.801V26.375ZM219.801 25.25H220.301V24.75H219.801V25.25ZM217.551 25.25V24.75H217.051V25.25H217.551ZM217.551 27.5H217.051V28H217.551V27.5ZM222.051 27.5H222.551V27H222.051V27.5ZM222.051 28.625H221.551V29.125H222.051V28.625ZM223.176 28.625H223.676V28.125H223.176V28.625ZM223.176 30.875V31.375H223.676V30.875H223.176ZM222.051 30.875V30.375H221.551V30.875H222.051ZM222.051 32V32.5H222.551V32H222.051ZM220.926 31.5H219.801V32.5H220.926V31.5ZM219.801 31.5H218.676V32.5H219.801V31.5ZM218.676 31.5H217.551V32.5H218.676V31.5ZM217.551 31.5H216.426V32.5H217.551V31.5ZM216.426 31.5H215.301V32.5H216.426V31.5ZM215.801 32V30.875H214.801V32H215.801ZM215.301 30.375H214.176V31.375H215.301V30.375ZM214.676 30.875V29.75H213.676V30.875H214.676ZM214.176 30.25H215.301V29.25H214.176V30.25ZM215.301 30.25H216.426V29.25H215.301V30.25ZM216.426 30.25H217.551V29.25H216.426V30.25ZM217.051 29.75V30.875H218.051V29.75H217.051ZM217.551 31.375H218.676V30.375H217.551V31.375ZM218.676 31.375H219.801V30.375H218.676V31.375ZM220.301 30.875V29.75H219.301V30.875H220.301ZM220.301 29.75V28.625H219.301V29.75H220.301ZM219.801 28.125H218.676V29.125H219.801V28.125ZM218.676 28.125H217.551V29.125H218.676V28.125ZM217.551 28.125H216.426V29.125H217.551V28.125ZM216.426 28.125H215.301V29.125H216.426V28.125ZM215.801 28.625V27.5H214.801V28.625H215.801ZM215.301 27H214.176V28H215.301V27ZM214.676 27.5V26.375H213.676V27.5H214.676ZM214.676 26.375V25.25H213.676V26.375H214.676ZM214.176 25.75H215.301V24.75H214.176V25.75ZM215.801 25.25V24.125H214.801V25.25H215.801ZM215.301 24.625H216.426V23.625H215.301V24.625ZM216.426 24.625H217.551V23.625H216.426V24.625ZM217.551 24.625H218.676V23.625H217.551V24.625ZM218.676 24.625H219.801V23.625H218.676V24.625ZM219.801 24.625H220.926V23.625H219.801V24.625ZM220.926 24.625H222.051V23.625H220.926V24.625ZM221.551 24.125V25.25H222.551V24.125H221.551ZM222.051 25.75H223.176V24.75H222.051V25.75ZM222.676 25.25V26.375H223.676V25.25H222.676ZM223.176 25.875H222.051V26.875H223.176V25.875ZM222.051 25.875H220.926V26.875H222.051V25.875ZM220.926 25.875H219.801V26.875H220.926V25.875ZM220.301 26.375V25.25H219.301V26.375H220.301ZM219.801 24.75H218.676V25.75H219.801V24.75ZM218.676 24.75H217.551V25.75H218.676V24.75ZM217.051 25.25V26.375H218.051V25.25H217.051ZM217.051 26.375V27.5H218.051V26.375H217.051ZM217.551 28H218.676V27H217.551V28ZM218.676 28H219.801V27H218.676V28ZM219.801 28H220.926V27H219.801V28ZM220.926 28H222.051V27H220.926V28ZM221.551 27.5V28.625H222.551V27.5H221.551ZM222.051 29.125H223.176V28.125H222.051V29.125ZM222.676 28.625V29.75H223.676V28.625H222.676ZM222.676 29.75V30.875H223.676V29.75H222.676ZM223.176 30.375H222.051V31.375H223.176V30.375ZM221.551 30.875V32H222.551V30.875H221.551ZM222.051 31.5H220.926V32.5H222.051V31.5Z" fill="#543847" mask="url(#path-2-outside-1_105_6)"/>
<mask id="path-4-outside-2_105_6" maskUnits="userSpaceOnUse" x="161" y="62" width="39" height="13" fill="black">
<rect fill="white" x="161" y="62" width="39" height="13"/>
<path d="M168.75 74H167.625H166.5H165.375H164.25H163.125H162V72.875V71.75V70.625V69.5V68.375V67.25V66.125V65V63.875H163.125H164.25H165.375H166.5H167.625H168.75H169.875V65H171V66.125V67.25V68.375H169.875H168.75V69.5H169.875H171V70.625V71.75V72.875H169.875V74H168.75ZM166.5 72.875H167.625V71.75V70.625V69.5H166.5H165.375V70.625V71.75V72.875H166.5ZM166.5 68.375H167.625V67.25V66.125V65H166.5H165.375V66.125V67.25V68.375H166.5ZM178.875 74H177.75H176.625H175.5H174.375H173.25V72.875H172.125V71.75V70.625V69.5V68.375V67.25H173.25V66.125H174.375H175.5H176.625H177.75H178.875H180V67.25H181.125V68.375V69.5V70.625H180H178.875H177.75H176.625H175.5V71.75V72.875H176.625H177.75V71.75H178.875H180H181.125V72.875H180V74H178.875ZM176.625 69.5H177.75V68.375V67.25H176.625H175.5V68.375V69.5H176.625ZM189 74H187.875H186.75H185.625H184.5H183.375V72.875H182.25V71.75H183.375H184.5H185.625V72.875H186.75H187.875V71.75V70.625H186.75H185.625H184.5H183.375V69.5H182.25V68.375V67.25H183.375V66.125H184.5H185.625H186.75H187.875H189H190.125V67.25H191.25V68.375H190.125H189H187.875V67.25H186.75H185.625V68.375V69.5H186.75H187.875H189H190.125V70.625H191.25V71.75V72.875H190.125V74H189ZM198 74H196.875H195.75V72.875H194.625V71.75H193.5V70.625V69.5V68.375V67.25H192.375V66.125H193.5V65V63.875V62.75H194.625H195.75H196.875V63.875V65V66.125H198H199.125V67.25H198H196.875V68.375V69.5V70.625V71.75H198V72.875H199.125V74H198Z"/>
</mask>
<path d="M168.75 74H167.625H166.5H165.375H164.25H163.125H162V72.875V71.75V70.625V69.5V68.375V67.25V66.125V65V63.875H163.125H164.25H165.375H166.5H167.625H168.75H169.875V65H171V66.125V67.25V68.375H169.875H168.75V69.5H169.875H171V70.625V71.75V72.875H169.875V74H168.75ZM166.5 72.875H167.625V71.75V70.625V69.5H166.5H165.375V70.625V71.75V72.875H166.5ZM166.5 68.375H167.625V67.25V66.125V65H166.5H165.375V66.125V67.25V68.375H166.5ZM178.875 74H177.75H176.625H175.5H174.375H173.25V72.875H172.125V71.75V70.625V69.5V68.375V67.25H173.25V66.125H174.375H175.5H176.625H177.75H178.875H180V67.25H181.125V68.375V69.5V70.625H180H178.875H177.75H176.625H175.5V71.75V72.875H176.625H177.75V71.75H178.875H180H181.125V72.875H180V74H178.875ZM176.625 69.5H177.75V68.375V67.25H176.625H175.5V68.375V69.5H176.625ZM189 74H187.875H186.75H185.625H184.5H183.375V72.875H182.25V71.75H183.375H184.5H185.625V72.875H186.75H187.875V71.75V70.625H186.75H185.625H184.5H183.375V69.5H182.25V68.375V67.25H183.375V66.125H184.5H185.625H186.75H187.875H189H190.125V67.25H191.25V68.375H190.125H189H187.875V67.25H186.75H185.625V68.375V69.5H186.75H187.875H189H190.125V70.625H191.25V71.75V72.875H190.125V74H189ZM198 74H196.875H195.75V72.875H194.625V71.75H193.5V70.625V69.5V68.375V67.25H192.375V66.125H193.5V65V63.875V62.75H194.625H195.75H196.875V63.875V65V66.125H198H199.125V67.25H198H196.875V68.375V69.5V70.625V71.75H198V72.875H199.125V74H198Z" fill="#F87E61"/>
<path d="M162 74H161.5V74.5H162V74ZM162 63.875V63.375H161.5V63.875H162ZM169.875 63.875H170.375V63.375H169.875V63.875ZM169.875 65H169.375V65.5H169.875V65ZM171 65H171.5V64.5H171V65ZM171 68.375V68.875H171.5V68.375H171ZM168.75 68.375V67.875H168.25V68.375H168.75ZM168.75 69.5H168.25V70H168.75V69.5ZM171 69.5H171.5V69H171V69.5ZM171 72.875V73.375H171.5V72.875H171ZM169.875 72.875V72.375H169.375V72.875H169.875ZM169.875 74V74.5H170.375V74H169.875ZM167.625 72.875V73.375H168.125V72.875H167.625ZM167.625 69.5H168.125V69H167.625V69.5ZM165.375 69.5V69H164.875V69.5H165.375ZM165.375 72.875H164.875V73.375H165.375V72.875ZM167.625 68.375V68.875H168.125V68.375H167.625ZM167.625 65H168.125V64.5H167.625V65ZM165.375 65V64.5H164.875V65H165.375ZM165.375 68.375H164.875V68.875H165.375V68.375ZM168.75 73.5H167.625V74.5H168.75V73.5ZM167.625 73.5H166.5V74.5H167.625V73.5ZM166.5 73.5H165.375V74.5H166.5V73.5ZM165.375 73.5H164.25V74.5H165.375V73.5ZM164.25 73.5H163.125V74.5H164.25V73.5ZM163.125 73.5H162V74.5H163.125V73.5ZM162.5 74V72.875H161.5V74H162.5ZM162.5 72.875V71.75H161.5V72.875H162.5ZM162.5 71.75V70.625H161.5V71.75H162.5ZM162.5 70.625V69.5H161.5V70.625H162.5ZM162.5 69.5V68.375H161.5V69.5H162.5ZM162.5 68.375V67.25H161.5V68.375H162.5ZM162.5 67.25V66.125H161.5V67.25H162.5ZM162.5 66.125V65H161.5V66.125H162.5ZM162.5 65V63.875H161.5V65H162.5ZM162 64.375H163.125V63.375H162V64.375ZM163.125 64.375H164.25V63.375H163.125V64.375ZM164.25 64.375H165.375V63.375H164.25V64.375ZM165.375 64.375H166.5V63.375H165.375V64.375ZM166.5 64.375H167.625V63.375H166.5V64.375ZM167.625 64.375H168.75V63.375H167.625V64.375ZM168.75 64.375H169.875V63.375H168.75V64.375ZM169.375 63.875V65H170.375V63.875H169.375ZM169.875 65.5H171V64.5H169.875V65.5ZM170.5 65V66.125H171.5V65H170.5ZM170.5 66.125V67.25H171.5V66.125H170.5ZM170.5 67.25V68.375H171.5V67.25H170.5ZM171 67.875H169.875V68.875H171V67.875ZM169.875 67.875H168.75V68.875H169.875V67.875ZM168.25 68.375V69.5H169.25V68.375H168.25ZM168.75 70H169.875V69H168.75V70ZM169.875 70H171V69H169.875V70ZM170.5 69.5V70.625H171.5V69.5H170.5ZM170.5 70.625V71.75H171.5V70.625H170.5ZM170.5 71.75V72.875H171.5V71.75H170.5ZM171 72.375H169.875V73.375H171V72.375ZM169.375 72.875V74H170.375V72.875H169.375ZM169.875 73.5H168.75V74.5H169.875V73.5ZM166.5 73.375H167.625V72.375H166.5V73.375ZM168.125 72.875V71.75H167.125V72.875H168.125ZM168.125 71.75V70.625H167.125V71.75H168.125ZM168.125 70.625V69.5H167.125V70.625H168.125ZM167.625 69H166.5V70H167.625V69ZM166.5 69H165.375V70H166.5V69ZM164.875 69.5V70.625H165.875V69.5H164.875ZM164.875 70.625V71.75H165.875V70.625H164.875ZM164.875 71.75V72.875H165.875V71.75H164.875ZM165.375 73.375H166.5V72.375H165.375V73.375ZM166.5 68.875H167.625V67.875H166.5V68.875ZM168.125 68.375V67.25H167.125V68.375H168.125ZM168.125 67.25V66.125H167.125V67.25H168.125ZM168.125 66.125V65H167.125V66.125H168.125ZM167.625 64.5H166.5V65.5H167.625V64.5ZM166.5 64.5H165.375V65.5H166.5V64.5ZM164.875 65V66.125H165.875V65H164.875ZM164.875 66.125V67.25H165.875V66.125H164.875ZM164.875 67.25V68.375H165.875V67.25H164.875ZM165.375 68.875H166.5V67.875H165.375V68.875ZM173.25 74H172.75V74.5H173.25V74ZM173.25 72.875H173.75V72.375H173.25V72.875ZM172.125 72.875H171.625V73.375H172.125V72.875ZM172.125 67.25V66.75H171.625V67.25H172.125ZM173.25 67.25V67.75H173.75V67.25H173.25ZM173.25 66.125V65.625H172.75V66.125H173.25ZM180 66.125H180.5V65.625H180V66.125ZM180 67.25H179.5V67.75H180V67.25ZM181.125 67.25H181.625V66.75H181.125V67.25ZM181.125 70.625V71.125H181.625V70.625H181.125ZM175.5 70.625V70.125H175V70.625H175.5ZM175.5 72.875H175V73.375H175.5V72.875ZM177.75 72.875V73.375H178.25V72.875H177.75ZM177.75 71.75V71.25H177.25V71.75H177.75ZM181.125 71.75H181.625V71.25H181.125V71.75ZM181.125 72.875V73.375H181.625V72.875H181.125ZM180 72.875V72.375H179.5V72.875H180ZM180 74V74.5H180.5V74H180ZM177.75 69.5V70H178.25V69.5H177.75ZM177.75 67.25H178.25V66.75H177.75V67.25ZM175.5 67.25V66.75H175V67.25H175.5ZM175.5 69.5H175V70H175.5V69.5ZM178.875 73.5H177.75V74.5H178.875V73.5ZM177.75 73.5H176.625V74.5H177.75V73.5ZM176.625 73.5H175.5V74.5H176.625V73.5ZM175.5 73.5H174.375V74.5H175.5V73.5ZM174.375 73.5H173.25V74.5H174.375V73.5ZM173.75 74V72.875H172.75V74H173.75ZM173.25 72.375H172.125V73.375H173.25V72.375ZM172.625 72.875V71.75H171.625V72.875H172.625ZM172.625 71.75V70.625H171.625V71.75H172.625ZM172.625 70.625V69.5H171.625V70.625H172.625ZM172.625 69.5V68.375H171.625V69.5H172.625ZM172.625 68.375V67.25H171.625V68.375H172.625ZM172.125 67.75H173.25V66.75H172.125V67.75ZM173.75 67.25V66.125H172.75V67.25H173.75ZM173.25 66.625H174.375V65.625H173.25V66.625ZM174.375 66.625H175.5V65.625H174.375V66.625ZM175.5 66.625H176.625V65.625H175.5V66.625ZM176.625 66.625H177.75V65.625H176.625V66.625ZM177.75 66.625H178.875V65.625H177.75V66.625ZM178.875 66.625H180V65.625H178.875V66.625ZM179.5 66.125V67.25H180.5V66.125H179.5ZM180 67.75H181.125V66.75H180V67.75ZM180.625 67.25V68.375H181.625V67.25H180.625ZM180.625 68.375V69.5H181.625V68.375H180.625ZM180.625 69.5V70.625H181.625V69.5H180.625ZM181.125 70.125H180V71.125H181.125V70.125ZM180 70.125H178.875V71.125H180V70.125ZM178.875 70.125H177.75V71.125H178.875V70.125ZM177.75 70.125H176.625V71.125H177.75V70.125ZM176.625 70.125H175.5V71.125H176.625V70.125ZM175 70.625V71.75H176V70.625H175ZM175 71.75V72.875H176V71.75H175ZM175.5 73.375H176.625V72.375H175.5V73.375ZM176.625 73.375H177.75V72.375H176.625V73.375ZM178.25 72.875V71.75H177.25V72.875H178.25ZM177.75 72.25H178.875V71.25H177.75V72.25ZM178.875 72.25H180V71.25H178.875V72.25ZM180 72.25H181.125V71.25H180V72.25ZM180.625 71.75V72.875H181.625V71.75H180.625ZM181.125 72.375H180V73.375H181.125V72.375ZM179.5 72.875V74H180.5V72.875H179.5ZM180 73.5H178.875V74.5H180V73.5ZM176.625 70H177.75V69H176.625V70ZM178.25 69.5V68.375H177.25V69.5H178.25ZM178.25 68.375V67.25H177.25V68.375H178.25ZM177.75 66.75H176.625V67.75H177.75V66.75ZM176.625 66.75H175.5V67.75H176.625V66.75ZM175 67.25V68.375H176V67.25H175ZM175 68.375V69.5H176V68.375H175ZM175.5 70H176.625V69H175.5V70ZM183.375 74H182.875V74.5H183.375V74ZM183.375 72.875H183.875V72.375H183.375V72.875ZM182.25 72.875H181.75V73.375H182.25V72.875ZM182.25 71.75V71.25H181.75V71.75H182.25ZM185.625 71.75H186.125V71.25H185.625V71.75ZM185.625 72.875H185.125V73.375H185.625V72.875ZM187.875 72.875V73.375H188.375V72.875H187.875ZM187.875 70.625H188.375V70.125H187.875V70.625ZM183.375 70.625H182.875V71.125H183.375V70.625ZM183.375 69.5H183.875V69H183.375V69.5ZM182.25 69.5H181.75V70H182.25V69.5ZM182.25 67.25V66.75H181.75V67.25H182.25ZM183.375 67.25V67.75H183.875V67.25H183.375ZM183.375 66.125V65.625H182.875V66.125H183.375ZM190.125 66.125H190.625V65.625H190.125V66.125ZM190.125 67.25H189.625V67.75H190.125V67.25ZM191.25 67.25H191.75V66.75H191.25V67.25ZM191.25 68.375V68.875H191.75V68.375H191.25ZM187.875 68.375H187.375V68.875H187.875V68.375ZM187.875 67.25H188.375V66.75H187.875V67.25ZM185.625 67.25V66.75H185.125V67.25H185.625ZM185.625 69.5H185.125V70H185.625V69.5ZM190.125 69.5H190.625V69H190.125V69.5ZM190.125 70.625H189.625V71.125H190.125V70.625ZM191.25 70.625H191.75V70.125H191.25V70.625ZM191.25 72.875V73.375H191.75V72.875H191.25ZM190.125 72.875V72.375H189.625V72.875H190.125ZM190.125 74V74.5H190.625V74H190.125ZM189 73.5H187.875V74.5H189V73.5ZM187.875 73.5H186.75V74.5H187.875V73.5ZM186.75 73.5H185.625V74.5H186.75V73.5ZM185.625 73.5H184.5V74.5H185.625V73.5ZM184.5 73.5H183.375V74.5H184.5V73.5ZM183.875 74V72.875H182.875V74H183.875ZM183.375 72.375H182.25V73.375H183.375V72.375ZM182.75 72.875V71.75H181.75V72.875H182.75ZM182.25 72.25H183.375V71.25H182.25V72.25ZM183.375 72.25H184.5V71.25H183.375V72.25ZM184.5 72.25H185.625V71.25H184.5V72.25ZM185.125 71.75V72.875H186.125V71.75H185.125ZM185.625 73.375H186.75V72.375H185.625V73.375ZM186.75 73.375H187.875V72.375H186.75V73.375ZM188.375 72.875V71.75H187.375V72.875H188.375ZM188.375 71.75V70.625H187.375V71.75H188.375ZM187.875 70.125H186.75V71.125H187.875V70.125ZM186.75 70.125H185.625V71.125H186.75V70.125ZM185.625 70.125H184.5V71.125H185.625V70.125ZM184.5 70.125H183.375V71.125H184.5V70.125ZM183.875 70.625V69.5H182.875V70.625H183.875ZM183.375 69H182.25V70H183.375V69ZM182.75 69.5V68.375H181.75V69.5H182.75ZM182.75 68.375V67.25H181.75V68.375H182.75ZM182.25 67.75H183.375V66.75H182.25V67.75ZM183.875 67.25V66.125H182.875V67.25H183.875ZM183.375 66.625H184.5V65.625H183.375V66.625ZM184.5 66.625H185.625V65.625H184.5V66.625ZM185.625 66.625H186.75V65.625H185.625V66.625ZM186.75 66.625H187.875V65.625H186.75V66.625ZM187.875 66.625H189V65.625H187.875V66.625ZM189 66.625H190.125V65.625H189V66.625ZM189.625 66.125V67.25H190.625V66.125H189.625ZM190.125 67.75H191.25V66.75H190.125V67.75ZM190.75 67.25V68.375H191.75V67.25H190.75ZM191.25 67.875H190.125V68.875H191.25V67.875ZM190.125 67.875H189V68.875H190.125V67.875ZM189 67.875H187.875V68.875H189V67.875ZM188.375 68.375V67.25H187.375V68.375H188.375ZM187.875 66.75H186.75V67.75H187.875V66.75ZM186.75 66.75H185.625V67.75H186.75V66.75ZM185.125 67.25V68.375H186.125V67.25H185.125ZM185.125 68.375V69.5H186.125V68.375H185.125ZM185.625 70H186.75V69H185.625V70ZM186.75 70H187.875V69H186.75V70ZM187.875 70H189V69H187.875V70ZM189 70H190.125V69H189V70ZM189.625 69.5V70.625H190.625V69.5H189.625ZM190.125 71.125H191.25V70.125H190.125V71.125ZM190.75 70.625V71.75H191.75V70.625H190.75ZM190.75 71.75V72.875H191.75V71.75H190.75ZM191.25 72.375H190.125V73.375H191.25V72.375ZM189.625 72.875V74H190.625V72.875H189.625ZM190.125 73.5H189V74.5H190.125V73.5ZM195.75 74H195.25V74.5H195.75V74ZM195.75 72.875H196.25V72.375H195.75V72.875ZM194.625 72.875H194.125V73.375H194.625V72.875ZM194.625 71.75H195.125V71.25H194.625V71.75ZM193.5 71.75H193V72.25H193.5V71.75ZM193.5 67.25H194V66.75H193.5V67.25ZM192.375 67.25H191.875V67.75H192.375V67.25ZM192.375 66.125V65.625H191.875V66.125H192.375ZM193.5 66.125V66.625H194V66.125H193.5ZM193.5 62.75V62.25H193V62.75H193.5ZM196.875 62.75H197.375V62.25H196.875V62.75ZM196.875 66.125H196.375V66.625H196.875V66.125ZM199.125 66.125H199.625V65.625H199.125V66.125ZM199.125 67.25V67.75H199.625V67.25H199.125ZM196.875 67.25V66.75H196.375V67.25H196.875ZM196.875 71.75H196.375V72.25H196.875V71.75ZM198 71.75H198.5V71.25H198V71.75ZM198 72.875H197.5V73.375H198V72.875ZM199.125 72.875H199.625V72.375H199.125V72.875ZM199.125 74V74.5H199.625V74H199.125ZM198 73.5H196.875V74.5H198V73.5ZM196.875 73.5H195.75V74.5H196.875V73.5ZM196.25 74V72.875H195.25V74H196.25ZM195.75 72.375H194.625V73.375H195.75V72.375ZM195.125 72.875V71.75H194.125V72.875H195.125ZM194.625 71.25H193.5V72.25H194.625V71.25ZM194 71.75V70.625H193V71.75H194ZM194 70.625V69.5H193V70.625H194ZM194 69.5V68.375H193V69.5H194ZM194 68.375V67.25H193V68.375H194ZM193.5 66.75H192.375V67.75H193.5V66.75ZM192.875 67.25V66.125H191.875V67.25H192.875ZM192.375 66.625H193.5V65.625H192.375V66.625ZM194 66.125V65H193V66.125H194ZM194 65V63.875H193V65H194ZM194 63.875V62.75H193V63.875H194ZM193.5 63.25H194.625V62.25H193.5V63.25ZM194.625 63.25H195.75V62.25H194.625V63.25ZM195.75 63.25H196.875V62.25H195.75V63.25ZM196.375 62.75V63.875H197.375V62.75H196.375ZM196.375 63.875V65H197.375V63.875H196.375ZM196.375 65V66.125H197.375V65H196.375ZM196.875 66.625H198V65.625H196.875V66.625ZM198 66.625H199.125V65.625H198V66.625ZM198.625 66.125V67.25H199.625V66.125H198.625ZM199.125 66.75H198V67.75H199.125V66.75ZM198 66.75H196.875V67.75H198V66.75ZM196.375 67.25V68.375H197.375V67.25H196.375ZM196.375 68.375V69.5H197.375V68.375H196.375ZM196.375 69.5V70.625H197.375V69.5H196.375ZM196.375 70.625V71.75H197.375V70.625H196.375ZM196.875 72.25H198V71.25H196.875V72.25ZM197.5 71.75V72.875H198.5V71.75H197.5ZM198 73.375H199.125V72.375H198V73.375ZM198.625 72.875V74H199.625V72.875H198.625ZM199.125 73.5H198V74.5H199.125V73.5Z" fill="#543847" mask="url(#path-4-outside-2_105_6)"/>
<mask id="path-6-outside-3_105_6" maskUnits="userSpaceOnUse" x="19" y="20" width="86" height="13" fill="black">
<rect fill="white" x="19" y="20" width="86" height="13"/>
<path d="M22.25 32H21.125H20V30.875V29.75V28.625V27.5V26.375V25.25V24.125V23V21.875H21.125H22.25H23.375H24.5H25.625H26.75H27.875V23H29V24.125V25.25V26.375H27.875H26.75H25.625V25.25V24.125V23H24.5H23.375V24.125V25.25V26.375H24.5H25.625V27.5H24.5H23.375V28.625V29.75V30.875V32H22.25ZM32.375 32H31.25H30.125V30.875V29.75V28.625V27.5V26.375V25.25V24.125H31.25H32.375H33.5H34.625H35.75H36.875H38V25.25H39.125V26.375H38H36.875H35.75V25.25H34.625H33.5V26.375V27.5V28.625V29.75V30.875V32H32.375ZM47 32H45.875H44.75H43.625H42.5H41.375V30.875H40.25V29.75V28.625V27.5V26.375V25.25H41.375V24.125H42.5H43.625H44.75H45.875H47H48.125V25.25H49.25V26.375V27.5V28.625V29.75V30.875H48.125V32H47ZM44.75 30.875H45.875V29.75V28.625V27.5V26.375V25.25H44.75H43.625V26.375V27.5V28.625V29.75V30.875H44.75ZM62.75 32H61.625H60.5V30.875V29.75V28.625V27.5V26.375V25.25H59.375V26.375V27.5V28.625V29.75V30.875V32H58.25H57.125H56H54.875V30.875V29.75V28.625V27.5V26.375V25.25H53.75V26.375V27.5V28.625V29.75V30.875V32H52.625H51.5H50.375V30.875V29.75V28.625V27.5V26.375V25.25V24.125H51.5H52.625H53.75H54.875H56V25.25H57.125V24.125H58.25H59.375H60.5H61.625H62.75V25.25H63.875V26.375V27.5V28.625V29.75V30.875V32H62.75ZM71.75 32H70.625H69.5H68.375H67.25H66.125V30.875H65V29.75V28.625V27.5V26.375V25.25H66.125V24.125H67.25H68.375H69.5H70.625H71.75H72.875V25.25H74V26.375V27.5V28.625V29.75V30.875H72.875V32H71.75ZM69.5 30.875H70.625V29.75V28.625V27.5V26.375V25.25H69.5H68.375V26.375V27.5V28.625V29.75V30.875H69.5ZM81.875 32H80.75H79.625H78.5H77.375H76.25V30.875H75.125V29.75V28.625V27.5V26.375V25.25H76.25V24.125H77.375H78.5H79.625H80.75H81.875H83V25.25H84.125V26.375H83H81.875H80.75V25.25H79.625H78.5V26.375V27.5V28.625V29.75V30.875H79.625H80.75V29.75H81.875H83H84.125V30.875H83V32H81.875ZM92 32H90.875H89.75H88.625H87.5H86.375V30.875H85.25V29.75V28.625V27.5V26.375V25.25H86.375V24.125H87.5H88.625H89.75H90.875H92H93.125V25.25H94.25V26.375V27.5V28.625V29.75V30.875H93.125V32H92ZM89.75 30.875H90.875V29.75V28.625V27.5V26.375V25.25H89.75H88.625V26.375V27.5V28.625V29.75V30.875H89.75ZM103.25 32H102.125H101H99.875H98.75H97.625H96.5V30.875H95.375V29.75V28.625V27.5V26.375V25.25H96.5V24.125H97.625H98.75H99.875H101V23V21.875V20.75H102.125H103.25H104.375V21.875V23V24.125V25.25V26.375V27.5V28.625V29.75V30.875V32H103.25ZM99.875 30.875H101V29.75V28.625V27.5V26.375V25.25H99.875H98.75V26.375V27.5V28.625V29.75V30.875H99.875Z"/>
</mask>
<path d="M22.25 32H21.125H20V30.875V29.75V28.625V27.5V26.375V25.25V24.125V23V21.875H21.125H22.25H23.375H24.5H25.625H26.75H27.875V23H29V24.125V25.25V26.375H27.875H26.75H25.625V25.25V24.125V23H24.5H23.375V24.125V25.25V26.375H24.5H25.625V27.5H24.5H23.375V28.625V29.75V30.875V32H22.25ZM32.375 32H31.25H30.125V30.875V29.75V28.625V27.5V26.375V25.25V24.125H31.25H32.375H33.5H34.625H35.75H36.875H38V25.25H39.125V26.375H38H36.875H35.75V25.25H34.625H33.5V26.375V27.5V28.625V29.75V30.875V32H32.375ZM47 32H45.875H44.75H43.625H42.5H41.375V30.875H40.25V29.75V28.625V27.5V26.375V25.25H41.375V24.125H42.5H43.625H44.75H45.875H47H48.125V25.25H49.25V26.375V27.5V28.625V29.75V30.875H48.125V32H47ZM44.75 30.875H45.875V29.75V28.625V27.5V26.375V25.25H44.75H43.625V26.375V27.5V28.625V29.75V30.875H44.75ZM62.75 32H61.625H60.5V30.875V29.75V28.625V27.5V26.375V25.25H59.375V26.375V27.5V28.625V29.75V30.875V32H58.25H57.125H56H54.875V30.875V29.75V28.625V27.5V26.375V25.25H53.75V26.375V27.5V28.625V29.75V30.875V32H52.625H51.5H50.375V30.875V29.75V28.625V27.5V26.375V25.25V24.125H51.5H52.625H53.75H54.875H56V25.25H57.125V24.125H58.25H59.375H60.5H61.625H62.75V25.25H63.875V26.375V27.5V28.625V29.75V30.875V32H62.75ZM71.75 32H70.625H69.5H68.375H67.25H66.125V30.875H65V29.75V28.625V27.5V26.375V25.25H66.125V24.125H67.25H68.375H69.5H70.625H71.75H72.875V25.25H74V26.375V27.5V28.625V29.75V30.875H72.875V32H71.75ZM69.5 30.875H70.625V29.75V28.625V27.5V26.375V25.25H69.5H68.375V26.375V27.5V28.625V29.75V30.875H69.5ZM81.875 32H80.75H79.625H78.5H77.375H76.25V30.875H75.125V29.75V28.625V27.5V26.375V25.25H76.25V24.125H77.375H78.5H79.625H80.75H81.875H83V25.25H84.125V26.375H83H81.875H80.75V25.25H79.625H78.5V26.375V27.5V28.625V29.75V30.875H79.625H80.75V29.75H81.875H83H84.125V30.875H83V32H81.875ZM92 32H90.875H89.75H88.625H87.5H86.375V30.875H85.25V29.75V28.625V27.5V26.375V25.25H86.375V24.125H87.5H88.625H89.75H90.875H92H93.125V25.25H94.25V26.375V27.5V28.625V29.75V30.875H93.125V32H92ZM89.75 30.875H90.875V29.75V28.625V27.5V26.375V25.25H89.75H88.625V26.375V27.5V28.625V29.75V30.875H89.75ZM103.25 32H102.125H101H99.875H98.75H97.625H96.5V30.875H95.375V29.75V28.625V27.5V26.375V25.25H96.5V24.125H97.625H98.75H99.875H101V23V21.875V20.75H102.125H103.25H104.375V21.875V23V24.125V25.25V26.375V27.5V28.625V29.75V30.875V32H103.25ZM99.875 30.875H101V29.75V28.625V27.5V26.375V25.25H99.875H98.75V26.375V27.5V28.625V29.75V30.875H99.875Z" fill="#F87E61"/>
<path d="M20 32H19.5V32.5H20V32ZM20 21.875V21.375H19.5V21.875H20ZM27.875 21.875H28.375V21.375H27.875V21.875ZM27.875 23H27.375V23.5H27.875V23ZM29 23H29.5V22.5H29V23ZM29 26.375V26.875H29.5V26.375H29ZM25.625 26.375H25.125V26.875H25.625V26.375ZM25.625 23H26.125V22.5H25.625V23ZM23.375 23V22.5H22.875V23H23.375ZM23.375 26.375H22.875V26.875H23.375V26.375ZM25.625 26.375H26.125V25.875H25.625V26.375ZM25.625 27.5V28H26.125V27.5H25.625ZM23.375 27.5V27H22.875V27.5H23.375ZM23.375 32V32.5H23.875V32H23.375ZM22.25 31.5H21.125V32.5H22.25V31.5ZM21.125 31.5H20V32.5H21.125V31.5ZM20.5 32V30.875H19.5V32H20.5ZM20.5 30.875V29.75H19.5V30.875H20.5ZM20.5 29.75V28.625H19.5V29.75H20.5ZM20.5 28.625V27.5H19.5V28.625H20.5ZM20.5 27.5V26.375H19.5V27.5H20.5ZM20.5 26.375V25.25H19.5V26.375H20.5ZM20.5 25.25V24.125H19.5V25.25H20.5ZM20.5 24.125V23H19.5V24.125H20.5ZM20.5 23V21.875H19.5V23H20.5ZM20 22.375H21.125V21.375H20V22.375ZM21.125 22.375H22.25V21.375H21.125V22.375ZM22.25 22.375H23.375V21.375H22.25V22.375ZM23.375 22.375H24.5V21.375H23.375V22.375ZM24.5 22.375H25.625V21.375H24.5V22.375ZM25.625 22.375H26.75V21.375H25.625V22.375ZM26.75 22.375H27.875V21.375H26.75V22.375ZM27.375 21.875V23H28.375V21.875H27.375ZM27.875 23.5H29V22.5H27.875V23.5ZM28.5 23V24.125H29.5V23H28.5ZM28.5 24.125V25.25H29.5V24.125H28.5ZM28.5 25.25V26.375H29.5V25.25H28.5ZM29 25.875H27.875V26.875H29V25.875ZM27.875 25.875H26.75V26.875H27.875V25.875ZM26.75 25.875H25.625V26.875H26.75V25.875ZM26.125 26.375V25.25H25.125V26.375H26.125ZM26.125 25.25V24.125H25.125V25.25H26.125ZM26.125 24.125V23H25.125V24.125H26.125ZM25.625 22.5H24.5V23.5H25.625V22.5ZM24.5 22.5H23.375V23.5H24.5V22.5ZM22.875 23V24.125H23.875V23H22.875ZM22.875 24.125V25.25H23.875V24.125H22.875ZM22.875 25.25V26.375H23.875V25.25H22.875ZM23.375 26.875H24.5V25.875H23.375V26.875ZM24.5 26.875H25.625V25.875H24.5V26.875ZM25.125 26.375V27.5H26.125V26.375H25.125ZM25.625 27H24.5V28H25.625V27ZM24.5 27H23.375V28H24.5V27ZM22.875 27.5V28.625H23.875V27.5H22.875ZM22.875 28.625V29.75H23.875V28.625H22.875ZM22.875 29.75V30.875H23.875V29.75H22.875ZM22.875 30.875V32H23.875V30.875H22.875ZM23.375 31.5H22.25V32.5H23.375V31.5ZM30.125 32H29.625V32.5H30.125V32ZM30.125 24.125V23.625H29.625V24.125H30.125ZM38 24.125H38.5V23.625H38V24.125ZM38 25.25H37.5V25.75H38V25.25ZM39.125 25.25H39.625V24.75H39.125V25.25ZM39.125 26.375V26.875H39.625V26.375H39.125ZM35.75 26.375H35.25V26.875H35.75V26.375ZM35.75 25.25H36.25V24.75H35.75V25.25ZM33.5 25.25V24.75H33V25.25H33.5ZM33.5 32V32.5H34V32H33.5ZM32.375 31.5H31.25V32.5H32.375V31.5ZM31.25 31.5H30.125V32.5H31.25V31.5ZM30.625 32V30.875H29.625V32H30.625ZM30.625 30.875V29.75H29.625V30.875H30.625ZM30.625 29.75V28.625H29.625V29.75H30.625ZM30.625 28.625V27.5H29.625V28.625H30.625ZM30.625 27.5V26.375H29.625V27.5H30.625ZM30.625 26.375V25.25H29.625V26.375H30.625ZM30.625 25.25V24.125H29.625V25.25H30.625ZM30.125 24.625H31.25V23.625H30.125V24.625ZM31.25 24.625H32.375V23.625H31.25V24.625ZM32.375 24.625H33.5V23.625H32.375V24.625ZM33.5 24.625H34.625V23.625H33.5V24.625ZM34.625 24.625H35.75V23.625H34.625V24.625ZM35.75 24.625H36.875V23.625H35.75V24.625ZM36.875 24.625H38V23.625H36.875V24.625ZM37.5 24.125V25.25H38.5V24.125H37.5ZM38 25.75H39.125V24.75H38V25.75ZM38.625 25.25V26.375H39.625V25.25H38.625ZM39.125 25.875H38V26.875H39.125V25.875ZM38 25.875H36.875V26.875H38V25.875ZM36.875 25.875H35.75V26.875H36.875V25.875ZM36.25 26.375V25.25H35.25V26.375H36.25ZM35.75 24.75H34.625V25.75H35.75V24.75ZM34.625 24.75H33.5V25.75H34.625V24.75ZM33 25.25V26.375H34V25.25H33ZM33 26.375V27.5H34V26.375H33ZM33 27.5V28.625H34V27.5H33ZM33 28.625V29.75H34V28.625H33ZM33 29.75V30.875H34V29.75H33ZM33 30.875V32H34V30.875H33ZM33.5 31.5H32.375V32.5H33.5V31.5ZM41.375 32H40.875V32.5H41.375V32ZM41.375 30.875H41.875V30.375H41.375V30.875ZM40.25 30.875H39.75V31.375H40.25V30.875ZM40.25 25.25V24.75H39.75V25.25H40.25ZM41.375 25.25V25.75H41.875V25.25H41.375ZM41.375 24.125V23.625H40.875V24.125H41.375ZM48.125 24.125H48.625V23.625H48.125V24.125ZM48.125 25.25H47.625V25.75H48.125V25.25ZM49.25 25.25H49.75V24.75H49.25V25.25ZM49.25 30.875V31.375H49.75V30.875H49.25ZM48.125 30.875V30.375H47.625V30.875H48.125ZM48.125 32V32.5H48.625V32H48.125ZM45.875 30.875V31.375H46.375V30.875H45.875ZM45.875 25.25H46.375V24.75H45.875V25.25ZM43.625 25.25V24.75H43.125V25.25H43.625ZM43.625 30.875H43.125V31.375H43.625V30.875ZM47 31.5H45.875V32.5H47V31.5ZM45.875 31.5H44.75V32.5H45.875V31.5ZM44.75 31.5H43.625V32.5H44.75V31.5ZM43.625 31.5H42.5V32.5H43.625V31.5ZM42.5 31.5H41.375V32.5H42.5V31.5ZM41.875 32V30.875H40.875V32H41.875ZM41.375 30.375H40.25V31.375H41.375V30.375ZM40.75 30.875V29.75H39.75V30.875H40.75ZM40.75 29.75V28.625H39.75V29.75H40.75ZM40.75 28.625V27.5H39.75V28.625H40.75ZM40.75 27.5V26.375H39.75V27.5H40.75ZM40.75 26.375V25.25H39.75V26.375H40.75ZM40.25 25.75H41.375V24.75H40.25V25.75ZM41.875 25.25V24.125H40.875V25.25H41.875ZM41.375 24.625H42.5V23.625H41.375V24.625ZM42.5 24.625H43.625V23.625H42.5V24.625ZM43.625 24.625H44.75V23.625H43.625V24.625ZM44.75 24.625H45.875V23.625H44.75V24.625ZM45.875 24.625H47V23.625H45.875V24.625ZM47 24.625H48.125V23.625H47V24.625ZM47.625 24.125V25.25H48.625V24.125H47.625ZM48.125 25.75H49.25V24.75H48.125V25.75ZM48.75 25.25V26.375H49.75V25.25H48.75ZM48.75 26.375V27.5H49.75V26.375H48.75ZM48.75 27.5V28.625H49.75V27.5H48.75ZM48.75 28.625V29.75H49.75V28.625H48.75ZM48.75 29.75V30.875H49.75V29.75H48.75ZM49.25 30.375H48.125V31.375H49.25V30.375ZM47.625 30.875V32H48.625V30.875H47.625ZM48.125 31.5H47V32.5H48.125V31.5ZM44.75 31.375H45.875V30.375H44.75V31.375ZM46.375 30.875V29.75H45.375V30.875H46.375ZM46.375 29.75V28.625H45.375V29.75H46.375ZM46.375 28.625V27.5H45.375V28.625H46.375ZM46.375 27.5V26.375H45.375V27.5H46.375ZM46.375 26.375V25.25H45.375V26.375H46.375ZM45.875 24.75H44.75V25.75H45.875V24.75ZM44.75 24.75H43.625V25.75H44.75V24.75ZM43.125 25.25V26.375H44.125V25.25H43.125ZM43.125 26.375V27.5H44.125V26.375H43.125ZM43.125 27.5V28.625H44.125V27.5H43.125ZM43.125 28.625V29.75H44.125V28.625H43.125ZM43.125 29.75V30.875H44.125V29.75H43.125ZM43.625 31.375H44.75V30.375H43.625V31.375ZM60.5 32H60V32.5H60.5V32ZM60.5 25.25H61V24.75H60.5V25.25ZM59.375 25.25V24.75H58.875V25.25H59.375ZM59.375 32V32.5H59.875V32H59.375ZM54.875 32H54.375V32.5H54.875V32ZM54.875 25.25H55.375V24.75H54.875V25.25ZM53.75 25.25V24.75H53.25V25.25H53.75ZM53.75 32V32.5H54.25V32H53.75ZM50.375 32H49.875V32.5H50.375V32ZM50.375 24.125V23.625H49.875V24.125H50.375ZM56 24.125H56.5V23.625H56V24.125ZM56 25.25H55.5V25.75H56V25.25ZM57.125 25.25V25.75H57.625V25.25H57.125ZM57.125 24.125V23.625H56.625V24.125H57.125ZM62.75 24.125H63.25V23.625H62.75V24.125ZM62.75 25.25H62.25V25.75H62.75V25.25ZM63.875 25.25H64.375V24.75H63.875V25.25ZM63.875 32V32.5H64.375V32H63.875ZM62.75 31.5H61.625V32.5H62.75V31.5ZM61.625 31.5H60.5V32.5H61.625V31.5ZM61 32V30.875H60V32H61ZM61 30.875V29.75H60V30.875H61ZM61 29.75V28.625H60V29.75H61ZM61 28.625V27.5H60V28.625H61ZM61 27.5V26.375H60V27.5H61ZM61 26.375V25.25H60V26.375H61ZM60.5 24.75H59.375V25.75H60.5V24.75ZM58.875 25.25V26.375H59.875V25.25H58.875ZM58.875 26.375V27.5H59.875V26.375H58.875ZM58.875 27.5V28.625H59.875V27.5H58.875ZM58.875 28.625V29.75H59.875V28.625H58.875ZM58.875 29.75V30.875H59.875V29.75H58.875ZM58.875 30.875V32H59.875V30.875H58.875ZM59.375 31.5H58.25V32.5H59.375V31.5ZM58.25 31.5H57.125V32.5H58.25V31.5ZM57.125 31.5H56V32.5H57.125V31.5ZM56 31.5H54.875V32.5H56V31.5ZM55.375 32V30.875H54.375V32H55.375ZM55.375 30.875V29.75H54.375V30.875H55.375ZM55.375 29.75V28.625H54.375V29.75H55.375ZM55.375 28.625V27.5H54.375V28.625H55.375ZM55.375 27.5V26.375H54.375V27.5H55.375ZM55.375 26.375V25.25H54.375V26.375H55.375ZM54.875 24.75H53.75V25.75H54.875V24.75ZM53.25 25.25V26.375H54.25V25.25H53.25ZM53.25 26.375V27.5H54.25V26.375H53.25ZM53.25 27.5V28.625H54.25V27.5H53.25ZM53.25 28.625V29.75H54.25V28.625H53.25ZM53.25 29.75V30.875H54.25V29.75H53.25ZM53.25 30.875V32H54.25V30.875H53.25ZM53.75 31.5H52.625V32.5H53.75V31.5ZM52.625 31.5H51.5V32.5H52.625V31.5ZM51.5 31.5H50.375V32.5H51.5V31.5ZM50.875 32V30.875H49.875V32H50.875ZM50.875 30.875V29.75H49.875V30.875H50.875ZM50.875 29.75V28.625H49.875V29.75H50.875ZM50.875 28.625V27.5H49.875V28.625H50.875ZM50.875 27.5V26.375H49.875V27.5H50.875ZM50.875 26.375V25.25H49.875V26.375H50.875ZM50.875 25.25V24.125H49.875V25.25H50.875ZM50.375 24.625H51.5V23.625H50.375V24.625ZM51.5 24.625H52.625V23.625H51.5V24.625ZM52.625 24.625H53.75V23.625H52.625V24.625ZM53.75 24.625H54.875V23.625H53.75V24.625ZM54.875 24.625H56V23.625H54.875V24.625ZM55.5 24.125V25.25H56.5V24.125H55.5ZM56 25.75H57.125V24.75H56V25.75ZM57.625 25.25V24.125H56.625V25.25H57.625ZM57.125 24.625H58.25V23.625H57.125V24.625ZM58.25 24.625H59.375V23.625H58.25V24.625ZM59.375 24.625H60.5V23.625H59.375V24.625ZM60.5 24.625H61.625V23.625H60.5V24.625ZM61.625 24.625H62.75V23.625H61.625V24.625ZM62.25 24.125V25.25H63.25V24.125H62.25ZM62.75 25.75H63.875V24.75H62.75V25.75ZM63.375 25.25V26.375H64.375V25.25H63.375ZM63.375 26.375V27.5H64.375V26.375H63.375ZM63.375 27.5V28.625H64.375V27.5H63.375ZM63.375 28.625V29.75H64.375V28.625H63.375ZM63.375 29.75V30.875H64.375V29.75H63.375ZM63.375 30.875V32H64.375V30.875H63.375ZM63.875 31.5H62.75V32.5H63.875V31.5ZM66.125 32H65.625V32.5H66.125V32ZM66.125 30.875H66.625V30.375H66.125V30.875ZM65 30.875H64.5V31.375H65V30.875ZM65 25.25V24.75H64.5V25.25H65ZM66.125 25.25V25.75H66.625V25.25H66.125ZM66.125 24.125V23.625H65.625V24.125H66.125ZM72.875 24.125H73.375V23.625H72.875V24.125ZM72.875 25.25H72.375V25.75H72.875V25.25ZM74 25.25H74.5V24.75H74V25.25ZM74 30.875V31.375H74.5V30.875H74ZM72.875 30.875V30.375H72.375V30.875H72.875ZM72.875 32V32.5H73.375V32H72.875ZM70.625 30.875V31.375H71.125V30.875H70.625ZM70.625 25.25H71.125V24.75H70.625V25.25ZM68.375 25.25V24.75H67.875V25.25H68.375ZM68.375 30.875H67.875V31.375H68.375V30.875ZM71.75 31.5H70.625V32.5H71.75V31.5ZM70.625 31.5H69.5V32.5H70.625V31.5ZM69.5 31.5H68.375V32.5H69.5V31.5ZM68.375 31.5H67.25V32.5H68.375V31.5ZM67.25 31.5H66.125V32.5H67.25V31.5ZM66.625 32V30.875H65.625V32H66.625ZM66.125 30.375H65V31.375H66.125V30.375ZM65.5 30.875V29.75H64.5V30.875H65.5ZM65.5 29.75V28.625H64.5V29.75H65.5ZM65.5 28.625V27.5H64.5V28.625H65.5ZM65.5 27.5V26.375H64.5V27.5H65.5ZM65.5 26.375V25.25H64.5V26.375H65.5ZM65 25.75H66.125V24.75H65V25.75ZM66.625 25.25V24.125H65.625V25.25H66.625ZM66.125 24.625H67.25V23.625H66.125V24.625ZM67.25 24.625H68.375V23.625H67.25V24.625ZM68.375 24.625H69.5V23.625H68.375V24.625ZM69.5 24.625H70.625V23.625H69.5V24.625ZM70.625 24.625H71.75V23.625H70.625V24.625ZM71.75 24.625H72.875V23.625H71.75V24.625ZM72.375 24.125V25.25H73.375V24.125H72.375ZM72.875 25.75H74V24.75H72.875V25.75ZM73.5 25.25V26.375H74.5V25.25H73.5ZM73.5 26.375V27.5H74.5V26.375H73.5ZM73.5 27.5V28.625H74.5V27.5H73.5ZM73.5 28.625V29.75H74.5V28.625H73.5ZM73.5 29.75V30.875H74.5V29.75H73.5ZM74 30.375H72.875V31.375H74V30.375ZM72.375 30.875V32H73.375V30.875H72.375ZM72.875 31.5H71.75V32.5H72.875V31.5ZM69.5 31.375H70.625V30.375H69.5V31.375ZM71.125 30.875V29.75H70.125V30.875H71.125ZM71.125 29.75V28.625H70.125V29.75H71.125ZM71.125 28.625V27.5H70.125V28.625H71.125ZM71.125 27.5V26.375H70.125V27.5H71.125ZM71.125 26.375V25.25H70.125V26.375H71.125ZM70.625 24.75H69.5V25.75H70.625V24.75ZM69.5 24.75H68.375V25.75H69.5V24.75ZM67.875 25.25V26.375H68.875V25.25H67.875ZM67.875 26.375V27.5H68.875V26.375H67.875ZM67.875 27.5V28.625H68.875V27.5H67.875ZM67.875 28.625V29.75H68.875V28.625H67.875ZM67.875 29.75V30.875H68.875V29.75H67.875ZM68.375 31.375H69.5V30.375H68.375V31.375ZM76.25 32H75.75V32.5H76.25V32ZM76.25 30.875H76.75V30.375H76.25V30.875ZM75.125 30.875H74.625V31.375H75.125V30.875ZM75.125 25.25V24.75H74.625V25.25H75.125ZM76.25 25.25V25.75H76.75V25.25H76.25ZM76.25 24.125V23.625H75.75V24.125H76.25ZM83 24.125H83.5V23.625H83V24.125ZM83 25.25H82.5V25.75H83V25.25ZM84.125 25.25H84.625V24.75H84.125V25.25ZM84.125 26.375V26.875H84.625V26.375H84.125ZM80.75 26.375H80.25V26.875H80.75V26.375ZM80.75 25.25H81.25V24.75H80.75V25.25ZM78.5 25.25V24.75H78V25.25H78.5ZM78.5 30.875H78V31.375H78.5V30.875ZM80.75 30.875V31.375H81.25V30.875H80.75ZM80.75 29.75V29.25H80.25V29.75H80.75ZM84.125 29.75H84.625V29.25H84.125V29.75ZM84.125 30.875V31.375H84.625V30.875H84.125ZM83 30.875V30.375H82.5V30.875H83ZM83 32V32.5H83.5V32H83ZM81.875 31.5H80.75V32.5H81.875V31.5ZM80.75 31.5H79.625V32.5H80.75V31.5ZM79.625 31.5H78.5V32.5H79.625V31.5ZM78.5 31.5H77.375V32.5H78.5V31.5ZM77.375 31.5H76.25V32.5H77.375V31.5ZM76.75 32V30.875H75.75V32H76.75ZM76.25 30.375H75.125V31.375H76.25V30.375ZM75.625 30.875V29.75H74.625V30.875H75.625ZM75.625 29.75V28.625H74.625V29.75H75.625ZM75.625 28.625V27.5H74.625V28.625H75.625ZM75.625 27.5V26.375H74.625V27.5H75.625ZM75.625 26.375V25.25H74.625V26.375H75.625ZM75.125 25.75H76.25V24.75H75.125V25.75ZM76.75 25.25V24.125H75.75V25.25H76.75ZM76.25 24.625H77.375V23.625H76.25V24.625ZM77.375 24.625H78.5V23.625H77.375V24.625ZM78.5 24.625H79.625V23.625H78.5V24.625ZM79.625 24.625H80.75V23.625H79.625V24.625ZM80.75 24.625H81.875V23.625H80.75V24.625ZM81.875 24.625H83V23.625H81.875V24.625ZM82.5 24.125V25.25H83.5V24.125H82.5ZM83 25.75H84.125V24.75H83V25.75ZM83.625 25.25V26.375H84.625V25.25H83.625ZM84.125 25.875H83V26.875H84.125V25.875ZM83 25.875H81.875V26.875H83V25.875ZM81.875 25.875H80.75V26.875H81.875V25.875ZM81.25 26.375V25.25H80.25V26.375H81.25ZM80.75 24.75H79.625V25.75H80.75V24.75ZM79.625 24.75H78.5V25.75H79.625V24.75ZM78 25.25V26.375H79V25.25H78ZM78 26.375V27.5H79V26.375H78ZM78 27.5V28.625H79V27.5H78ZM78 28.625V29.75H79V28.625H78ZM78 29.75V30.875H79V29.75H78ZM78.5 31.375H79.625V30.375H78.5V31.375ZM79.625 31.375H80.75V30.375H79.625V31.375ZM81.25 30.875V29.75H80.25V30.875H81.25ZM80.75 30.25H81.875V29.25H80.75V30.25ZM81.875 30.25H83V29.25H81.875V30.25ZM83 30.25H84.125V29.25H83V30.25ZM83.625 29.75V30.875H84.625V29.75H83.625ZM84.125 30.375H83V31.375H84.125V30.375ZM82.5 30.875V32H83.5V30.875H82.5ZM83 31.5H81.875V32.5H83V31.5ZM86.375 32H85.875V32.5H86.375V32ZM86.375 30.875H86.875V30.375H86.375V30.875ZM85.25 30.875H84.75V31.375H85.25V30.875ZM85.25 25.25V24.75H84.75V25.25H85.25ZM86.375 25.25V25.75H86.875V25.25H86.375ZM86.375 24.125V23.625H85.875V24.125H86.375ZM93.125 24.125H93.625V23.625H93.125V24.125ZM93.125 25.25H92.625V25.75H93.125V25.25ZM94.25 25.25H94.75V24.75H94.25V25.25ZM94.25 30.875V31.375H94.75V30.875H94.25ZM93.125 30.875V30.375H92.625V30.875H93.125ZM93.125 32V32.5H93.625V32H93.125ZM90.875 30.875V31.375H91.375V30.875H90.875ZM90.875 25.25H91.375V24.75H90.875V25.25ZM88.625 25.25V24.75H88.125V25.25H88.625ZM88.625 30.875H88.125V31.375H88.625V30.875ZM92 31.5H90.875V32.5H92V31.5ZM90.875 31.5H89.75V32.5H90.875V31.5ZM89.75 31.5H88.625V32.5H89.75V31.5ZM88.625 31.5H87.5V32.5H88.625V31.5ZM87.5 31.5H86.375V32.5H87.5V31.5ZM86.875 32V30.875H85.875V32H86.875ZM86.375 30.375H85.25V31.375H86.375V30.375ZM85.75 30.875V29.75H84.75V30.875H85.75ZM85.75 29.75V28.625H84.75V29.75H85.75ZM85.75 28.625V27.5H84.75V28.625H85.75ZM85.75 27.5V26.375H84.75V27.5H85.75ZM85.75 26.375V25.25H84.75V26.375H85.75ZM85.25 25.75H86.375V24.75H85.25V25.75ZM86.875 25.25V24.125H85.875V25.25H86.875ZM86.375 24.625H87.5V23.625H86.375V24.625ZM87.5 24.625H88.625V23.625H87.5V24.625ZM88.625 24.625H89.75V23.625H88.625V24.625ZM89.75 24.625H90.875V23.625H89.75V24.625ZM90.875 24.625H92V23.625H90.875V24.625ZM92 24.625H93.125V23.625H92V24.625ZM92.625 24.125V25.25H93.625V24.125H92.625ZM93.125 25.75H94.25V24.75H93.125V25.75ZM93.75 25.25V26.375H94.75V25.25H93.75ZM93.75 26.375V27.5H94.75V26.375H93.75ZM93.75 27.5V28.625H94.75V27.5H93.75ZM93.75 28.625V29.75H94.75V28.625H93.75ZM93.75 29.75V30.875H94.75V29.75H93.75ZM94.25 30.375H93.125V31.375H94.25V30.375ZM92.625 30.875V32H93.625V30.875H92.625ZM93.125 31.5H92V32.5H93.125V31.5ZM89.75 31.375H90.875V30.375H89.75V31.375ZM91.375 30.875V29.75H90.375V30.875H91.375ZM91.375 29.75V28.625H90.375V29.75H91.375ZM91.375 28.625V27.5H90.375V28.625H91.375ZM91.375 27.5V26.375H90.375V27.5H91.375ZM91.375 26.375V25.25H90.375V26.375H91.375ZM90.875 24.75H89.75V25.75H90.875V24.75ZM89.75 24.75H88.625V25.75H89.75V24.75ZM88.125 25.25V26.375H89.125V25.25H88.125ZM88.125 26.375V27.5H89.125V26.375H88.125ZM88.125 27.5V28.625H89.125V27.5H88.125ZM88.125 28.625V29.75H89.125V28.625H88.125ZM88.125 29.75V30.875H89.125V29.75H88.125ZM88.625 31.375H89.75V30.375H88.625V31.375ZM96.5 32H96V32.5H96.5V32ZM96.5 30.875H97V30.375H96.5V30.875ZM95.375 30.875H94.875V31.375H95.375V30.875ZM95.375 25.25V24.75H94.875V25.25H95.375ZM96.5 25.25V25.75H97V25.25H96.5ZM96.5 24.125V23.625H96V24.125H96.5ZM101 24.125V24.625H101.5V24.125H101ZM101 20.75V20.25H100.5V20.75H101ZM104.375 20.75H104.875V20.25H104.375V20.75ZM104.375 32V32.5H104.875V32H104.375ZM101 30.875V31.375H101.5V30.875H101ZM101 25.25H101.5V24.75H101V25.25ZM98.75 25.25V24.75H98.25V25.25H98.75ZM98.75 30.875H98.25V31.375H98.75V30.875ZM103.25 31.5H102.125V32.5H103.25V31.5ZM102.125 31.5H101V32.5H102.125V31.5ZM101 31.5H99.875V32.5H101V31.5ZM99.875 31.5H98.75V32.5H99.875V31.5ZM98.75 31.5H97.625V32.5H98.75V31.5ZM97.625 31.5H96.5V32.5H97.625V31.5ZM97 32V30.875H96V32H97ZM96.5 30.375H95.375V31.375H96.5V30.375ZM95.875 30.875V29.75H94.875V30.875H95.875ZM95.875 29.75V28.625H94.875V29.75H95.875ZM95.875 28.625V27.5H94.875V28.625H95.875ZM95.875 27.5V26.375H94.875V27.5H95.875ZM95.875 26.375V25.25H94.875V26.375H95.875ZM95.375 25.75H96.5V24.75H95.375V25.75ZM97 25.25V24.125H96V25.25H97ZM96.5 24.625H97.625V23.625H96.5V24.625ZM97.625 24.625H98.75V23.625H97.625V24.625ZM98.75 24.625H99.875V23.625H98.75V24.625ZM99.875 24.625H101V23.625H99.875V24.625ZM101.5 24.125V23H100.5V24.125H101.5ZM101.5 23V21.875H100.5V23H101.5ZM101.5 21.875V20.75H100.5V21.875H101.5ZM101 21.25H102.125V20.25H101V21.25ZM102.125 21.25H103.25V20.25H102.125V21.25ZM103.25 21.25H104.375V20.25H103.25V21.25ZM103.875 20.75V21.875H104.875V20.75H103.875ZM103.875 21.875V23H104.875V21.875H103.875ZM103.875 23V24.125H104.875V23H103.875ZM103.875 24.125V25.25H104.875V24.125H103.875ZM103.875 25.25V26.375H104.875V25.25H103.875ZM103.875 26.375V27.5H104.875V26.375H103.875ZM103.875 27.5V28.625H104.875V27.5H103.875ZM103.875 28.625V29.75H104.875V28.625H103.875ZM103.875 29.75V30.875H104.875V29.75H103.875ZM103.875 30.875V32H104.875V30.875H103.875ZM104.375 31.5H103.25V32.5H104.375V31.5ZM99.875 31.375H101V30.375H99.875V31.375ZM101.5 30.875V29.75H100.5V30.875H101.5ZM101.5 29.75V28.625H100.5V29.75H101.5ZM101.5 28.625V27.5H100.5V28.625H101.5ZM101.5 27.5V26.375H100.5V27.5H101.5ZM101.5 26.375V25.25H100.5V26.375H101.5ZM101 24.75H99.875V25.75H101V24.75ZM99.875 24.75H98.75V25.75H99.875V24.75ZM98.25 25.25V26.375H99.25V25.25H98.25ZM98.25 26.375V27.5H99.25V26.375H98.25ZM98.25 27.5V28.625H99.25V27.5H98.25ZM98.25 28.625V29.75H99.25V28.625H98.25ZM98.25 29.75V30.875H99.25V29.75H98.25ZM98.75 31.375H99.875V30.375H98.75V31.375Z" fill="#543847" mask="url(#path-6-outside-3_105_6)"/>
</svg>
